<?xml version="1.0" encoding="utf-8"?>
<!-- Generator: Adobe Illustrator 15.0.0, SVG Export Plug-In  -->
<!DOCTYPE svg PUBLIC "-//W3C//DTD SVG 1.1//EN" "http://www.w3.org/Graphics/SVG/1.1/DTD/svg11.dtd" [
	<!ENTITY ns_flows "http://ns.adobe.com/Flows/1.0/">
]>
<svg version="1.1"
	 xmlns="http://www.w3.org/2000/svg" xmlns:xlink="http://www.w3.org/1999/xlink" xmlns:a="http://ns.adobe.com/AdobeSVGViewerExtensions/3.0/"
	 x="0px" y="0px" width="138px" height="140px" viewBox="-4.691 -4.863 138 140"
	 overflow="visible" enable-background="new -4.691 -4.863 138 140" xml:space="preserve">
<defs>
</defs>
<g>
	<path fill="#FFFFFF" d="M108.644,7.658c-0.003,0.096-0.039,0.298-0.115,0.422c-0.066,0.134-0.157,0.243-0.251,0.341
		c-0.19,0.194-0.403,0.347-0.622,0.478c-0.437,0.264-0.899,0.454-1.361,0.635c-0.925,0.363-1.877,0.616-2.826,0.879
		c-1.9,0.52-3.833,0.874-5.758,1.278c-3.86,0.74-7.742,1.419-11.644,1.948c-3.901,0.517-7.818,0.908-11.743,1.09
		c-3.926,0.177-7.852,0.193-11.781,0.074c-7.848-0.256-15.671-1.126-23.474-1.788c-3.905-0.338-7.806-0.697-11.711-1.16
		c-1.952-0.244-3.904-0.51-5.868-0.871c-0.981-0.192-1.962-0.409-2.958-0.734c-0.5-0.167-1-0.351-1.523-0.639
		c-0.262-0.146-0.534-0.32-0.815-0.591c-0.265-0.26-0.619-0.71-0.642-1.382c0.025-0.327-0.01-0.099,0.038-0.383
		c0.041-0.201,0.114-0.387,0.166-0.479c0.118-0.244,0.259-0.416,0.393-0.563c0.272-0.292,0.539-0.488,0.795-0.655
		c0.514-0.331,1.007-0.558,1.5-0.767c0.984-0.41,1.957-0.712,2.932-0.989c1.946-0.549,3.897-0.951,5.852-1.297
		c3.909-0.69,7.831-1.125,11.754-1.473c7.847-0.691,15.702-1.076,23.568-1.026c7.85,0.092,15.724,0.429,23.521,1.59
		c3.901,0.533,7.784,1.212,11.646,1.958c1.925,0.405,3.857,0.765,5.758,1.289c0.949,0.265,1.904,0.512,2.831,0.874
		c0.463,0.182,0.923,0.38,1.36,0.648c0.402,0.271,0.933,0.6,0.98,1.273L108.644,7.658z M108.245,7.637
		c-0.016-0.351-0.418-0.67-0.808-0.896c-0.404-0.231-0.85-0.411-1.301-0.572c-0.907-0.313-1.846-0.566-2.798-0.751
		c-1.907-0.357-3.834-0.638-5.776-0.785c-3.88-0.345-7.785-0.386-11.679-0.413c-3.897-0.003-7.789,0.054-11.677,0.023
		c-3.889,0.014-7.771-0.046-11.664,0.026c-3.881,0-7.771,0.084-11.654,0.132c-3.884,0.055-7.767,0.175-11.641,0.382
		c-3.872,0.214-7.738,0.498-11.57,0.898c-1.914,0.207-3.822,0.445-5.683,0.776c-0.926,0.173-1.847,0.371-2.697,0.637
		c-0.42,0.133-0.833,0.285-1.159,0.454c-0.164,0.082-0.296,0.174-0.368,0.229c-0.036,0.026-0.054,0.046-0.043,0.021
		c-0.012,0.011,0.025-0.058,0.03-0.141c0.003-0.17-0.021,0.185-0.017-0.022c-0.013-0.176-0.088-0.183-0.015-0.098
		c0.062,0.076,0.189,0.19,0.348,0.294c0.316,0.212,0.722,0.406,1.137,0.582c0.838,0.351,1.751,0.634,2.67,0.892
		c1.844,0.519,3.751,0.894,5.667,1.202c3.835,0.628,7.722,0.988,11.613,1.211c7.791,0.437,15.604-0.001,23.388-0.248
		c3.886-0.12,7.777-0.218,11.663-0.288c3.888-0.065,7.779-0.051,11.675-0.088c3.894-0.031,7.8-0.072,11.68-0.423
		c1.943-0.148,3.87-0.435,5.778-0.795c0.952-0.188,1.893-0.434,2.802-0.747c0.452-0.161,0.896-0.35,1.299-0.586
		c0.389-0.239,0.789-0.535,0.801-0.929L108.245,7.637z"/>
</g>
<g>
	<path fill="#FFFFFF" d="M17.645,8.138c0.755,3.579,0.974,7.185,1.103,10.771c0.046,1.793,0.047,3.583,0.002,5.368
		c-0.027,1.786-0.13,3.566-0.327,5.341c-0.392,3.547-1.134,7.087-1.257,10.65c-0.131,3.56,0.166,7.125,0.798,10.627
		c0.296,1.753,0.682,3.487,1.019,5.215c0.354,1.726,0.686,3.446,1.076,5.15c0.397,1.714,0.826,3.364,1.309,5.087
		c0.486,1.73,0.892,3.455,1.304,5.173c0.794,3.44,1.561,6.862,2.504,10.211c0.48,1.67,1.008,3.318,1.659,4.909
		c0.676,1.571,1.432,3.124,2.713,4.325l-0.204,0.344c-1.792-0.684-3.163-2.164-4.28-3.646c-1.129-1.509-2.032-3.146-2.83-4.809
		c-1.591-3.334-2.745-6.807-3.704-10.289c-0.463-1.745-0.876-3.497-1.225-5.239c-0.376-1.743-0.718-3.582-0.965-5.382
		c-0.255-1.809-0.457-3.622-0.543-5.44c-0.098-1.817-0.054-3.641-0.016-5.449c0.115-3.624,0.223-7.204,0.096-10.787
		c-0.118-3.581-0.661-7.183-0.787-10.773c-0.064-1.795-0.017-3.584,0.105-5.366c0.106-1.783,0.257-3.562,0.44-5.338
		c0.4-3.552,0.832-7.089,1.61-10.653L17.645,8.138z"/>
</g>
<g>
	<path fill="#FFFFFF" d="M108.645,9.137c0.745,3.577,1.334,7.068,1.937,10.593c0.286,1.76,0.557,3.524,0.793,5.296
		c0.253,1.77,0.44,3.552,0.525,5.349c0.173,3.596-0.039,7.244,0.183,10.835c0.214,3.595,0.676,7.161,1.135,10.776
		c0.207,1.808,0.424,3.631,0.474,5.467c0.068,1.837,0.003,3.683-0.15,5.533c-0.311,3.691-0.972,7.464-2.511,10.999
		c-1.506,3.575-4.05,6.626-6.355,9.212c-1.139,1.326-2.178,2.637-3.021,4.115c-0.844,1.476-1.479,3.111-2.01,4.846l-0.398-0.041
		c-0.16-1.832-0.008-3.733,0.515-5.579c0.501-1.855,1.399-3.599,2.355-5.178c0.955-1.592,1.947-3.044,2.793-4.516
		c0.846-1.486,1.561-2.936,2.178-4.504c1.223-3.098,2.128-6.396,2.702-9.818c0.288-1.71,0.49-3.444,0.694-5.193
		c0.194-1.749,0.415-3.516,0.545-5.294c0.297-3.56,0.239-7.154-0.229-10.702c-0.461-3.553-1.523-7.03-2.21-10.559
		c-0.345-1.765-0.589-3.545-0.748-5.339c-0.177-1.792-0.299-3.595-0.359-5.405c-0.08-3.616-0.025-7.291,0.764-10.893H108.645z"/>
</g>
<g>
	<path fill="#FFFFFF" d="M25.445,93.937c3.176-0.767,6.372-1.037,9.56-1.215c1.594-0.071,3.187-0.096,4.777-0.07
		c1.591,0.009,3.178,0.099,4.76,0.293c3.163,0.387,6.305,1.165,9.469,1.41c3.163,0.253,6.341,0.162,9.515-0.137
		c1.586-0.13,3.171-0.318,4.751-0.423c1.58-0.119,3.157-0.184,4.732-0.266c3.15-0.16,6.286-0.391,9.422-0.477
		c6.283-0.108,12.522-0.256,18.979-0.113l0.07,0.395c-6.036,2.401-12.455,3.496-18.847,3.986c-3.204,0.215-6.413,0.124-9.608-0.01
		c-1.598-0.069-3.194-0.148-4.786-0.306c-1.593-0.143-3.181-0.391-4.767-0.598c-3.17-0.455-6.334-0.769-9.512-0.764
		c-3.176-0.004-6.375,0.502-9.552,0.634c-1.589,0.067-3.172,0.034-4.752-0.07c-1.581-0.087-3.159-0.214-4.736-0.371
		c-3.155-0.352-6.305-0.732-9.475-1.499L25.445,93.937z"/>
</g>
<g>
	<path fill="#FFFFFF" d="M17.542,24.312c-0.773,0.861-1.457,1.632-2.132,2.44c-0.652,0.818-1.286,1.613-1.879,2.435
		c-0.594,0.82-1.158,1.65-1.703,2.49c-0.528,0.852-1.063,1.691-1.638,2.525c-1.134,1.655-2.451,3.408-2.929,5.464
		c-0.483,2.013-0.292,4.245,0.341,6.202c0.301,0.993,0.728,1.927,1.138,2.834c0.42,0.906,0.858,1.788,1.362,2.643
		c1.006,1.712,2.28,3.273,3.505,4.972c1.215,1.703,2.484,3.483,3.573,5.437c1.086,1.944,2.045,4.041,2.442,6.292l-0.355,0.184
		l-4.596-4.571c-1.521-1.491-3.038-3.016-4.453-4.74c-1.405-1.724-2.606-3.731-3.508-5.901c-0.448-1.084-0.83-2.208-1.039-3.369
		c-0.228-1.156-0.258-2.342-0.24-3.49c0.024-1.153,0.141-2.279,0.234-3.388l0.151-1.65l0.173-1.672
		c0.255-2.204,0.407-4.567,1.229-6.761c0.827-2.179,2.312-4.047,4.018-5.605c1.727-1.527,3.819-2.757,6.112-3.118L17.542,24.312z"/>
</g>
<g>
	<path fill="#FFFFFF" d="M15.48,16.334c-1.306,0.609-2.477,1.269-3.533,2.036c-1.043,0.786-1.97,1.651-2.791,2.609
		c-0.82,0.96-1.538,2.001-2.188,3.098c-0.634,1.108-1.225,2.252-1.83,3.424c-1.202,2.333-2.458,4.867-2.936,7.595
		c-0.495,2.719-0.365,5.528,0.135,8.243c0.234,1.361,0.572,2.699,0.866,4.028c0.31,1.328,0.606,2.647,0.958,3.951
		c0.705,2.606,1.621,5.122,2.578,7.586c0.951,2.469,2.045,4.864,3.426,7.098c1.386,2.235,3.074,4.266,5.354,5.949l-0.151,0.371
		c-2.922-0.448-5.589-2.226-7.668-4.358c-2.102-2.156-3.703-4.728-4.905-7.419c-1.194-2.705-1.875-5.579-2.333-8.444
		c-0.226-1.436-0.397-2.877-0.443-4.325c-0.06-1.446,0.031-2.898,0.131-4.333l0.773-8.514c0.247-2.817,0.26-5.779,1.113-8.656
		c0.851-2.853,2.591-5.522,4.949-7.527c2.355-1.999,5.5-3.132,8.424-2.806L15.48,16.334z"/>
</g>
</svg>
