<?xml version="1.0" encoding="utf-8"?>
<!-- Generator: Adobe Illustrator 15.0.0, SVG Export Plug-In  -->
<!DOCTYPE svg PUBLIC "-//W3C//DTD SVG 1.1//EN" "http://www.w3.org/Graphics/SVG/1.1/DTD/svg11.dtd" [
	<!ENTITY ns_flows "http://ns.adobe.com/Flows/1.0/">
]>
<svg version="1.1"
	 xmlns="http://www.w3.org/2000/svg" xmlns:xlink="http://www.w3.org/1999/xlink" xmlns:a="http://ns.adobe.com/AdobeSVGViewerExtensions/3.0/"
	 x="0px" y="0px" width="250px" height="250px" viewBox="-138.54 -26.163 250 250"
	 overflow="visible" enable-background="new -138.54 -26.163 250 250" xml:space="preserve">
<defs>
</defs>
<path fill="#FFFFFF" d="M0.929,0c0,0,1.037,0.173,3.111,0.519c2.072,0.346,5.01,1.037,8.639,1.728
	c3.802,0.864,8.295,1.901,13.479,3.802c2.592,1.037,5.356,2.246,7.947,3.801c2.938,1.729,5.529,3.803,8.122,6.221
	c5.011,5.012,9.849,12.269,9.849,21.945v1.382c0,0.691-0.172,1.21-0.172,1.901c-0.173,1.209-0.346,2.246-0.691,3.455
	c-0.519,2.246-1.383,4.32-2.246,6.394c-1.9,4.147-4.32,7.948-6.912,11.231c-2.592,3.456-5.356,6.566-7.775,9.677
	c-1.21,1.555-2.419,3.11-3.283,4.665l-0.864,1.383l-0.69,1.036c-0.346,0.864-0.865,1.556-1.21,2.419
	c-1.556,3.284-2.419,6.566-2.593,9.678c0,1.555,0,2.938,0.347,4.318l0.173,0.52v0.172l0,0c-0.173-0.345,0,0,0-0.172v0.172
	l0.346,0.691c0.172,0.346,0.172,0.346,0.172,0.519c0.174,0.519,0.52,1.209,1.037,1.901c3.11,5.355,9.677,10.021,16.588,14.688
	c3.456,2.418,7.085,4.838,10.713,7.602c3.629,2.766,7.086,5.875,10.195,9.85c3.11,3.802,5.357,8.294,6.912,12.959
	c1.555,4.666,2.246,9.504,2.073,13.996v1.556v0.691l-0.173,0.864c-0.173,1.209-0.346,2.418-0.519,3.455
	c-0.519,2.246-1.037,4.32-1.901,6.394c-1.728,3.974-3.801,7.603-6.393,10.54c-1.21,1.555-2.592,2.766-3.802,3.975
	c-1.382,1.21-2.592,2.246-4.146,3.283l-0.864,0.691l-1.209,0.691l-1.21,0.69l-1.037,0.69c-1.382,0.865-2.938,1.383-4.319,2.074
	c-5.529,2.246-10.541,2.938-14.516,3.283c-3.974,0.346-6.91,0.346-9.157,0.346c-2.073,0-3.283-0.174-3.283-0.174
	c-0.519,0-0.864-0.518-0.864-1.035c0-0.346,0.174-0.52,0.52-0.691c0,0,1.036-0.519,2.938-1.383c1.9-0.863,4.665-2.073,7.947-3.801
	c3.283-1.557,7.43-3.629,11.06-6.221c0.864-0.691,1.9-1.383,2.765-2.246l0.691-0.52l0.518-0.518l0.519-0.52l0.691-0.863
	c0.69-0.863,1.728-2.073,2.419-3.109c0.691-1.037,1.555-2.247,2.246-3.283c2.765-4.666,4.32-9.678,4.492-15.379
	c0-5.702-1.555-11.577-5.529-16.588c-1.9-2.42-4.492-5.012-7.43-7.431s-6.221-4.838-9.676-7.257
	c-3.456-2.42-7.085-5.184-10.713-8.467c-3.629-3.283-7.258-7.085-9.85-11.924c-0.691-1.209-1.21-2.418-1.729-3.973
	c-0.172-0.346-0.346-0.864-0.346-1.038v-0.345v-0.174l-0.172-0.345v-0.173l-0.174-0.518l-0.172-1.038
	c-0.519-2.937-0.691-5.702-0.346-8.467c0.518-5.529,2.419-10.54,4.838-14.86c0.519-1.035,1.209-2.072,1.9-3.109l1.037-1.555
	l1.037-1.383c1.555-2.074,2.938-3.629,4.492-5.357c2.938-3.282,5.875-6.22,8.294-8.984c5.011-5.702,8.812-11.231,9.331-17.279
	v-0.863c0-0.347,0-0.691,0-1.037c0-0.691,0-1.383-0.173-2.074c-0.173-1.383-0.519-2.765-1.036-4.146
	c-1.037-2.766-2.592-5.356-4.32-7.604c-1.729-2.246-3.975-4.319-6.048-5.875c-2.247-1.728-4.492-3.109-6.739-4.319
	c-4.492-2.419-8.639-3.975-12.268-5.356c-3.629-1.383-6.394-2.419-8.295-3.11c-1.9-0.691-2.938-1.21-2.938-1.21
	c-0.518-0.172-0.69-0.691-0.518-1.036C0.238,0.173,0.583,0,0.929,0z"/>
</svg>
