<?xml version="1.0" encoding="utf-8"?>
<!-- Generator: Adobe Illustrator 15.0.0, SVG Export Plug-In  -->
<!DOCTYPE svg PUBLIC "-//W3C//DTD SVG 1.1//EN" "http://www.w3.org/Graphics/SVG/1.1/DTD/svg11.dtd" [
	<!ENTITY ns_flows "http://ns.adobe.com/Flows/1.0/">
]>
<svg version="1.1"
	 xmlns="http://www.w3.org/2000/svg" xmlns:xlink="http://www.w3.org/1999/xlink" xmlns:a="http://ns.adobe.com/AdobeSVGViewerExtensions/3.0/"
	 x="0px" y="0px" width="250px" height="250px" viewBox="-58.501 -155.498 250 250"
	 overflow="visible" enable-background="new -58.501 -155.498 250 250" xml:space="preserve">
<defs>
</defs>
<path fill="#FFFFFF" d="M17.311,2.418c0,0-0.173,0-0.346-0.172c-0.172-0.174-0.691-0.174-1.037-0.346
	c-1.037-0.346-2.419-0.691-4.147-0.346C10.053,1.729,7.98,2.592,6.425,4.492C5.733,5.355,5.042,6.564,4.697,7.775
	c-0.173,0.691-0.173,1.209-0.173,1.9v0.52v0.518c0,0.346,0.173,0.691,0.173,1.209c0.346,3.109,1.382,6.049,3.629,8.295
	c2.246,2.246,5.356,3.629,8.985,4.32c0.864,0.172,1.728,0.344,2.765,0.518c1.036,0.172,2.073,0.172,3.283,0.346
	c2.247,0.346,4.493,0.689,6.912,1.555c1.209,0.346,2.419,0.863,3.629,1.383c0.346,0.172,0.518,0.346,0.864,0.518l0.173,0.174h0.173
	l0,0l0.173,0.172l0.346,0.174l0.691,0.518c0.173,0.174,0.691,0.518,0.864,0.691c0.691,0.518,1.21,1.037,1.728,1.555
	c0.519,0.52,1.037,1.209,1.382,1.729c0.864,1.209,1.555,2.592,2.074,3.975c2.246,5.701,1.209,12.785-3.111,17.625
	c-0.519,0.689-2.074,2.246-2.938,2.936c-1.037,0.865-2.073,1.557-3.283,2.248c-2.073,1.383-4.147,2.246-6.047,3.283
	c-3.802,1.9-7.085,3.281-9.331,5.01s-3.974,3.801-5.356,5.875c-2.938,4.146-4.32,8.467-4.666,12.096
	c-0.173,1.729-0.346,3.283-0.346,4.32c0,0.518,0,1.035,0,1.209c0,0.346,0,0.52,0,0.52c0,0.172-0.173,0.172-0.173,0.172s0,0-0.172,0
	c0,0-0.519-0.346-1.382-1.037c-0.864-0.691-2.074-2.072-3.283-3.975c-1.209-1.9-2.074-4.664-2.247-7.947
	c-0.172-3.283,0.346-7.084,2.074-10.887c1.728-3.801,4.493-7.258,8.294-10.195c3.801-2.764,7.948-4.492,11.577-6.047
	c1.901-0.863,3.629-1.555,5.184-2.42c0.691-0.346,1.555-0.863,2.073-1.381l0.519-0.346l0.345-0.346
	c0.173-0.174,0.173-0.174,0.346-0.346l0.519-0.52c1.555-1.555,2.419-4.146,1.728-6.91c-0.173-0.691-0.346-1.211-0.691-1.902
	c-0.173-0.344-0.346-0.689-0.519-0.863l-0.345-0.346l-0.173-0.346c-0.173-0.172,0-0.172-0.346-0.346l-0.691-0.518l-0.346-0.346
	c-0.172-0.174,0.173,0.172,0.173,0.172l0,0l0,0l-0.173-0.172c-0.172-0.174-0.345-0.174-0.518-0.346
	c-0.691-0.518-1.382-0.863-2.247-1.209c-1.728-0.865-3.456-1.383-5.529-2.074c-2.073-0.691-4.147-1.209-6.22-1.9
	c-4.32-1.383-8.467-3.801-11.231-7.43S0.204,15.205,0.377,11.75c0-0.346,0-0.865,0-1.211V9.85V9.156
	C0.55,8.293,0.723,7.258,1.068,6.564C1.759,5.01,2.796,3.627,3.833,2.592C6.079,0.518,8.844,0,10.917,0
	c2.073,0.172,3.628,0.689,4.493,1.209c0.519,0.174,0.864,0.52,1.037,0.52C16.62,1.9,16.792,1.9,16.792,1.9
	c0.172,0,0.172,0.172,0,0.346C17.483,2.418,17.311,2.418,17.311,2.418z"/>
</svg>
