<?xml version="1.0" encoding="utf-8"?>
<!-- Generator: Adobe Illustrator 15.0.0, SVG Export Plug-In  -->
<!DOCTYPE svg PUBLIC "-//W3C//DTD SVG 1.1//EN" "http://www.w3.org/Graphics/SVG/1.1/DTD/svg11.dtd" [
	<!ENTITY ns_flows "http://ns.adobe.com/Flows/1.0/">
]>
<svg version="1.1"
	 xmlns="http://www.w3.org/2000/svg" xmlns:xlink="http://www.w3.org/1999/xlink" xmlns:a="http://ns.adobe.com/AdobeSVGViewerExtensions/3.0/"
	 x="0px" y="0px" width="250px" height="250px" viewBox="-80.701 -0.417 250 250"
	 overflow="visible" enable-background="new -80.701 -0.417 250 250" xml:space="preserve">
<defs>
</defs>
<path fill="#FFFFFF" d="M52.113,192.491c0,0-1.036,0-2.764-0.173c-1.729-0.173-4.492-0.519-7.776-1.556
	c-3.283-1.036-7.43-2.592-11.577-6.565c-1.901-1.901-3.802-4.32-5.184-7.431c-1.382-2.938-2.246-6.738-1.555-10.886
	c0-0.519,0.172-1.036,0.345-1.555v-0.346v-0.173v-0.346v-0.174l0.173-0.518v-0.172l0.173-0.346l0.346-0.864
	c0.173-0.519,0.346-0.864,0.691-1.383c0.864-1.728,1.901-3.456,3.11-4.839c2.247-2.938,4.666-5.011,6.739-7.256
	c4.147-4.148,8.122-8.813,10.886-13.996c2.765-5.184,4.146-10.887,3.801-16.935c-0.345-6.22-2.072-12.614-5.011-18.489l-0.519-1.036
	l-0.172-0.519l-0.345-0.519l-0.691-1.209l-0.691-1.037c-0.864-1.382-1.729-2.938-2.765-4.319c-1.9-2.766-3.974-5.529-6.22-8.295
	c-4.32-5.355-9.158-10.367-13.824-15.551c-4.492-5.184-8.985-10.541-12.268-16.242c-3.456-5.702-5.702-11.75-6.566-17.625
	c-0.518-2.938-0.518-5.702-0.345-8.467c0-0.691,0.172-1.382,0.172-2.074c0.173-0.864,0.173-1.209,0.346-1.901
	c0.172-0.691,0.345-1.209,0.518-1.901c0.173-0.518,0.346-1.209,0.519-1.728c1.555-4.493,3.974-8.121,6.393-10.541
	c2.419-2.419,4.666-3.801,6.394-4.666c0.864-0.345,1.382-0.691,1.9-0.864c0.346,0.346,0.691,0.173,0.691,0.173
	c0.519-0.173,0.864,0,1.037,0.519c0.173,0.345,0,0.864-0.346,1.037l0,0c0,0-0.172,0.173-0.518,0.346s-0.864,0.518-1.555,1.037
	c-1.382,0.864-3.283,2.419-5.011,4.838c-1.728,2.419-3.456,5.702-4.319,9.676c-0.173,0.519-0.173,1.037-0.346,1.555
	c0,0.518-0.172,1.037-0.172,1.555c0,0.518-0.173,1.209-0.173,1.728c0,0.518,0,1.037,0,1.728c0,2.247,0.345,4.666,1.037,7.084
	c1.209,4.839,3.802,9.849,7.084,14.688c3.456,4.838,7.776,9.503,12.614,14.169c4.838,4.666,10.022,9.676,14.86,15.205
	c2.419,2.766,5.011,5.703,7.257,8.641c1.21,1.555,2.246,3.109,3.283,4.838l0.864,1.209l0.69,1.21l0.346,0.519l0.346,0.691
	l0.691,1.383c3.801,6.911,6.393,14.687,6.912,22.98c0.172,2.074,0.172,4.146,0,6.221c-0.174,1.037-0.174,2.073-0.346,3.11
	l-0.174,1.728c0,0.52-0.172,0.865-0.346,1.383c-0.863,3.974-2.246,7.775-3.974,11.231c-3.629,6.912-8.294,12.441-12.787,17.106
	c-2.246,2.419-4.319,4.32-5.702,6.047c-0.691,0.865-1.209,1.729-1.555,2.42c0,0.172-0.173,0.346-0.173,0.519v0.173l0,0v0.173
	l-0.172,0.519v0.172c0,0.174,0-0.172,0-0.172l0,0v0.172c0,0.174-0.173,0.346-0.173,0.52c-0.518,2.764,0.519,6.393,2.419,9.157
	c1.728,2.765,4.32,5.356,6.566,7.257c2.247,1.901,4.319,3.629,5.702,4.666c1.383,1.209,2.074,1.9,2.074,1.9
	c0.345,0.346,0.345,0.864,0,1.383C52.633,192.318,52.459,192.491,52.113,192.491L52.113,192.491z"/>
</svg>
