<?xml version="1.0" encoding="UTF-8" standalone="no"?>
<svg width="622px" height="504px" viewBox="0 0 622 504" version="1.1" xmlns="http://www.w3.org/2000/svg" xmlns:xlink="http://www.w3.org/1999/xlink">
    <!-- Generator: Sketch 40 (33762) - http://www.bohemiancoding.com/sketch -->
    <title>Group 7</title>
    <desc>Created with Sketch.</desc>
    <defs></defs>
    <g id="HP-temp" stroke="none" stroke-width="1" fill="none" fill-rule="evenodd">
        <g id="Desktop-HD-Copy-2" transform="translate(-425.000000, -8312.000000)">
            <g id="Group-7" transform="translate(432.000000, 8319.000000)">
                <path d="M495.907495,0.574400528 L0.0925045046,489.425599" id="Line" stroke="#FEF339" stroke-width="10" stroke-linecap="square"></path>
                <path d="M103.764648,111 L88.4033203,111 L94.2041016,77.5380859 L71.6992188,77.5380859 L65.8984375,111 L50.4833984,111 L64.0185547,32.796875 L79.4335938,32.796875 L73.9550781,64.4326172 L96.4599609,64.4326172 L101.992188,32.796875 L117.353516,32.796875 L103.764648,111 Z M143.510742,112.074219 C136.635708,111.930989 131.184102,109.675152 127.155762,105.306641 C123.127421,100.938129 120.934247,94.868854 120.576172,87.0986328 C120.432942,84.4130725 120.540363,81.6917456 120.898438,78.9345703 L122.885742,65.9365234 C123.924159,58.9898741 125.947251,52.8310815 128.955078,47.4599609 C131.962906,42.0888403 135.70473,38.0963672 140.180664,35.4824219 C144.656598,32.8684765 149.705376,31.6152338 155.327148,31.7226562 C162.273798,31.8658861 167.725403,34.2380955 171.682129,38.8393555 C175.638854,43.4406155 177.760415,49.733684 178.046875,57.71875 C178.11849,60.7265775 177.957359,63.5732288 177.563477,66.2587891 L175.791016,78.2363281 C174.179679,88.9785693 170.554227,97.3484401 164.914551,103.346191 C159.274874,109.343943 152.140343,112.253256 143.510742,112.074219 L143.510742,112.074219 Z M162.148438,65.7216797 C162.578127,62.0335102 162.792969,59.186859 162.792969,57.1816406 C162.613931,49.1965747 159.731473,45.0966808 154.145508,44.8818359 C149.848611,44.7027986 146.384291,46.3230623 143.752441,49.7426758 C141.120592,53.1622892 139.285487,58.5243775 138.24707,65.8291016 L136.367188,78.9882812 C135.937498,82.5332208 135.776367,85.3082582 135.883789,87.3134766 C136.062826,94.8330454 139.016898,98.7180977 144.746094,98.96875 C148.828145,99.1119799 152.176094,97.6080887 154.790039,94.4570312 C157.403984,91.3059738 159.230138,86.1497754 160.268555,78.9882812 L162.148438,65.7216797 Z M217.470703,90.0527344 C217.828778,87.4029815 217.443853,85.1919034 216.315918,83.4194336 C215.187983,81.6469638 212.842628,79.9103275 209.279785,78.2094727 C205.716942,76.5086178 202.736015,74.7451263 200.336914,72.9189453 C193.784147,67.9417069 190.776365,61.65759 191.313477,54.0664062 C191.635744,49.6978948 193.005359,45.8038908 195.422363,42.3842773 C197.839368,38.9646639 201.070943,36.3059991 205.117187,34.4082031 C209.163432,32.5104072 213.496071,31.6152338 218.115234,31.7226562 C224.811231,31.8658861 230.047995,34.1843851 233.825684,38.6782227 C237.603372,43.1720602 239.34896,48.9280248 239.0625,55.9462891 L223.701172,55.8925781 C224.095054,48.5520466 221.7497,44.8281255 216.665039,44.7207031 C214.051094,44.6490882 211.804209,45.4995029 209.924316,47.2719727 C208.044424,49.0444425 206.907554,51.3271345 206.513672,54.1201172 C205.97656,58.3095913 208.876921,61.8902846 215.214844,64.8623047 C221.552766,67.8343248 226.100247,71.182273 228.857422,74.90625 C231.936864,79.0241091 233.243817,84.0370798 232.77832,89.9453125 C232.241208,96.7487319 229.555688,102.182434 224.72168,106.246582 C219.887671,110.31073 213.854203,112.27116 206.621094,112.12793 C199.352177,111.9847 193.605164,109.514021 189.379883,104.71582 C185.154601,99.9176192 183.221027,93.7767301 183.579102,86.2929688 L199.047852,86.3466797 C198.761392,90.9658434 199.361158,94.269033 200.847168,96.2563477 C202.333178,98.2436623 204.66958,99.2373047 207.856445,99.2373047 C210.649428,99.2014972 212.851554,98.3331791 214.462891,96.6323242 C216.074227,94.9314694 217.076821,92.7382947 217.470703,90.0527344 L217.470703,90.0527344 Z M241.425781,103.587891 C241.425781,101.081368 242.249341,98.9956138 243.896484,97.3305664 C245.543628,95.665519 247.602527,94.8330078 250.073242,94.8330078 C252.543958,94.8330078 254.584953,95.6118086 256.196289,97.1694336 C257.807625,98.7270586 258.613281,100.651681 258.613281,102.943359 C258.613281,105.521497 257.753915,107.616203 256.035156,109.227539 C254.316398,110.838875 252.275402,111.644531 249.912109,111.644531 C247.405586,111.644531 245.382495,110.874682 243.842773,109.334961 C242.303052,107.79524 241.497396,105.879569 241.425781,103.587891 L241.425781,103.587891 Z M95.6005859,177.162109 L71.7529297,177.162109 L68.1542969,197.894531 L96.40625,197.894531 L94.0966797,211 L50.4833984,211 L64.0185547,132.796875 L107.578125,132.796875 L105.268555,145.956055 L77.1777344,145.956055 L73.9550781,164.432617 L97.8564453,164.432617 L95.6005859,177.162109 Z M136.796875,132.796875 L141.362305,189.032227 L165.371094,132.796875 L185.673828,132.796875 L172.084961,211 L156.616211,211 L160.375977,189.354492 L167.143555,158.470703 L143.188477,211 L132.714844,211 L126.806641,156.698242 L122.348633,190.375 L118.803711,211 L103.388672,211 L116.923828,132.796875 L136.796875,132.796875 Z M205.009766,183.5 L200.229492,211 L184.814453,211 L198.349609,132.796875 L223.432617,132.850586 C230.271844,133.065431 235.633932,135.509254 239.519043,140.182129 C243.404154,144.855004 245.042321,150.87952 244.433594,158.255859 C243.717444,165.918658 240.817083,172.050595 235.732422,176.651855 C230.647761,181.253115 224.166706,183.553711 216.289062,183.553711 L205.009766,183.5 Z M207.265625,170.34082 L217.202148,170.448242 C221.033548,170.376627 224.005523,168.899591 226.118164,166.01709 C228.230805,163.134588 229.233399,159.258488 229.125977,154.388672 C229.054362,151.917956 228.463547,149.948575 227.353516,148.480469 C226.243484,147.012362 224.703786,146.206706 222.734375,146.063477 L211.508789,145.956055 L207.265625,170.34082 Z M273.061523,212.074219 C266.186489,211.930989 260.734883,209.675152 256.706543,205.306641 C252.678203,200.938129 250.485028,194.868854 250.126953,187.098633 C249.983723,184.413073 250.091144,181.691746 250.449219,178.93457 L252.436523,165.936523 C253.47494,158.989874 255.498032,152.831082 258.505859,147.459961 C261.513687,142.08884 265.255511,138.096367 269.731445,135.482422 C274.207379,132.868477 279.256157,131.615234 284.87793,131.722656 C291.824579,131.865886 297.276185,134.238095 301.23291,138.839355 C305.189636,143.440615 307.311196,149.733684 307.597656,157.71875 C307.669271,160.726578 307.50814,163.573229 307.114258,166.258789 L305.341797,178.236328 C303.730461,188.978569 300.105009,197.34844 294.465332,203.346191 C288.825655,209.343943 281.691124,212.253256 273.061523,212.074219 L273.061523,212.074219 Z M291.699219,165.72168 C292.128908,162.03351 292.34375,159.186859 292.34375,157.181641 C292.164713,149.196575 289.282254,145.096681 283.696289,144.881836 C279.399393,144.702799 275.935072,146.323062 273.303223,149.742676 C270.671374,153.162289 268.836268,158.524378 267.797852,165.829102 L265.917969,178.988281 C265.488279,182.533221 265.327148,185.308258 265.43457,187.313477 C265.613608,194.833045 268.56768,198.718098 274.296875,198.96875 C278.378927,199.11198 281.726875,197.608089 284.34082,194.457031 C286.954766,191.305974 288.780919,186.149775 289.819336,178.988281 L291.699219,165.72168 Z M365.283203,181.727539 L380.107422,132.796875 L395.576172,132.796875 L369.902344,211 L354.433594,211 L352.822266,165.130859 L336.923828,211 L321.401367,211 L320.058594,132.796875 L335.205078,132.796875 L334.614258,181.566406 L351.103516,132.796875 L364.101562,132.796875 L365.283203,181.727539 Z M436.557617,177.162109 L412.709961,177.162109 L409.111328,197.894531 L437.363281,197.894531 L435.053711,211 L391.44043,211 L404.975586,132.796875 L448.535156,132.796875 L446.225586,145.956055 L418.134766,145.956055 L414.912109,164.432617 L438.813477,164.432617 L436.557617,177.162109 Z M472.597656,182.425781 L464.755859,182.425781 L459.814453,211 L444.399414,211 L457.93457,132.796875 L481.567383,132.850586 C488.54984,133.065431 493.902976,135.213847 497.626953,139.295898 C501.35093,143.37795 502.926435,148.945928 502.353516,156 C501.458329,166.706434 496.588586,174.154276 487.744141,178.34375 L495.585938,210.140625 L495.585938,211 L479.042969,211 L472.597656,182.425781 Z M467.011719,169.266602 L475.12207,169.374023 C478.846047,169.302408 481.782216,167.825372 483.930664,164.942871 C486.079112,162.06037 487.135417,158.23798 487.099609,153.475586 C486.956379,148.784807 484.897481,146.296225 480.922852,146.009766 L471.09375,145.956055 L467.011719,169.266602 Z M505.039062,230.711914 L497.197266,226.415039 L500.527344,221.097656 C503.212904,216.693337 504.860023,212.736671 505.46875,209.227539 L507.456055,197.787109 L520.34668,197.787109 L518.62793,208.099609 C517.088208,217.230514 512.558631,224.767874 505.039062,230.711914 L505.039062,230.711914 Z M110.961914,245.956055 L92.2167969,245.956055 L80.9375,311 L65.46875,311 L76.7480469,245.956055 L58.2714844,245.956055 L60.5810547,232.796875 L113.271484,232.796875 L110.961914,245.956055 Z M137.226562,282.425781 L129.384766,282.425781 L124.443359,311 L109.02832,311 L122.563477,232.796875 L146.196289,232.850586 C153.178746,233.065431 158.531882,235.213847 162.255859,239.295898 C165.979836,243.37795 167.555341,248.945928 166.982422,256 C166.087235,266.706434 161.217492,274.154276 152.373047,278.34375 L160.214844,310.140625 L160.214844,311 L143.671875,311 L137.226562,282.425781 Z M131.640625,269.266602 L139.750977,269.374023 C143.474954,269.302408 146.411122,267.825372 148.55957,264.942871 C150.708019,262.06037 151.764323,258.23798 151.728516,253.475586 C151.585286,248.784807 149.526387,246.296225 145.551758,246.009766 L135.722656,245.956055 L131.640625,269.266602 Z M207.749023,294.994141 L186.962891,294.994141 L180.141602,311 L163.383789,311 L200.65918,232.796875 L214.785156,232.796875 L225.043945,311 L209.091797,311 L207.749023,294.994141 Z M192.602539,281.834961 L206.674805,281.834961 L204.472656,254.120117 L192.602539,281.834961 Z M285.952148,311 L270.913086,311 L257.270508,259.168945 L248.24707,311 L232.832031,311 L246.367188,232.796875 L261.459961,232.796875 L275.15625,284.681641 L284.179688,232.796875 L299.541016,232.796875 L285.952148,311 Z M334.72168,290.052734 C335.079754,287.402982 334.69483,285.191903 333.566895,283.419434 C332.438959,281.646964 330.093605,279.910328 326.530762,278.209473 C322.967918,276.508618 319.986991,274.745126 317.587891,272.918945 C311.035123,267.941707 308.027341,261.65759 308.564453,254.066406 C308.88672,249.697895 310.256336,245.803891 312.67334,242.384277 C315.090344,238.964664 318.32192,236.305999 322.368164,234.408203 C326.414408,232.510407 330.747047,231.615234 335.366211,231.722656 C342.062208,231.865886 347.298972,234.184385 351.07666,238.678223 C354.854348,243.17206 356.599936,248.928025 356.313477,255.946289 L340.952148,255.892578 C341.346031,248.552047 339.000676,244.828126 333.916016,244.720703 C331.30207,244.649088 329.055185,245.499503 327.175293,247.271973 C325.295401,249.044442 324.158531,251.327134 323.764648,254.120117 C323.227536,258.309591 326.127898,261.890285 332.46582,264.862305 C338.803743,267.834325 343.351223,271.182273 346.108398,274.90625 C349.187841,279.024109 350.494794,284.03708 350.029297,289.945312 C349.492185,296.748732 346.806665,302.182434 341.972656,306.246582 C337.138648,310.31073 331.105179,312.27116 323.87207,312.12793 C316.603154,311.9847 310.856141,309.514021 306.630859,304.71582 C302.405578,299.917619 300.472003,293.77673 300.830078,286.292969 L316.298828,286.34668 C316.012368,290.965843 316.612134,294.269033 318.098145,296.256348 C319.584155,298.243662 321.920557,299.237305 325.107422,299.237305 C327.900405,299.201497 330.102531,298.333179 331.713867,296.632324 C333.325203,294.931469 334.327798,292.738295 334.72168,290.052734 L334.72168,290.052734 Z M401.591797,279.095703 L377.797852,279.095703 L372.265625,311 L356.850586,311 L370.385742,232.796875 L412.495117,232.796875 L410.185547,245.956055 L383.544922,245.956055 L380.053711,265.990234 L403.901367,265.990234 L401.591797,279.095703 Z M435.161133,312.074219 C428.286098,311.930989 422.834493,309.675152 418.806152,305.306641 C414.777812,300.938129 412.584637,294.868854 412.226563,287.098633 C412.083333,284.413073 412.190753,281.691746 412.548828,278.93457 L414.536133,265.936523 C415.574549,258.989874 417.597641,252.831082 420.605469,247.459961 C423.613296,242.08884 427.355121,238.096367 431.831055,235.482422 C436.306989,232.868477 441.355766,231.615234 446.977539,231.722656 C453.924188,231.865886 459.375794,234.238095 463.33252,238.839355 C467.289245,243.440615 469.410806,249.733684 469.697266,257.71875 C469.768881,260.726578 469.607749,263.573229 469.213867,266.258789 L467.441406,278.236328 C465.83007,288.978569 462.204618,297.34844 456.564941,303.346191 C450.925265,309.343943 443.790733,312.253256 435.161133,312.074219 L435.161133,312.074219 Z M453.798828,265.72168 C454.228518,262.03351 454.443359,259.186859 454.443359,257.181641 C454.264322,249.196575 451.381864,245.096681 445.795898,244.881836 C441.499002,244.702799 438.034681,246.323062 435.402832,249.742676 C432.770983,253.162289 430.935878,258.524378 429.897461,265.829102 L428.017578,278.988281 C427.587888,282.533221 427.426757,285.308258 427.53418,287.313477 C427.713217,294.833045 430.667289,298.718098 436.396484,298.96875 C440.478536,299.11198 443.826484,297.608089 446.44043,294.457031 C449.054375,291.305974 450.880529,286.149775 451.918945,278.988281 L453.798828,265.72168 Z M501.333008,282.425781 L493.491211,282.425781 L488.549805,311 L473.134766,311 L486.669922,232.796875 L510.302734,232.850586 C517.285191,233.065431 522.638328,235.213847 526.362305,239.295898 C530.086282,243.37795 531.661787,248.945928 531.088867,256 C530.19368,266.706434 525.323937,274.154276 516.479492,278.34375 L524.321289,310.140625 L524.321289,311 L507.77832,311 L501.333008,282.425781 Z M495.74707,269.266602 L503.857422,269.374023 C507.581399,269.302408 510.517567,267.825372 512.666016,264.942871 C514.814464,262.06037 515.870768,258.23798 515.834961,253.475586 C515.691731,248.784807 513.632832,246.296225 509.658203,246.009766 L499.829102,245.956055 L495.74707,269.266602 Z M566.108398,232.796875 L570.673828,289.032227 L594.682617,232.796875 L614.985352,232.796875 L601.396484,311 L585.927734,311 L589.6875,289.354492 L596.455078,258.470703 L572.5,311 L562.026367,311 L556.118164,256.698242 L551.660156,290.375 L548.115234,311 L532.700195,311 L546.235352,232.796875 L566.108398,232.796875 Z M89.6386719,394.994141 L68.8525391,394.994141 L62.03125,411 L45.2734375,411 L82.5488281,332.796875 L96.6748047,332.796875 L106.933594,411 L90.9814453,411 L89.6386719,394.994141 Z M74.4921875,381.834961 L88.5644531,381.834961 L86.3623047,354.120117 L74.4921875,381.834961 Z M167.841797,411 L152.802734,411 L139.160156,359.168945 L130.136719,411 L114.72168,411 L128.256836,332.796875 L143.349609,332.796875 L157.045898,384.681641 L166.069336,332.796875 L181.430664,332.796875 L167.841797,411 Z M180.571289,411 L194.106445,332.796875 L213.388672,332.850586 C219.08206,332.993816 223.889141,334.479804 227.810059,337.308594 C231.730977,340.137384 234.541821,344.058243 236.242676,349.071289 C237.943531,354.084335 238.400069,359.68812 237.612305,365.882812 L235.893555,377.323242 C234.318026,387.850639 230.513539,396.086233 224.47998,402.030273 C218.446422,407.974314 210.864303,410.964193 201.733398,411 L180.571289,411 Z M207.265625,345.956055 L198.242188,397.894531 L202.055664,398.001953 C207.390977,398.001953 211.526678,396.453303 214.462891,393.355957 C217.399103,390.258611 219.368485,385.272495 220.371094,378.397461 L222.197266,365.72168 C222.69857,361.603821 222.895508,358.596038 222.788086,356.698242 C222.609049,353.117495 221.695972,350.467782 220.048828,348.749023 C218.401684,347.030265 215.966813,346.117188 212.744141,346.009766 L207.265625,345.956055 Z M320.273438,402.137695 C317.373032,405.360368 313.595401,407.839998 308.94043,409.57666 C304.285458,411.313322 299.290391,412.145834 293.955078,412.074219 C289.264299,412.038411 285.200213,411.008962 281.762695,408.98584 C278.325178,406.962718 275.666513,404.026549 273.786621,400.177246 C271.906729,396.327943 270.895183,391.896835 270.751953,386.883789 C270.644531,384.162421 270.769855,381.387384 271.12793,378.558594 L273.061523,365.614258 C274.708667,354.728787 278.253554,346.314157 283.696289,340.370117 C289.139025,334.426077 296.228797,331.543619 304.96582,331.722656 C312.413774,331.865886 318.026511,334.112771 321.804199,338.463379 C325.581887,342.813987 327.50651,349.250283 327.578125,357.772461 L312.592773,357.71875 L312.431641,353.421875 C311.966144,347.83591 309.226913,344.953451 304.213867,344.774414 C296.801721,344.487954 291.931978,349.375601 289.604492,359.4375 L288.798828,363.46582 L286.650391,378.558594 C286.184894,381.996111 286.005859,384.932279 286.113281,387.367188 C286.292319,391.377624 287.196444,394.286938 288.825684,396.095215 C290.454924,397.903492 292.755519,398.843424 295.727539,398.915039 C298.520522,398.986654 301.635725,398.073577 305.073242,396.175781 L307.8125,381.78125 L297.016602,381.78125 L299.111328,369.857422 L325.214844,369.857422 L320.273438,402.137695 Z M357.709961,382.425781 L349.868164,382.425781 L344.926758,411 L329.511719,411 L343.046875,332.796875 L366.679688,332.850586 C373.662144,333.065431 379.015281,335.213847 382.739258,339.295898 C386.463235,343.37795 388.03874,348.945928 387.46582,356 C386.570634,366.706434 381.700891,374.154276 372.856445,378.34375 L380.698242,410.140625 L380.698242,411 L364.155273,411 L357.709961,382.425781 Z M352.124023,369.266602 L360.234375,369.374023 C363.958352,369.302408 366.894521,367.825372 369.042969,364.942871 C371.191417,362.06037 372.247722,358.23798 372.211914,353.475586 C372.068684,348.784807 370.009785,346.296225 366.035156,346.009766 L356.206055,345.956055 L352.124023,369.266602 Z M416.09375,412.074219 C409.218716,411.930989 403.76711,409.675152 399.73877,405.306641 C395.710429,400.938129 393.517254,394.868854 393.15918,387.098633 C393.01595,384.413073 393.123371,381.691746 393.481445,378.93457 L395.46875,365.936523 C396.507167,358.989874 398.530258,352.831082 401.538086,347.459961 C404.545913,342.08884 408.287738,338.096367 412.763672,335.482422 C417.239606,332.868477 422.288383,331.615234 427.910156,331.722656 C434.856806,331.865886 440.308411,334.238095 444.265137,338.839355 C448.221862,343.440615 450.343423,349.733684 450.629883,357.71875 C450.701498,360.726578 450.540367,363.573229 450.146484,366.258789 L448.374023,378.236328 C446.762687,388.978569 443.137235,397.34844 437.497559,403.346191 C431.857882,409.343943 424.72335,412.253256 416.09375,412.074219 L416.09375,412.074219 Z M434.731445,365.72168 C435.161135,362.03351 435.375977,359.186859 435.375977,357.181641 C435.196939,349.196575 432.314481,345.096681 426.728516,344.881836 C422.431619,344.702799 418.967298,346.323062 416.335449,349.742676 C413.7036,353.162289 411.868495,358.524378 410.830078,365.829102 L408.950195,378.988281 C408.520506,382.533221 408.359374,385.308258 408.466797,387.313477 C408.645834,394.833045 411.599906,398.718098 417.329102,398.96875 C421.411153,399.11198 424.759102,397.608089 427.373047,394.457031 C429.986992,391.305974 431.813146,386.149775 432.851562,378.988281 L434.731445,365.72168 Z M508.31543,381.727539 L523.139648,332.796875 L538.608398,332.796875 L512.93457,411 L497.46582,411 L495.854492,365.130859 L479.956055,411 L464.433594,411 L463.09082,332.796875 L478.237305,332.796875 L477.646484,381.566406 L494.135742,332.796875 L507.133789,332.796875 L508.31543,381.727539 Z M536.298828,403.587891 C536.298828,401.081368 537.122388,398.995614 538.769531,397.330566 C540.416675,395.665519 542.475574,394.833008 544.946289,394.833008 C547.417005,394.833008 549.458,395.611809 551.069336,397.169434 C552.680672,398.727059 553.486328,400.651681 553.486328,402.943359 C553.486328,405.521497 552.626962,407.616203 550.908203,409.227539 C549.189445,410.838875 547.148449,411.644531 544.785156,411.644531 C542.278633,411.644531 540.255542,410.874682 538.71582,409.334961 C537.176099,407.79524 536.370443,405.879569 536.298828,403.587891 L536.298828,403.587891 Z" id="HOS.-EMPOWER,-TRANSF" fill="#02C0C0"></path>
            </g>
        </g>
    </g>
</svg>