<?xml version="1.0" encoding="UTF-8" standalone="no"?>
<svg width="45px" height="85px" viewBox="0 0 45 85" version="1.1" xmlns="http://www.w3.org/2000/svg" xmlns:xlink="http://www.w3.org/1999/xlink">
    <!-- Generator: Sketch 40 (33762) - http://www.bohemiancoding.com/sketch -->
    <title> copy 2</title>
    <desc>Created with Sketch.</desc>
    <defs></defs>
    <g id="HP-temp" stroke="none" stroke-width="1" fill="none" fill-rule="evenodd">
        <g id="Desktop-HD-Copy-2" transform="translate(-846.000000, -7671.000000)" fill="#FFFFFF">
            <path d="M890.164062,7672.45982 L890.164062,7685.71875 L882.279018,7685.71875 C879.399539,7685.71875 877.457594,7686.32142 876.453125,7687.52679 C875.448656,7688.73215 874.946429,7690.54017 874.946429,7692.95089 L874.946429,7702.44308 L889.66183,7702.44308 L887.703125,7717.30915 L874.946429,7717.30915 L874.946429,7755.42857 L859.578125,7755.42857 L859.578125,7717.30915 L846.771205,7717.30915 L846.771205,7702.44308 L859.578125,7702.44308 L859.578125,7691.49442 C859.578125,7685.26671 861.319179,7680.43696 864.801339,7677.00502 C868.2835,7673.57309 872.92073,7671.85714 878.71317,7671.85714 C883.635069,7671.85714 887.451995,7672.05803 890.164062,7672.45982 L890.164062,7672.45982 Z" id="-copy-2"></path>
        </g>
    </g>
</svg>