<?xml version="1.0" encoding="UTF-8" standalone="no"?>
<svg width="28px" height="27px" viewBox="0 0 28 27" version="1.1" xmlns="http://www.w3.org/2000/svg" xmlns:xlink="http://www.w3.org/1999/xlink">
    <!-- Generator: Sketch 40 (33762) - http://www.bohemiancoding.com/sketch -->
    <title> copy</title>
    <desc>Created with Sketch.</desc>
    <defs></defs>
    <g id="HP-temp" stroke="none" stroke-width="1" fill="none" fill-rule="evenodd">
        <g id="Desktop-HD-Copy-2" transform="translate(-1250.000000, -12155.000000)" fill="#9B9B9B">
            <path d="M1264.19643,12155.4286 C1265.69197,12155.4174 1267.03403,12155.7997 1268.22266,12156.5753 C1269.41128,12157.351 1270.32366,12158.4252 1270.95982,12159.798 C1271.26116,12160.4453 1271.41183,12161.4442 1271.41183,12162.7946 C1271.41183,12163.3192 1271.36161,12164.385 1271.26116,12165.9922 C1271.41741,12166.0703 1271.57366,12166.1094 1271.72991,12166.1094 C1271.9308,12166.1094 1272.2154,12166.034 1272.58371,12165.8834 C1272.95201,12165.7327 1273.23661,12165.6574 1273.4375,12165.6574 C1273.76116,12165.6574 1274.07366,12165.7578 1274.375,12165.9587 C1274.67634,12166.1596 1274.82701,12166.4163 1274.82701,12166.7288 C1274.82701,12167.0859 1274.65123,12167.3873 1274.29967,12167.6328 C1273.9481,12167.8783 1273.56306,12168.0541 1273.14453,12168.1602 C1272.726,12168.2662 1272.34096,12168.428 1271.9894,12168.6456 C1271.63783,12168.8633 1271.46205,12169.1283 1271.46205,12169.4408 C1271.46205,12169.6083 1271.52902,12169.8482 1271.66295,12170.1607 C1272.07589,12171.0759 1272.64788,12171.9129 1273.37891,12172.6719 C1274.10994,12173.4308 1274.91629,12173.9944 1275.79799,12174.3627 C1276.11049,12174.4967 1276.55692,12174.625 1277.13728,12174.7478 C1277.44978,12174.8147 1277.60603,12175.01 1277.60603,12175.3337 C1277.60603,12176.115 1276.38394,12176.6897 1273.93973,12177.058 C1273.86161,12177.1808 1273.80022,12177.3984 1273.75558,12177.7109 C1273.71094,12178.0234 1273.63281,12178.2829 1273.52121,12178.4894 C1273.4096,12178.6959 1273.22545,12178.7991 1272.96875,12178.7991 C1272.74553,12178.7991 1272.39956,12178.7628 1271.9308,12178.6903 C1271.46205,12178.6177 1271.10491,12178.5815 1270.85938,12178.5815 C1270.44643,12178.5815 1270.10045,12178.6094 1269.82143,12178.6652 C1269.46428,12178.721 1269.11272,12178.8465 1268.76674,12179.0419 C1268.42076,12179.2372 1268.0971,12179.4492 1267.79576,12179.678 C1267.49442,12179.9068 1267.17076,12180.1328 1266.82478,12180.356 C1266.47879,12180.5792 1266.05469,12180.7662 1265.55246,12180.9169 C1265.05022,12181.0675 1264.49777,12181.1429 1263.89509,12181.1429 C1263.31473,12181.1429 1262.77623,12181.0675 1262.27958,12180.9169 C1261.78292,12180.7662 1261.3644,12180.5792 1261.024,12180.356 C1260.68359,12180.1328 1260.36272,12179.9068 1260.06138,12179.678 C1259.76004,12179.4492 1259.43639,12179.2372 1259.0904,12179.0419 C1258.74442,12178.8465 1258.39844,12178.721 1258.05246,12178.6652 C1257.76228,12178.6094 1257.41072,12178.5815 1256.99777,12178.5815 C1256.72991,12178.5815 1256.3644,12178.6233 1255.90123,12178.707 C1255.43806,12178.7907 1255.11161,12178.8326 1254.92188,12178.8326 C1254.64286,12178.8326 1254.44755,12178.7294 1254.33594,12178.5229 C1254.22433,12178.3164 1254.14621,12178.0513 1254.10156,12177.7277 C1254.05692,12177.404 1253.99554,12177.1808 1253.91741,12177.058 C1251.4732,12176.6897 1250.25112,12176.115 1250.25112,12175.3337 C1250.25112,12175.01 1250.40736,12174.8147 1250.71987,12174.7478 C1251.30023,12174.625 1251.74665,12174.4967 1252.05915,12174.3627 C1252.92969,12174.0056 1253.73605,12173.442 1254.47824,12172.6719 C1255.22043,12171.9018 1255.79241,12171.0647 1256.1942,12170.1607 C1256.32813,12169.8482 1256.39509,12169.6083 1256.39509,12169.4408 C1256.39509,12169.1283 1256.21931,12168.8633 1255.86775,12168.6456 C1255.51618,12168.428 1255.12835,12168.2634 1254.70424,12168.1518 C1254.28013,12168.0402 1253.8923,12167.8644 1253.54074,12167.6244 C1253.18917,12167.3845 1253.01339,12167.0915 1253.01339,12166.7455 C1253.01339,12166.4442 1253.15848,12166.1903 1253.44866,12165.9838 C1253.73884,12165.7773 1254.04576,12165.6741 1254.36942,12165.6741 C1254.53683,12165.6741 1254.80469,12165.7467 1255.17299,12165.8917 C1255.5413,12166.0368 1255.83705,12166.1094 1256.06027,12166.1094 C1256.26116,12166.1094 1256.43973,12166.0703 1256.59598,12165.9922 C1256.49554,12164.4074 1256.44531,12163.3471 1256.44531,12162.8114 C1256.44531,12161.4498 1256.59598,12160.4453 1256.89732,12159.798 C1257.61161,12158.269 1258.57142,12157.1641 1259.77679,12156.4833 C1260.98215,12155.8025 1262.45535,12155.4509 1264.19643,12155.4286 L1264.19643,12155.4286 Z" id="-copy"></path>
        </g>
    </g>
</svg>