<?xml version="1.0" encoding="UTF-8" standalone="no"?>
<svg width="16px" height="29px" viewBox="0 0 16 29" version="1.1" xmlns="http://www.w3.org/2000/svg" xmlns:xlink="http://www.w3.org/1999/xlink">
    <!-- Generator: Sketch 40 (33762) - http://www.bohemiancoding.com/sketch -->
    <title> copy</title>
    <desc>Created with Sketch.</desc>
    <defs></defs>
    <g id="HP-temp" stroke="none" stroke-width="1" fill="none" fill-rule="evenodd">
        <g id="Desktop-HD-Copy-2" transform="translate(-1304.000000, -12152.000000)" fill="#9B9B9B">
            <path d="M1319.05469,12152.4866 L1319.05469,12156.9062 L1316.42634,12156.9062 C1315.46651,12156.9062 1314.8192,12157.1071 1314.48438,12157.5089 C1314.14955,12157.9107 1313.98214,12158.5134 1313.98214,12159.317 L1313.98214,12162.481 L1318.88728,12162.481 L1318.23438,12167.4364 L1313.98214,12167.4364 L1313.98214,12180.1429 L1308.85938,12180.1429 L1308.85938,12167.4364 L1304.5904,12167.4364 L1304.5904,12162.481 L1308.85938,12162.481 L1308.85938,12158.8315 C1308.85938,12156.7556 1309.43973,12155.1457 1310.60045,12154.0017 C1311.76117,12152.8577 1313.30691,12152.2857 1315.23772,12152.2857 C1316.87836,12152.2857 1318.15067,12152.3527 1319.05469,12152.4866 L1319.05469,12152.4866 Z" id="-copy"></path>
        </g>
    </g>
</svg>