<?xml version="1.0" encoding="UTF-8" standalone="no"?>
<svg width="26px" height="27px" viewBox="0 0 26 27" version="1.1" xmlns="http://www.w3.org/2000/svg" xmlns:xlink="http://www.w3.org/1999/xlink">
    <!-- Generator: Sketch 40 (33762) - http://www.bohemiancoding.com/sketch -->
    <title> copy</title>
    <desc>Created with Sketch.</desc>
    <defs></defs>
    <g id="HP-temp" stroke="none" stroke-width="1" fill="none" fill-rule="evenodd">
        <g id="Desktop-HD-Copy-2" transform="translate(-1195.000000, -12153.000000)" fill="#9B9B9B">
            <path d="M1217.80134,12175.1585 L1217.80134,12164.3103 L1215.54129,12164.3103 C1215.76451,12165.0134 1215.87612,12165.7444 1215.87612,12166.5033 C1215.87612,12167.9096 1215.51898,12169.207 1214.80469,12170.3956 C1214.0904,12171.5843 1213.11943,12172.5246 1211.89174,12173.2165 C1210.66406,12173.9085 1209.32478,12174.2545 1207.87388,12174.2545 C1205.67521,12174.2545 1203.79465,12173.4983 1202.23214,12171.986 C1200.66964,12170.4738 1199.88839,12168.6462 1199.88839,12166.5033 C1199.88839,12165.7444 1200,12165.0134 1200.22321,12164.3103 L1197.86272,12164.3103 L1197.86272,12175.1585 C1197.86272,12175.4487 1197.96038,12175.6914 1198.15569,12175.8867 C1198.35101,12176.082 1198.59375,12176.1797 1198.88393,12176.1797 L1216.78013,12176.1797 C1217.05915,12176.1797 1217.29911,12176.082 1217.5,12175.8867 C1217.70089,12175.6914 1217.80134,12175.4487 1217.80134,12175.1585 L1217.80134,12175.1585 Z M1213.04688,12166.2355 C1213.04688,12164.8516 1212.54186,12163.6713 1211.53181,12162.6948 C1210.52176,12161.7182 1209.30246,12161.2299 1207.87388,12161.2299 C1206.45647,12161.2299 1205.24275,12161.7182 1204.2327,12162.6948 C1203.22265,12163.6713 1202.71763,12164.8516 1202.71763,12166.2355 C1202.71763,12167.6194 1203.22265,12168.7997 1204.2327,12169.7762 C1205.24275,12170.7528 1206.45647,12171.2411 1207.87388,12171.2411 C1209.30246,12171.2411 1210.52176,12170.7528 1211.53181,12169.7762 C1212.54186,12168.7997 1213.04688,12167.6194 1213.04688,12166.2355 L1213.04688,12166.2355 Z M1217.80134,12160.2087 L1217.80134,12157.4464 C1217.80134,12157.1339 1217.68973,12156.8633 1217.46652,12156.6345 C1217.2433,12156.4057 1216.96987,12156.2913 1216.64621,12156.2913 L1213.73326,12156.2913 C1213.4096,12156.2913 1213.13616,12156.4057 1212.91295,12156.6345 C1212.68973,12156.8633 1212.57812,12157.1339 1212.57812,12157.4464 L1212.57812,12160.2087 C1212.57812,12160.5324 1212.68973,12160.8058 1212.91295,12161.029 C1213.13616,12161.2522 1213.4096,12161.3638 1213.73326,12161.3638 L1216.64621,12161.3638 C1216.96987,12161.3638 1217.2433,12161.2522 1217.46652,12161.029 C1217.68973,12160.8058 1217.80134,12160.5324 1217.80134,12160.2087 L1217.80134,12160.2087 Z M1220.71429,12156.7266 L1220.71429,12175.8449 C1220.71429,12176.7489 1220.39063,12177.5246 1219.7433,12178.1719 C1219.09598,12178.8192 1218.32032,12179.1429 1217.41629,12179.1429 L1198.29799,12179.1429 C1197.39397,12179.1429 1196.61831,12178.8192 1195.97098,12178.1719 C1195.32366,12177.5246 1195,12176.7489 1195,12175.8449 L1195,12156.7266 C1195,12155.8225 1195.32366,12155.0469 1195.97098,12154.3996 C1196.61831,12153.7522 1197.39397,12153.4286 1198.29799,12153.4286 L1217.41629,12153.4286 C1218.32032,12153.4286 1219.09598,12153.7522 1219.7433,12154.3996 C1220.39063,12155.0469 1220.71429,12155.8225 1220.71429,12156.7266 L1220.71429,12156.7266 Z" id="-copy"></path>
        </g>
    </g>
</svg>