<?xml version="1.0" encoding="UTF-8" standalone="no"?>
<svg width="28px" height="22px" viewBox="0 0 28 22" version="1.1" xmlns="http://www.w3.org/2000/svg" xmlns:xlink="http://www.w3.org/1999/xlink">
    <!-- Generator: Sketch 40 (33762) - http://www.bohemiancoding.com/sketch -->
    <title> copy</title>
    <desc>Created with Sketch.</desc>
    <defs></defs>
    <g id="HP-temp" stroke="none" stroke-width="1" fill="none" fill-rule="evenodd">
        <g id="Desktop-HD-Copy-2" transform="translate(-1342.000000, -12156.000000)" fill="#9B9B9B">
            <path d="M1369.12054,12159.1161 C1368.37276,12160.2098 1367.46876,12161.1417 1366.40848,12161.9118 C1366.41964,12162.0681 1366.42522,12162.3025 1366.42522,12162.615 C1366.42522,12164.0659 1366.21317,12165.5139 1365.78906,12166.9593 C1365.36495,12168.4046 1364.72043,12169.7913 1363.85547,12171.1194 C1362.99051,12172.4476 1361.96094,12173.6222 1360.76674,12174.6434 C1359.57254,12175.6646 1358.13282,12176.4793 1356.44754,12177.0876 C1354.76227,12177.6959 1352.95983,12178 1351.04018,12178 C1348.01561,12178 1345.24778,12177.1909 1342.73661,12175.5725 C1343.12723,12175.6172 1343.5625,12175.6395 1344.04241,12175.6395 C1346.55358,12175.6395 1348.79128,12174.8694 1350.75558,12173.3292 C1349.5837,12173.3069 1348.5346,12172.947 1347.60826,12172.2494 C1346.68192,12171.5519 1346.04576,12170.6618 1345.69978,12169.5792 C1346.06808,12169.635 1346.40848,12169.6629 1346.72098,12169.6629 C1347.2009,12169.6629 1347.67522,12169.6016 1348.14397,12169.4788 C1346.89397,12169.2221 1345.85882,12168.5999 1345.0385,12167.6122 C1344.21819,12166.6244 1343.80804,12165.4777 1343.80804,12164.1719 L1343.80804,12164.1049 C1344.56697,12164.529 1345.38169,12164.7578 1346.25223,12164.7913 C1345.51562,12164.3002 1344.92969,12163.6585 1344.49442,12162.8661 C1344.05915,12162.0737 1343.84152,12161.2143 1343.84152,12160.2879 C1343.84152,12159.3058 1344.08705,12158.3962 1344.57813,12157.5592 C1345.92858,12159.2221 1347.57198,12160.553 1349.50837,12161.5519 C1351.44476,12162.5508 1353.51785,12163.106 1355.72768,12163.2176 C1355.63839,12162.7935 1355.59375,12162.3806 1355.59375,12161.9788 C1355.59375,12160.4833 1356.12109,12159.2082 1357.17578,12158.1535 C1358.23047,12157.0988 1359.50557,12156.5714 1361.00112,12156.5714 C1362.56362,12156.5714 1363.88058,12157.1406 1364.95201,12158.279 C1366.16853,12158.0446 1367.31249,12157.6094 1368.38393,12156.9732 C1367.97098,12158.2567 1367.17858,12159.25 1366.0067,12159.9531 C1367.04465,12159.8415 1368.08258,12159.5625 1369.12054,12159.1161 L1369.12054,12159.1161 Z" id="-copy"></path>
        </g>
    </g>
</svg>