<?xml version="1.0" encoding="utf-8"?>
<!-- Generator: Adobe Illustrator 15.0.0, SVG Export Plug-In . SVG Version: 6.00 Build 0)  -->
<!DOCTYPE svg PUBLIC "-//W3C//DTD SVG 1.1//EN" "http://www.w3.org/Graphics/SVG/1.1/DTD/svg11.dtd">
<svg version="1.1" id="Layer_1" xmlns="http://www.w3.org/2000/svg" xmlns:xlink="http://www.w3.org/1999/xlink" x="0px" y="0px"
	 width="841.889px" height="395px" viewBox="0 0 841.889 395" enable-background="new 0 0 841.889 395" xml:space="preserve">
<g id="XMLID_1307_">
	<path id="XMLID_2692_" fill="#FFFFFF" d="M13.57,109.003v139.375h808.265V109.003H13.57z M809.77,236.313H25.633V121.066h784.138
		L809.77,236.313L809.77,236.313z"/>
	<g id="XMLID_1333_">
		<g id="XMLID_1366_">
			<path id="XMLID_1370_" fill="#FFFFFF" d="M433.743,17.37c-8.728,5.134-12.319,12.577-15.913,20.021
				c-10.011,21.816-15.914,45.175-21.562,68.274c-1.797,6.932-2.054,14.374-2.311,21.562c-0.256,7.957,5.134,13.091,13.86,12.577
				c10.011-0.515,20.276-2.311,30.287-3.08c13.604-1.283,26.438,0.771,38.501,8.214c14.373,8.982,21.817,22.074,23.613,38.501
				c2.312,20.791-3.08,40.555-10.01,60.062c-6.932,19.508-17.197,37.218-28.234,54.415c-14.117,21.816-29.518,42.606-49.538,59.805
				c-15.144,13.091-31.826,23.356-51.848,27.208c-21.561,3.85-41.066-0.514-57.495-14.888c-11.294-9.754-15.399-23.613-16.17-38.501
				c-0.771-17.453,3.593-33.882,11.293-49.281c10.78-21.047,25.925-39.016,44.918-53.389c2.567-1.797,5.903-2.822,8.729-4.106
				c0.513,0.514,1.025,0.771,1.282,1.284c-1.282,1.54-2.311,3.593-3.851,4.876c-6.93,7.188-14.373,13.859-21.047,21.305
				c-13.347,14.887-24.384,31.57-29.519,51.078c-4.362,16.17-6.417,32.854,0.771,49.281c4.107,9.497,10.781,16.427,19.508,20.79
				c19.507,9.754,39.271,7.442,58.521-1.283c23.101-10.523,40.298-27.979,55.954-47.229c16.428-20.276,31.058-41.838,41.581-65.709
				c5.903-13.859,11.036-27.978,14.888-42.606c3.337-13.091,4.619-26.694,1.025-40.042c-5.902-22.588-25.924-34.395-49.281-32.854
				c-10.779,0.771-21.561,2.053-32.341,3.08c-15.656,1.283-26.181-10.011-24.384-26.438c2.566-22.33,9.24-43.635,16.427-64.938
				c3.595-10.011,7.957-20.021,12.577-29.774c2.567-5.133,6.16-10.01,10.524-13.859c2.565-2.311,7.698-3.851,10.778-3.08
				c2.312,0.514,4.62,5.134,5.392,8.471c2.053,8.213,3.337,16.94,5.39,25.153c1.027,4.364,0.771,8.214-1.283,12.063
				c-0.513,1.026-1.797,1.796-2.822,2.823c-0.771-1.027-2.312-2.311-2.566-3.337c-0.514-3.851-0.514-7.7-1.283-11.294
				C437.337,34.567,435.54,26.61,433.743,17.37z"/>
			<path id="XMLID_1367_" fill="#FFFFFF" d="M363.929,386.468c-1.026,0.257-2.054,0.513-3.08,0.77
				c-22.844,4.107-42.863-1.025-59.549-15.399c-10.522-9.24-16.17-22.33-16.939-40.041c-0.771-16.685,3.08-33.624,11.551-50.564
				c10.78-21.048,26.181-39.271,45.688-54.158c2.055-1.54,4.363-2.311,6.417-3.337c1.026-0.257,1.797-0.77,2.823-1.025
				c0.771-0.515,1.797-0.258,2.567,0.257l1.282,1.283c1.026,0.77,1.026,2.31,0.258,3.337c-0.258,0.513-0.771,1.025-1.027,1.54
				c-0.77,1.282-1.797,2.565-2.823,3.593c-2.565,2.566-5.134,5.134-7.7,7.7c-4.619,4.362-9.239,8.982-13.347,13.604
				c-15.144,16.94-24.641,33.368-29.004,50.31c-3.851,14.373-6.674,31.313,0.513,47.74c3.852,8.983,10.012,15.4,18.48,19.765
				c17.197,8.471,35.678,8.214,56.469-1.283c24.127-11.037,41.324-29.774,55.185-46.715c18.993-23.357,32.084-44.147,41.324-65.195
				c6.16-14.116,11.037-28.233,14.887-42.094c3.852-14.117,4.107-27.208,1.027-39.016c-5.391-20.276-23.614-32.598-46.715-31.058
				c-5.903,0.514-12.063,1.025-17.967,1.54c-4.62,0.514-9.497,1.025-14.374,1.283c-8.214,0.771-15.4-1.798-20.277-6.931
				c-5.133-5.391-7.442-13.348-6.417-22.074c2.567-22.844,9.497-44.918,16.686-65.451c3.336-9.497,7.442-19.25,12.833-30.03
				c2.822-5.391,6.674-10.524,11.037-14.631c3.336-2.823,8.982-4.363,13.089-3.595c4.62,1.027,6.932,9.24,7.188,10.269
				c1.283,4.62,2.053,9.24,3.08,13.86c0.77,3.85,1.54,7.699,2.31,11.293c1.283,5.134,0.771,9.754-1.797,13.86
				c-0.513,1.026-1.54,1.796-2.31,2.566c-0.257,0.257-0.515,0.514-0.771,0.77c-0.513,0.515-1.282,0.771-1.796,0.771
				c-0.771,0-1.284-0.515-1.797-1.026c-0.257-0.257-0.514-0.514-0.771-0.771c-0.771-1.026-1.798-2.055-2.054-3.595
				c-0.257-2.053-0.514-3.85-0.514-5.646c-0.257-2.054-0.257-3.851-0.514-5.646c-1.026-5.646-2.311-11.294-3.338-17.453
				c-0.256-1.54-0.513-3.08-1.025-4.62c-6.16,4.62-9.24,11.037-12.062,17.196c-9.754,21.048-15.4,44.147-21.048,66.223l-0.514,1.54
				c-1.797,6.93-2.054,14.374-2.31,21.047c0,3.08,0.77,5.902,2.822,7.7c2.054,1.797,4.878,2.822,8.471,2.566
				c5.903-0.257,11.808-1.026,17.453-1.797c4.106-0.514,8.471-1.027,12.577-1.54c15.4-1.283,28.49,1.54,40.041,8.728
				c14.373,8.982,22.845,22.588,24.897,40.298c2.565,21.817-3.337,42.095-10.269,61.089c-7.699,21.562-19.25,40.812-28.489,54.928
				c-11.552,17.969-27.979,41.324-49.795,60.318C396.783,374.147,380.869,382.875,363.929,386.468z M348.015,228.87
				c-1.282,0.514-2.565,1.283-3.594,2.054c-18.993,14.374-33.881,32.085-44.404,52.36c-8.214,15.914-11.807,32.085-11.036,47.998
				c0.771,16.429,5.902,28.491,15.399,36.705c15.4,13.348,34.138,18.225,55.698,14.373c17.197-3.08,33.368-11.55,50.821-26.692
				c21.561-18.48,37.475-41.325,49.023-59.292c8.984-14.117,20.534-33.11,27.978-54.158c6.417-18.48,12.32-38.244,10.012-59.035
				c-1.797-16.428-9.24-28.49-22.588-36.704c-10.523-6.674-22.588-9.24-36.962-7.957c-4.105,0.257-8.47,0.771-12.575,1.283
				c-5.903,0.771-11.809,1.54-17.968,1.797c-4.876,0.257-9.24-1.026-12.063-3.851c-2.823-2.823-4.363-6.674-4.105-11.037
				c0.257-6.674,0.513-14.631,2.31-22.073l0.514-1.54c5.646-22.331,11.552-45.688,21.305-66.992
				c3.337-7.188,7.188-15.4,16.684-21.047c0.771-0.257,1.54-0.515,2.054,0c0.771,0.257,1.283,1.025,1.283,1.797
				c0.514,2.823,1.026,5.39,1.54,7.957c1.283,6.16,2.31,11.807,3.337,17.453c0.257,2.054,0.514,4.106,0.77,6.16
				c0.258,1.797,0.258,3.594,0.515,5.391c0,0,0.257,0.257,0.257,0.514c0.257-0.257,0.257-0.514,0.514-0.514
				c1.796-3.08,2.054-6.16,1.026-10.267c-1.026-3.852-1.797-7.7-2.312-11.552c-0.77-4.62-1.796-9.239-2.822-13.604
				c-1.026-3.594-2.823-6.417-3.593-6.674c-2.567-0.515-6.675,0.514-8.729,2.565c-3.85,3.595-7.442,8.214-9.753,13.091
				c-5.134,10.523-9.24,20.021-12.577,29.262c-6.931,20.021-13.859,41.838-16.427,64.425c-0.771,7.444,1.026,13.86,5.133,18.225
				c3.852,4.106,9.754,6.16,16.685,5.391c4.62-0.515,9.497-0.771,14.117-1.283c5.902-0.514,12.062-1.283,18.224-1.54
				c25.411-1.797,45.688,11.807,51.592,34.395c3.337,12.576,2.823,26.438-1.026,41.324c-3.594,14.117-8.728,28.491-15.145,42.864
				c-9.496,21.562-22.587,42.608-41.838,66.224c-14.116,17.452-31.827,36.703-56.725,47.996
				c-22.33,10.012-42.095,10.524-60.574,1.284c-9.24-4.62-16.429-12.063-20.791-22.073c-7.7-17.712-4.877-35.679-0.771-50.821
				c4.62-17.711,14.373-34.651,30.03-52.105c4.363-4.876,8.983-9.496,13.604-13.859c2.567-2.566,5.135-4.876,7.7-7.443
				C348.015,229.128,348.015,229.128,348.015,228.87z"/>
		</g>
		<g id="XMLID_1357_">
			<path id="XMLID_1363_" fill="#FFFFFF" d="M716.085,203.972c-2.567,1.283-4.877,2.565-7.188,3.85
				c-9.497,5.134-18.992,1.54-22.844-8.47c-2.566-6.417-4.105-13.091-2.823-20.277c0.257-1.027-0.257-2.311-0.257-4.106
				c-5.903,7.188-11.55,13.859-17.197,20.533c-2.822,3.595-6.159,6.418-11.294,4.107c-4.876-2.054-6.416-6.674-6.159-11.294
				c1.026-14.374,5.391-27.721,12.063-40.298c1.026-1.797,4.363-3.852,6.416-3.337c2.567,0.514,4.621,3.08,6.931,5.134
				c0.515,0.256,0.258,1.283,0.258,2.053c0,2.054,0,4.107-0.258,6.417c-2.054-0.77-4.105-1.54-6.674-2.565
				c-4.105,3.337-11.036,26.438-9.497,36.703c5.647-6.93,11.552-12.576,15.657-19.25c6.16-10.011,11.294-20.791,16.686-31.313
				c1.282-2.567,1.796-6.16,6.416-4.107c3.851,1.797,3.594,4.107,2.823,7.7c-3.08,12.834-5.646,25.925-8.214,39.015
				c-0.514,2.055,0,4.62,0.257,6.932c0.514,5.133,2.566,10.523,7.7,10.523c4.363,0,8.983-3.08,13.09-5.392
				c1.027-0.513,1.027-3.85,0.515-5.903c-3.595-14.63-3.337-29.518-0.515-44.403c3.337-17.968,8.983-35.164,18.737-50.564
				c8.471-13.091,15.914-26.951,25.411-39.271c7.187-9.754,15.657-19.25,27.978-23.357c12.063-4.105,23.102,3.594,22.073,16.428
				c-1.025,9.496-2.823,18.993-6.16,27.978c-14.63,42.095-1.025,8.214-15.656,37.475c-6.16,12.32-13.091,24.642-21.048,35.936
				c-9.497,13.604-20.533,25.924-31.313,38.758c-2.823,3.337-6.417,5.902-9.497,8.983c2.311,8.728,8.728,13.604,15.914,17.968
				c18.737,11.293,37.218,6.93,54.672-1.797c13.09-6.674,25.41-15.4,37.987-23.102c2.311-1.284,4.362-2.824,6.674-4.107
				c0.513,0.515,1.025,1.027,1.54,1.54c-2.054,2.823-3.852,6.16-6.417,8.472c-17.454,15.657-37.476,27.464-60.575,31.571
				c-21.817,3.85-39.784-4.107-53.388-21.817C717.625,206.282,717.111,205.512,716.085,203.972z M717.881,188.828
				c0.771,0,1.284,0,2.054,0c0.515-0.513,1.283-0.77,1.797-1.283c24.127-24.641,43.893-52.617,59.035-83.676
				c14.373-29.517,0,5.647,15.145-36.447c2.31-6.159,3.08-13.091,3.85-19.507c0.514-4.877-2.31-7.7-7.443-8.214
				c-7.699-1.025-13.604,2.823-17.71,7.7c-10.779,12.577-21.561,25.667-30.288,39.784c-7.957,13.091-13.09,27.978-19.25,41.838
				c-4.62,10.011-6.674,20.534-7.188,31.571C717.368,170.093,717.881,179.332,717.881,188.828z"/>
			<path id="XMLID_1358_" fill="#FFFFFF" d="M764.853,231.95c-18.994,1.026-35.678-6.931-48.255-23.356
				c-0.257-0.515-0.77-1.027-1.025-1.54l-0.771,0.257c-1.54,0.77-3.08,1.54-4.619,2.566c-5.391,2.822-10.523,3.337-15.4,1.54
				c-4.877-1.798-8.728-5.903-10.78-11.295c-2.823-6.93-3.851-12.834-3.336-18.479l-13.091,15.656
				c-2.055,2.312-6.675,7.958-13.86,4.878c-5.392-2.311-8.214-7.188-7.7-13.86c1.026-14.117,5.134-27.979,12.32-41.324
				c1.283-2.566,5.902-5.391,8.982-4.62c2.567,0.514,4.62,2.566,6.417,4.106c0.515,0.514,1.026,1.025,1.54,1.283
				c1.283,1.025,1.283,2.565,1.283,3.594c0,1.797,0,3.337,0,4.877v1.796c0,0.771-0.513,1.54-1.026,1.797
				c-0.514,0.514-1.54,0.514-2.054,0.257l-5.133-2.054c-2.824,4.107-7.188,17.711-7.957,27.465c0.513-0.514,1.026-1.026,1.54-1.54
				c3.85-4.106,7.443-8.214,10.01-12.577c4.62-7.188,8.472-15.144,12.32-22.588c1.54-2.822,2.823-5.646,4.363-8.47
				c0.257-0.514,0.514-0.771,0.514-1.283c0.771-1.54,1.54-3.594,3.594-4.364c1.54-0.513,3.08-0.256,5.134,0.515
				c5.903,2.823,4.619,7.442,4.106,10.522c-3.08,12.834-5.647,25.926-8.214,38.759v0.257c-0.257,1.282,0,2.822,0.257,4.62
				c0,0.514,0.257,1.025,0.257,1.54c0.514,3.851,1.54,8.471,5.391,8.471c3.079,0,6.674-2.054,10.268-4.107l1.283-0.77
				c0.257-0.771,0.257-2.312,0-3.337c-3.337-14.374-3.594-29.519-0.515-45.433c3.852-20.79,10.012-37.218,18.994-51.334
				c2.566-4.106,5.134-8.214,7.443-12.319c5.646-9.24,11.294-18.48,17.711-27.208c7.443-10.011,15.913-19.765,29.004-24.127
				c6.673-2.312,13.604-1.283,18.737,2.565c4.62,3.852,7.187,9.497,6.416,16.171c-1.026,9.753-3.08,19.507-6.16,28.49
				c-4.62,13.348-10.01,25.924-15.913,37.731c-7.443,14.63-14.117,26.181-21.304,36.189c-7.701,10.78-16.171,20.791-24.385,30.801
				c-2.311,2.824-4.62,5.392-6.931,8.215c-2.054,2.311-4.362,4.362-6.674,6.417c-0.771,0.514-1.283,1.025-2.054,1.797
				c2.054,6.674,7.443,11.037,14.374,15.144c15.144,9.24,31.313,8.472,52.36-1.797c8.983-4.362,17.711-10.267,26.182-15.657
				c3.851-2.565,7.7-4.877,11.551-7.442c1.54-1.026,3.08-1.798,4.62-2.823l2.053-1.283c1.027-0.514,2.054-0.514,2.824,0.257
				l1.54,1.54c1.025,0.771,1.025,2.311,0.257,3.08c-0.514,0.771-1.284,1.796-1.797,2.566c-1.283,2.054-2.824,4.362-4.877,6.16
				c-20.021,17.967-40.298,28.491-61.858,32.084C769.729,231.693,767.162,231.95,764.853,231.95z M716.085,201.662
				c0.77,0,1.54,0.258,2.053,1.027l0.771,1.283c0.513,0.77,0.77,1.283,1.282,1.797c13.348,17.453,30.544,24.384,51.078,20.79
				c20.79-3.593,40.298-13.86,59.548-31.059c0.771-0.77,1.54-1.797,2.312-2.822c-0.514,0.257-1.027,0.514-1.283,0.77
				c-3.851,2.312-7.7,4.877-11.551,7.188c-8.471,5.646-17.454,11.294-26.694,15.914c-14.117,6.93-35.164,14.63-56.98,1.797
				c-6.931-4.107-14.374-9.497-16.94-19.508c-0.257-0.771,0-1.798,0.771-2.312c1.025-1.026,2.053-1.796,3.079-2.823
				c2.311-2.053,4.363-3.85,6.16-5.902c2.311-2.823,4.62-5.391,6.931-8.215c8.214-9.753,16.684-19.764,24.128-30.286
				c6.93-10.012,13.604-21.305,20.79-35.679c14.631-29.004,1.025,5.134,15.656-37.218c3.08-8.727,5.135-17.967,5.903-27.207
				c0.514-4.877-1.283-9.24-4.62-12.062c-3.594-2.824-8.982-3.595-14.117-1.798c-11.807,4.106-19.764,13.091-26.692,22.587
				c-6.417,8.472-12.064,17.969-17.711,26.951c-2.566,4.106-5.135,8.213-7.7,12.32c-8.728,13.86-14.63,29.518-18.48,49.795
				c-2.822,15.145-2.565,29.773,0.515,43.377c0,0,1.54,6.674-1.798,8.472l-1.539,1.026c-3.852,2.311-8.215,4.876-12.834,4.62
				c-5.646-0.257-9.24-4.877-10.011-12.834c0-0.514,0-1.027-0.257-1.54c-0.257-1.797-0.514-4.107,0-6.16v-0.257
				c2.566-12.834,5.133-25.924,8.213-38.758c0.771-3.594,0.515-4.106-1.54-5.134c-1.025-0.514-1.54-0.514-1.54-0.514
				c-0.256,0.256-0.77,1.283-1.025,1.796c-0.257,0.515-0.515,1.027-0.771,1.54c-1.54,2.824-2.823,5.647-4.364,8.472
				c-3.85,7.699-7.955,15.656-12.575,23.101c-2.824,4.62-6.675,8.727-10.524,13.347c-1.797,2.055-3.593,4.107-5.39,6.16
				c-0.515,0.771-1.54,1.027-2.567,0.771c-1.025-0.257-1.539-1.027-1.796-2.055c-1.54-10.779,5.39-34.649,10.267-38.758
				c0.771-0.513,1.54-0.77,2.312-0.513l3.593,1.283c0-1.027,0-2.055,0-2.823c0-0.257,0-0.514,0-0.771
				c-0.514-0.258-0.77-0.771-1.283-1.026c-1.283-1.283-2.822-2.823-4.105-3.08c-0.771,0-3.08,1.283-3.594,2.31
				c-6.675,12.834-10.78,25.925-11.808,39.528c-0.257,3.08,0.256,7.188,4.62,8.983c2.823,1.283,5.133,0.257,8.47-3.595
				l17.197-20.533c0.514-0.771,1.54-1.026,2.566-0.771c1.026,0.257,1.54,1.026,1.54,2.054c0,0.514,0,1.026,0.257,1.54
				c0.257,1.026,0.257,2.054,0,3.336c-1.026,5.904-0.257,11.552,2.822,18.995c1.798,4.363,4.62,7.443,8.215,8.728
				c3.594,1.284,7.442,0.77,11.551-1.283c1.54-0.771,3.08-1.54,4.877-2.566l2.565-1.283
				C715.314,201.92,715.828,201.662,716.085,201.662z M719.935,191.395h-0.257h-2.053c-1.284,0-2.312-1.027-2.312-2.312
				c0-2.822,0-5.646-0.257-8.727c0-6.417-0.257-13.091,0-19.764c0.514-11.552,2.823-22.331,7.443-32.342
				c2.054-4.363,3.851-8.728,5.646-13.091c4.106-9.754,8.213-19.764,13.86-29.004c8.727-14.631,20.276-27.978,30.287-40.041
				c5.391-6.417,12.319-9.497,19.764-8.471c6.674,0.771,10.269,4.877,9.754,10.78c-0.514,6.159-1.54,13.604-3.851,20.276
				c-15.4,42.353-1.283,7.7-15.145,36.704c-15.144,31.058-35.164,59.549-59.548,84.189c-0.514,0.514-1.025,1.025-1.54,1.282
				c-0.257,0-0.257,0.258-0.514,0.258S720.448,191.395,719.935,191.395z M788.979,42.01c-5.902,0.257-10.01,3.851-12.833,6.931
				c-10.011,11.807-21.305,25.154-30.03,39.271c-5.391,8.983-9.497,18.736-13.604,28.49c-1.797,4.363-3.594,8.983-5.646,13.347
				c-4.364,9.497-6.675,19.766-6.932,30.546c-0.257,6.417,0,13.09,0,19.507c0,1.797,0,3.594,0,5.646
				c23.87-24.384,43.635-52.36,58.266-82.647c14.116-28.747-0.258,6.16,15.145-36.191c2.053-5.646,2.823-11.55,3.593-18.993
				c0.257-2.054-0.257-5.134-5.39-5.646C790.776,42.01,789.75,42.01,788.979,42.01z"/>
		</g>
		<g id="XMLID_1344_">
			<path id="XMLID_1354_" fill="#FFFFFF" d="M560.54,192.422c-5.133,10.524-12.063,16.94-22.587,19.766
				c-10.012,2.823-16.685-3.594-16.428-12.32c0.257-7.188,2.054-14.631,4.363-21.562c3.593-10.011,8.47-19.508,12.577-29.262
				c1.54-3.594,2.823-7.442,7.7-7.699c5.133-0.258,8.213,3.337,11.293,6.674c5.391,5.902,5.134,13.604,5.646,20.79
				C564.134,177.021,565.674,185.748,560.54,192.422z M553.867,186.005c0.256-4.105,0.77-8.47,0.77-12.576
				c0-5.134-0.257-10.268-0.77-15.145c-0.258-1.797-1.798-3.593-2.824-5.39c-1.796,1.283-3.851,2.31-5.391,3.593
				c-0.771,0.514-1.025,1.54-1.282,2.311c-3.595,7.443-7.444,14.631-10.269,22.33c-2.31,5.904-3.337,12.577-4.363,18.994
				c-0.77,5.392,1.026,6.417,6.16,4.877c8.729-2.565,12.063-10.267,17.197-16.427"/>
			<path id="XMLID_1349_" fill="#FFFFFF" d="M533.333,215.266c-3.337,0-6.417-1.027-8.728-2.824
				c-3.594-2.823-5.646-7.442-5.391-12.576c0.257-6.674,1.797-14.118,4.62-22.331c2.565-7.188,5.903-14.374,8.982-21.304
				c1.283-2.824,2.567-5.391,3.852-8.214l0.257-0.771c1.54-3.336,3.336-7.956,9.496-8.213c5.904-0.257,9.497,3.593,12.32,6.673
				l0.771,0.771c5.134,5.646,5.646,12.577,6.16,18.994c0,1.025,0.257,2.31,0.257,3.336s0.257,2.054,0.257,3.08
				c0.771,7.699,1.797,15.656-3.337,22.073c-5.391,11.038-13.091,17.712-23.871,20.792
				C536.927,215.01,535.13,215.266,533.333,215.266z M546.937,143.654c-0.257,0-0.257,0-0.514,0c-2.823,0.256-3.85,2.053-5.39,5.39
				l-0.515,0.771c-1.283,2.823-2.565,5.646-3.85,8.47c-3.08,6.674-6.417,13.86-8.729,20.791c-2.565,7.443-4.105,14.63-4.362,20.791
				c0,3.594,1.283,6.931,3.594,8.728c2.566,1.797,5.903,2.31,9.754,1.283c9.753-2.823,16.17-8.472,21.047-18.48
				c0-0.257,0.257-0.257,0.257-0.515c4.106-4.877,3.337-11.55,2.566-18.736c0-1.026-0.257-2.053-0.257-3.08
				c0-1.026-0.257-2.311-0.257-3.337c-0.514-5.903-0.771-11.808-4.876-16.17l-0.771-0.771
				C552.583,145.964,550.273,143.654,546.937,143.654z M532.307,207.822c-1.284,0-2.566-0.257-3.337-1.025
				c-2.054-1.797-1.797-4.62-1.54-6.931c1.026-7.701,2.311-13.861,4.363-19.508c2.053-5.391,4.62-10.78,7.187-15.914
				c1.026-2.053,2.055-4.363,3.08-6.417c0-0.256,0.257-0.256,0.257-0.513c0.258-0.771,0.771-1.797,1.798-2.567
				c1.282-1.026,2.822-1.796,4.105-2.823c0.514-0.257,1.027-0.77,1.54-1.025c0.514-0.257,1.283-0.515,1.797-0.257
				c0.771,0.257,1.283,0.514,1.54,1.282c0.257,0.515,0.514,1.027,1.026,1.54c0.771,1.283,1.797,2.823,2.054,4.62
				c0.514,5.392,0.771,10.78,0.771,15.4c0,3.594-0.258,7.188-0.515,10.779l-0.257,2.055c0,0.77-0.514,1.283-1.026,1.797
				c0.258,0.77,0,1.54-0.514,2.31c-1.283,1.54-2.31,3.08-3.594,4.62c-3.593,5.135-7.443,10.269-14.63,12.32
				C535.13,207.565,533.59,207.822,532.307,207.822z M550.273,156.231c-1.282,0.77-2.311,1.54-3.337,2.31
				c0,0-0.257,0.515-0.257,0.771c0,0.256-0.257,0.513-0.257,0.77c-1.026,2.312-2.053,4.363-3.08,6.674
				c-2.566,5.134-5.133,10.268-6.93,15.4s-3.337,11.037-4.106,18.48c-0.257,2.054,0,2.823,0,2.823s0.771,0,3.08-0.514
				c5.646-1.541,8.727-5.904,12.063-10.524c1.282-1.54,2.565-3.337,3.85-4.877c0-0.257,0.257-0.257,0.514-0.257
				c0-0.256,0-0.513,0-0.77l0.257-2.055c0.258-3.337,0.514-6.93,0.514-10.267c0-4.363,0-9.754-0.771-14.887
				C551.3,158.027,550.787,157.001,550.273,156.231z"/>
		</g>
		<g id="XMLID_1339_">
			<path id="XMLID_1343_" fill="#FFFFFF" d="M606.484,154.947c-1.796-0.77-3.08-1.283-5.133-2.053
				c-5.391,12.319-9.497,24.641-8.982,37.986c0,2.055,1.796,4.878,3.593,5.646c1.283,0.514,4.363-0.771,5.904-2.31
				c8.982-8.728,15.655-19.252,20.532-30.545c1.283-3.079,3.337-4.877,5.647-3.851c2.31,1.027,4.62,4.107,4.62,6.417
				c0.256,5.134-0.771,10.011-1.54,15.144c-1.027,6.16-2.055,12.063-3.594,17.969c-0.515,1.797-2.055,1.797-3.852,2.053
				c-2.053-0.77-3.593-1.025-3.593-2.823c0-4.105,1.026-8.47,1.283-12.577c0-0.77-0.257-1.54-0.257-2.053
				c-4.878,5.39-9.497,10.523-14.117,15.914c-3.851,4.363-8.983,5.391-13.86,3.336c-5.39-2.31-8.214-7.187-8.727-13.09
				c-1.026-10.78,1.797-20.791,5.134-30.801c1.283-3.595,2.565-6.932,4.105-10.269c1.54-3.08,2.566-6.93,7.443-5.39
				C605.458,145.451,607.769,149.814,606.484,154.947z"/>
			<path id="XMLID_1340_" fill="#FFFFFF" d="M598.015,207.052c-1.797,0-3.851-0.257-5.646-1.283
				c-5.904-2.311-9.497-7.957-10.269-14.889c-1.025-10.522,1.283-20.276,5.392-31.826c1.282-3.595,2.565-7.188,4.105-10.524
				l0.257-0.77c1.283-2.823,3.595-8.215,10.268-5.903c5.646,1.797,8.214,7.187,6.931,13.604c-0.257,0.771-0.514,1.283-1.283,1.54
				c-0.514,0.257-1.283,0.257-2.054,0l-3.08-1.282c-4.363,10.01-8.471,21.561-7.957,34.649c0,1.027,1.283,3.08,2.054,3.594
				c0.771,0,2.311-0.77,3.338-1.797c7.956-7.7,14.63-17.453,20.021-30.029c1.283-2.823,2.823-4.363,4.62-5.135
				c1.283-0.514,2.823-0.514,4.105,0.257c2.823,1.283,5.903,5.135,6.16,8.471c0.257,4.62-0.514,9.497-1.283,14.117l-0.257,1.54
				c-0.77,5.134-2.054,11.551-3.594,18.225c-0.771,3.08-3.593,3.593-5.646,3.851c-0.258,0-1.026,0-1.283,0h-0.258
				c-2.054-0.514-4.877-1.54-5.134-4.877c0-2.566,0.257-5.135,0.771-7.701c-3.08,3.595-6.417,7.188-9.497,10.78
				C605.972,205.257,602.121,207.052,598.015,207.052z M599.041,145.964c-1.026,0-1.797,1.027-2.823,3.595l-0.257,0.77
				c-1.54,3.337-2.823,6.674-4.106,10.269c-3.851,10.779-5.902,20.021-5.134,29.772c0.514,5.392,3.08,9.241,7.443,11.038
				c4.106,1.796,8.214,0.771,11.294-2.823c3.337-3.851,6.674-7.443,10.011-11.038l4.363-4.877c0.513-0.77,1.54-1.025,2.565-0.77
				c0.771,0.257,1.54,1.026,1.54,2.054c0.257,0.771,0.257,1.54,0.257,2.566c-0.257,1.283-0.257,2.823-0.514,4.105
				c-0.513,2.823-0.77,5.392-0.77,7.958c0.257,0.257,1.025,0.257,1.54,0.514c0.513,0,1.282-0.257,1.282-0.257
				c1.54-6.418,2.823-12.835,3.595-17.712l0.257-1.54c0.77-4.362,1.54-8.727,1.283-13.09c0-1.283-1.798-3.594-3.337-4.362
				c-0.258-0.258-0.515,0-0.515,0c-0.513,0.257-1.283,1.025-2.054,2.565c-5.646,12.834-12.576,23.102-21.047,31.314
				c-1.54,1.282-5.646,4.105-8.471,2.823c-2.566-1.283-4.877-4.878-5.134-7.7c-0.514-14.888,4.363-27.979,9.24-39.016
				c0.514-1.283,1.797-1.797,3.08-1.283l2.054,0.771c-0.257-2.567-1.54-4.364-3.851-5.134
				C599.812,146.22,599.555,145.964,599.041,145.964z"/>
		</g>
		<g id="XMLID_1334_">
			<path id="XMLID_1338_" fill="#FFFFFF" d="M637.029,145.451c-1.282-0.514-3.337-0.514-4.106-1.54
				c-1.54-2.566-2.823-5.646-3.593-8.728c-0.515-1.283,0-2.823,0-4.106c2.053,0.257,5.39-0.257,5.646,0.771
				c1.54,3.851,2.312,7.957,3.594,12.063C638.056,144.424,637.542,144.937,637.029,145.451z"/>
			<path id="XMLID_1335_" fill="#FFFFFF" d="M637.029,148.017c-0.257,0-0.514,0-0.771-0.257c-0.257-0.258-0.771-0.258-1.283-0.258
				c-1.54-0.257-3.08-0.77-4.105-2.31c-1.798-3.08-3.08-6.417-3.852-9.24c-0.513-1.284-0.257-2.566-0.257-3.851
				c0-0.257,0-0.771,0-1.026c0-0.771,0.257-1.283,0.771-1.797c0.515-0.514,1.026-0.771,1.798-0.514c0.513,0,1.282,0,2.053,0
				c2.566,0,4.877,0,5.646,2.054c1.283,3.08,2.054,6.16,2.823,9.24c0.257,1.025,0.514,2.054,0.771,3.337
				c0.257,0.77,0,1.797-0.514,2.31l-1.54,1.54C638.312,147.76,637.542,148.017,637.029,148.017z M634.719,142.37
				c0.257,0,0.514,0.257,1.027,0.257c0-0.513-0.258-1.025-0.258-1.54c-0.771-2.565-1.282-5.133-2.311-7.699
				c-0.513,0-1.283,0-1.797,0c0,0.514,0,0.771,0,1.026C632.409,136.98,633.436,139.803,634.719,142.37z"/>
		</g>
	</g>
	<path id="XMLID_1391_" fill="#FFFFFF" d="M43.6,140.317h11.037v32.854h13.604v-32.854h11.037v76.745H68.24v-34.137H54.637v34.138
		H43.6V140.317z"/>
	<path id="XMLID_1385_" fill="#FFFFFF" d="M88.775,158.541c0-3.08,0.514-5.902,1.54-8.214c1.025-2.31,2.565-4.363,4.362-5.903
		c1.797-1.539,3.852-2.822,5.903-3.594c2.311-0.77,4.363-1.283,6.674-1.283s4.363,0.515,6.674,1.283
		c2.311,0.771,4.106,2.055,5.903,3.594c1.797,1.54,3.08,3.595,4.363,5.903c1.025,2.312,1.54,5.134,1.54,8.214v40.556
		c0,3.08-0.515,5.902-1.54,8.214c-1.026,2.31-2.566,4.363-4.363,5.903s-3.851,2.822-5.903,3.594
		c-2.311,0.77-4.363,1.283-6.674,1.283s-4.363-0.515-6.674-1.283c-2.31-0.771-4.106-2.312-5.903-3.852s-3.08-3.594-4.362-5.902
		c-1.026-2.312-1.54-5.134-1.54-8.214V158.541z M99.813,199.095c0,2.565,0.77,4.62,2.31,5.903c1.54,1.282,3.337,1.797,5.134,1.797
		c2.054,0,3.851-0.515,5.134-1.797c1.54-1.283,2.311-3.338,2.311-5.903V158.54c0-2.565-0.771-4.62-2.311-5.902
		c-1.54-1.283-3.337-1.798-5.134-1.798c-2.054,0-3.851,0.515-5.134,1.798c-1.54,1.282-2.31,3.337-2.31,5.902V199.095z"/>
	<path id="XMLID_1383_" fill="#FFFFFF" d="M170.91,199.866c0,2.566-0.514,4.876-1.283,6.931c-1.027,2.054-2.311,4.105-3.851,5.646
		s-3.595,2.824-5.646,3.852c-2.054,1.025-4.363,1.282-6.931,1.282c-2.566,0-4.62-0.514-6.931-1.282
		c-2.054-1.026-4.106-2.312-5.646-3.852s-2.823-3.593-3.85-5.646c-1.027-2.055-1.283-4.363-1.283-6.931v-59.549h11.037v58.266
		c0,2.822,0.77,4.619,2.053,5.903c1.283,1.283,2.823,2.053,4.877,2.053s3.594-0.77,4.877-2.053c1.283-1.284,2.054-3.337,2.054-5.903
		v-58.266h10.523V199.866L170.91,199.866z"/>
	<path id="XMLID_1381_" fill="#FFFFFF" d="M216.598,162.391h-11.037v-2.567c0-2.565-0.513-4.62-1.797-6.417
		c-1.282-1.796-3.08-2.823-5.902-2.823c-1.54,0-2.823,0.258-3.594,0.771c-1.026,0.513-1.797,1.283-2.311,2.31
		c-0.514,0.771-1.026,2.055-1.026,3.08c-0.257,1.283-0.257,2.312-0.257,3.594c0,1.54,0,2.823,0.257,3.851
		c0,1.027,0.258,2.054,0.771,2.566c0.514,0.771,1.026,1.54,1.797,2.054s2.054,1.026,3.337,1.797l8.47,3.337
		c2.567,1.026,4.364,2.054,5.904,3.337s2.566,2.823,3.593,4.363c0.771,1.797,1.284,3.594,1.54,5.902
		c0.257,2.312,0.515,4.62,0.515,7.443c0,3.338-0.258,6.161-1.026,8.984c-0.771,2.823-1.797,5.134-3.08,7.187
		c-1.54,2.055-3.337,3.595-5.904,4.62c-2.565,1.027-5.39,1.797-8.982,1.797c-2.566,0-5.133-0.514-7.443-1.282
		c-2.31-1.026-4.363-2.312-5.903-3.852s-3.079-3.593-3.851-5.646c-1.026-2.311-1.54-4.62-1.54-7.188v-4.107h11.037v3.338
		c0,2.054,0.514,3.851,1.797,5.391s3.08,2.311,5.903,2.311c1.797,0,3.337-0.258,4.362-0.771c1.027-0.514,1.798-1.283,2.312-2.311
		c0.514-1.026,0.77-2.054,1.026-3.594c0.256-1.54,0.257-3.081,0.257-4.621c0-2.053,0-3.593-0.257-4.877
		c-0.258-1.283-0.514-2.31-1.026-3.08c-0.514-0.77-1.026-1.54-2.054-2.053c-0.771-0.514-1.797-1.027-3.337-1.54l-7.7-3.337
		c-4.62-2.054-7.956-4.62-9.496-7.7s-2.312-7.187-2.312-12.062c0-2.823,0.515-5.647,1.283-8.214
		c0.771-2.566,2.054-4.878,3.594-6.675c1.54-1.796,3.595-3.336,5.903-4.362c2.312-1.026,5.134-1.54,8.214-1.54
		c2.823,0,5.133,0.514,7.443,1.54c2.31,1.026,4.105,2.311,5.903,4.106c1.539,1.54,2.822,3.593,3.594,5.646
		c0.77,2.054,1.283,4.105,1.283,6.417v4.877L216.598,162.391L216.598,162.391z"/>
	<path id="XMLID_1379_" fill="#FFFFFF" d="M224.813,140.317h32.598v10.267h-21.818v22.588h18.994v10.268h-18.994v22.588h21.817
		v11.036h-32.597V140.317z"/>
	<path id="XMLID_1376_" fill="#FFFFFF" d="M276.147,158.541c0-3.08,0.513-5.902,1.539-8.214c1.026-2.31,2.566-4.363,4.363-5.903
		c1.797-1.539,3.851-2.822,5.903-3.594c2.31-0.77,4.363-1.283,6.674-1.283c2.31,0,4.363,0.515,6.673,1.283
		c2.312,0.771,4.107,2.055,5.903,3.594c1.797,1.54,3.08,3.595,4.364,5.903c1.025,2.312,1.54,5.134,1.54,8.214v40.556
		c0,3.08-0.515,5.902-1.54,8.214c-1.027,2.31-2.567,4.363-4.364,5.903c-1.796,1.54-3.851,2.822-5.903,3.594
		c-2.31,0.77-4.363,1.283-6.673,1.283c-2.311,0-4.364-0.515-6.674-1.283c-2.312-0.771-4.106-2.054-5.903-3.594
		s-3.08-3.595-4.363-5.903c-1.026-2.312-1.54-5.134-1.54-8.214L276.147,158.541L276.147,158.541z M287.183,199.095
		c0,2.565,0.771,4.62,2.312,5.903c1.54,1.282,3.337,1.797,5.134,1.797c2.053,0,3.85-0.515,5.133-1.797
		c1.54-1.283,2.312-3.338,2.312-5.903V158.54c0-2.565-0.771-4.62-2.312-5.902c-1.54-1.283-3.337-1.798-5.133-1.798
		c-2.054,0-3.851,0.515-5.134,1.798c-1.54,1.282-2.312,3.337-2.312,5.902V199.095z"/>
	<path id="XMLID_1374_" fill="#FFFFFF" d="M322.605,140.317h32.597v10.267h-21.816v23.357h18.993v10.267h-18.993v32.6h-11.037
		v-76.489L322.605,140.317L322.605,140.317z"/>
</g>
</svg>
