<?xml version="1.0" encoding="UTF-8" standalone="no"?>
<svg width="844px" height="210px" viewBox="0 0 844 210" version="1.1" xmlns="http://www.w3.org/2000/svg" xmlns:xlink="http://www.w3.org/1999/xlink">
    <!-- Generator: Sketch 40 (33762) - http://www.bohemiancoding.com/sketch -->
    <title>Group 3</title>
    <desc>Created with Sketch.</desc>
    <defs></defs>
    <g id="Page-1" stroke="none" stroke-width="1" fill="none" fill-rule="evenodd">
        <g id="Desktop-HD" transform="translate(-1280.000000, -3710.000000)" fill="#000000">
            <g id="Group-3" transform="translate(1280.000000, 3710.000000)">
                <polygon id="Fill-26" points="0.299968801 75.6052009 10.0153029 75.6052009 10.0153029 104.618565 22.0170026 104.618565 22.0170026 75.6052009 31.7323367 75.6052009 31.7323367 143.336089 22.0170026 143.336089 22.0170026 113.1795 10.0153029 113.1795 10.0153029 143.336089 0.299968801 143.336089"></polygon>
                <polygon id="Fill-27" points="160.694947 75.6052009 189.65132 75.6052009 189.65132 84.737257 170.410281 84.737257 170.410281 104.618565 187.174342 104.618565 187.174342 113.750621 170.410281 113.750621 170.410281 133.632911 189.65132 133.632911 189.65132 143.336089 160.694947 143.336089"></polygon>
                <polygon id="Fill-28" points="247.248572 75.6052009 276.204944 75.6052009 276.204944 84.737257 256.963906 84.737257 256.963906 105.283893 273.728949 105.283893 273.728949 114.417911 256.963906 114.417911 256.963906 143.336089 247.248572 143.336089"></polygon>
                <polygon id="Fill-29" points="0.299968801 75.6052009 10.0153029 75.6052009 10.0153029 104.618565 22.0170026 104.618565 22.0170026 75.6052009 31.7323367 75.6052009 31.7323367 143.336089 22.0170026 143.336089 22.0170026 113.1795 10.0153029 113.1795 10.0153029 143.336089 0.299968801 143.336089"></polygon>
                <g id="Group-66" transform="translate(40.284051, 0.000000)">
                    <path d="M0.0211245634,91.5865935 C0.0211245634,88.8595374 0.495690338,86.4494439 1.44875204,84.3563131 C2.40181374,82.2641636 3.65356694,80.5360794 5.21187194,79.1720607 C6.7662468,77.8090234 8.51221653,76.7786495 10.4497811,76.0799579 C12.3863632,75.383229 14.3396484,75.0338832 16.3076717,75.0338832 C18.2747125,75.0338832 20.2270151,75.383229 22.1655623,76.0799579 C24.1021444,76.7786495 25.8471315,77.8090234 27.4034715,79.1720607 C28.9598114,80.5360794 30.2135297,82.2641636 31.1665914,84.3563131 C32.1196531,86.4494439 32.5942189,88.8595374 32.5942189,91.5865935 L32.5942189,127.354304 C32.5942189,130.145145 32.1196531,132.571921 31.1665914,134.631687 C30.2135297,136.692435 28.9598114,138.404818 27.4034715,139.768836 C25.8471315,141.133836 24.1021444,142.163229 22.1655623,142.859958 C20.2270151,143.556687 18.2747125,143.907014 16.3076717,143.907014 C14.3396484,143.907014 12.3863632,143.556687 10.4497811,142.859958 C8.51221653,142.163229 6.7662468,141.133836 5.21187194,139.768836 C3.65356694,138.404818 2.40181374,136.692435 1.44875204,134.631687 C0.495690338,132.571921 0.0211245634,130.145145 0.0211245634,127.354304 L0.0211245634,91.5865935 Z M9.73645867,127.354304 C9.73645867,129.700612 10.3849336,131.430659 11.6877788,132.538556 C12.9886589,133.648416 14.5292782,134.203836 16.3076717,134.203836 C18.0850827,134.203836 19.625702,133.648416 20.9275646,132.538556 C22.2274622,131.430659 22.8788847,129.700612 22.8788847,127.354304 L22.8788847,91.5865935 C22.8788847,89.240285 22.2274622,87.5122009 20.9275646,86.4013598 C19.625702,85.2924813 18.0850827,84.7370607 16.3076717,84.7370607 C14.5292782,84.7370607 12.9886589,85.2924813 11.6877788,86.4013598 C10.3849336,87.5122009 9.73645867,89.240285 9.73645867,91.5865935 L9.73645867,127.354304 Z" id="Fill-30"></path>
                    <path d="M72.5978538,128.11521 C72.5978538,130.335911 72.1842054,132.396659 71.3598561,134.298435 C70.5335418,136.201192 69.4065709,137.865491 67.9779609,139.292313 C66.5503334,140.720117 64.8829667,141.84764 62.9778258,142.670958 C61.072685,143.494276 59.0398142,143.907407 56.8821611,143.907407 C54.722543,143.907407 52.6906547,143.494276 50.7855139,142.670958 C48.8813555,141.84764 47.2139888,140.720117 45.7853788,139.292313 C44.3567688,137.865491 43.2278328,136.201192 42.4034836,134.298435 C41.5781518,132.396659 41.1654859,130.335911 41.1654859,128.11521 L41.1654859,75.6053972 L50.88082,75.6053972 L50.88082,127.163341 C50.88082,129.575397 51.452657,131.348621 52.5953485,132.491846 C53.73804,133.633107 55.1676326,134.204229 56.8821611,134.204229 C58.5966896,134.204229 60.0252997,133.633107 61.1679912,132.491846 C62.3106827,131.348621 62.8825197,129.575397 62.8825197,127.163341 L62.8825197,75.6053972 L72.5978538,75.6053972 L72.5978538,128.11521 Z" id="Fill-32"></path>
                    <path d="M113.173424,95.1053692 L103.45809,95.1053692 L103.45809,92.9170514 C103.45809,90.6992944 102.934397,88.7798551 101.886029,87.1626589 C100.837661,85.5444813 99.0759711,84.7368645 96.5999758,84.7368645 C95.2666719,84.7368645 94.1711423,84.9910234 93.3133867,85.4973785 C92.4566137,86.0066776 91.7894705,86.6563037 91.3139222,87.4482196 C90.8373914,88.2411168 90.5033285,89.1606028 90.3136987,90.2056963 C90.1221038,91.2527523 90.0287627,92.3469112 90.0287627,93.4881729 C90.0287627,94.8207897 90.0759246,95.9473318 90.1712307,96.8658364 C90.2665369,97.7853224 90.5033285,98.5782196 90.8855357,99.2435467 C91.2667604,99.9088738 91.8218943,100.497659 92.5519199,101.003033 C93.280963,101.512332 94.280204,102.018687 95.5516079,102.526023 L102.981559,105.474855 C105.140195,106.300136 106.887147,107.267706 108.220451,108.375603 C109.552772,109.487425 110.584437,110.787659 111.316427,112.276304 C112.045471,113.767893 112.536739,115.480276 112.792199,117.413453 C113.044712,119.348593 113.173424,121.551631 113.173424,124.025509 C113.173424,126.878173 112.886523,129.526724 112.316651,131.967238 C111.743831,134.410696 110.807473,136.503827 109.506593,138.246631 C108.203748,139.990416 106.473498,141.371117 104.315845,142.383827 C102.155245,143.3985 99.5200782,143.906818 96.4093634,143.906818 C94.0601155,143.906818 91.8680736,143.493687 89.8371679,142.670369 C87.8052796,141.847051 86.0583274,140.720509 84.5982761,139.292706 C83.1372424,137.864902 81.9788303,136.170182 81.1220573,134.20364 C80.2643017,132.238079 79.8368978,130.112565 79.8368978,127.830042 L79.8368978,124.214902 L89.5522319,124.214902 L89.5522319,127.258921 C89.5522319,129.035089 90.0759246,130.636584 91.1223274,132.063407 C92.1706952,133.490229 93.9323856,134.20364 96.4093634,134.20364 C98.0610095,134.20364 99.346169,133.966164 100.26779,133.490229 C101.187445,133.014294 101.886029,132.348967 102.36256,131.493266 C102.839091,130.636584 103.138765,129.57579 103.266495,128.305977 C103.394225,127.038126 103.45809,125.641724 103.45809,124.120696 C103.45809,122.345509 103.394225,120.885322 103.266495,119.744061 C103.138765,118.602799 102.870532,117.684294 102.457866,116.984621 C102.044218,116.287893 101.472381,115.716771 100.743338,115.27322 C100.011347,114.83065 99.0435474,114.354715 97.8379735,113.846397 L90.8855357,110.992752 C86.6930468,109.280369 83.8849537,107.013547 82.4553611,104.190322 C81.0267511,101.369061 80.3134286,97.8334065 80.3134286,93.5833598 C80.3134286,91.0476589 80.661247,88.6375654 81.360814,86.3540607 C82.0574333,84.0705561 83.089098,82.1059766 84.4558081,80.4563972 C85.8205532,78.8077991 87.5508023,77.4928458 89.6465555,76.5085935 C91.7432913,75.5253224 94.1868629,75.0336869 96.9802179,75.0336869 C99.3933308,75.0336869 101.601093,75.4782196 103.600558,76.3663037 C105.601005,77.2543879 107.314551,78.4270514 108.744143,79.8842944 C110.172753,81.3444813 111.267301,82.9773785 112.02975,84.7839673 C112.792199,86.5915374 113.173424,88.4471916 113.173424,90.3499486 L113.173424,95.1053692 Z" id="Fill-34"></path>
                    <polygon id="Fill-36" points="120.410896 75.6052009 149.367268 75.6052009 149.367268 84.737257 130.12623 84.737257 130.12623 104.618565 146.890291 104.618565 146.890291 113.750621 130.12623 113.750621 130.12623 133.632911 149.367268 133.632911 149.367268 143.336089 120.410896 143.336089"></polygon>
                    <path d="M165.818685,91.5865935 C165.818685,88.8595374 166.293251,86.4494439 167.246313,84.3563131 C168.199375,82.2641636 169.451128,80.5360794 171.009433,79.1720607 C172.563808,77.8090234 174.309777,76.7786495 176.247342,76.0799579 C178.183924,75.383229 180.137209,75.0338832 182.105233,75.0338832 C184.072273,75.0338832 186.024576,75.383229 187.963123,76.0799579 C189.898723,76.7786495 191.644692,77.8090234 193.201032,79.1720607 C194.757372,80.5360794 196.011091,82.2641636 196.964152,84.3563131 C197.917214,86.4494439 198.39178,88.8595374 198.39178,91.5865935 L198.39178,127.354304 C198.39178,130.145145 197.917214,132.571921 196.964152,134.631687 C196.011091,136.692435 194.757372,138.404818 193.201032,139.768836 C191.644692,141.133836 189.898723,142.163229 187.963123,142.859958 C186.024576,143.556687 184.072273,143.907014 182.105233,143.907014 C180.137209,143.907014 178.183924,143.556687 176.247342,142.859958 C174.309777,142.163229 172.563808,141.133836 171.009433,139.768836 C169.451128,138.404818 168.199375,136.692435 167.246313,134.631687 C166.293251,132.571921 165.818685,130.145145 165.818685,127.354304 L165.818685,91.5865935 Z M175.53402,127.354304 C175.53402,129.700612 176.182495,131.430659 177.48534,132.538556 C178.78622,133.648416 180.326839,134.203836 182.105233,134.203836 C183.882644,134.203836 185.423263,133.648416 186.725125,132.538556 C188.025023,131.430659 188.676446,129.700612 188.676446,127.354304 L188.676446,91.5865935 C188.676446,89.240285 188.025023,87.5122009 186.725125,86.4013598 C185.423263,85.2924813 183.882644,84.7370607 182.105233,84.7370607 C180.326839,84.7370607 178.78622,85.2924813 177.48534,86.4013598 C176.182495,87.5122009 175.53402,89.240285 175.53402,91.5865935 L175.53402,127.354304 Z" id="Fill-38"></path>
                    <polygon id="Fill-40" points="206.964521 75.6052009 235.920893 75.6052009 235.920893 84.737257 216.679855 84.737257 216.679855 105.283893 233.444898 105.283893 233.444898 114.417911 216.679855 114.417911 216.679855 143.336089 206.964521 143.336089"></polygon>
                    <path d="M693.994966,166.339037 C695.11899,165.176187 696.711683,164.741467 698.084289,163.966234 C698.304377,163.841607 698.591278,163.796467 698.852633,163.774879 C701.347297,163.568804 701.338454,163.564879 702.760186,161.94572 C703.037262,161.628757 703.37329,161.300019 703.757462,161.139084 C705.267623,160.504178 706.550817,159.342308 708.44908,159.592542 C709.162403,159.685766 710.002473,159.265766 710.406296,158.461093 C710.89953,157.477822 711.684577,157.207963 712.820391,157.484692 C713.440373,157.634832 714.048563,157.294318 714.215595,156.597589 C714.310901,156.203103 714.584047,156.156 714.927935,156.011748 C715.78962,155.650626 716.556983,154.849879 717.414738,154.775299 C718.349132,154.692869 719.29335,154.948009 720.196303,154.420065 C721.36847,153.735112 723.04861,153.723336 723.512368,152.112028 C724.346542,151.597822 725.221001,151.249458 726.242841,151.512449 C726.887385,150.775486 727.774617,149.877589 728.647111,150.124879 C730.32725,150.600813 731.599637,149.824598 732.984033,149.371234 C733.672792,149.145533 734.645504,149.102355 734.755548,148.082776 C735.866799,147.467495 736.894533,146.601 738.352619,147.247682 C738.977513,147.524411 739.016815,146.866935 739.219218,146.631421 C740.13003,146.631421 740.997611,146.707963 741.841611,146.609832 C742.631572,146.517589 743.620987,146.456748 744.117169,145.990626 C744.74501,145.399879 745.199925,144.670766 746.252224,144.557916 C746.42908,142.919131 746.691418,141.398103 746.729737,139.872168 C746.768056,138.363897 747.220023,136.860533 746.995022,135.171701 C745.057458,135.477869 743.317383,135.251187 741.553728,134.967589 C738.205239,134.426888 735.830445,132.610486 734.004889,130.046327 C732.676498,128.179879 732.048657,126.071047 731.62027,123.833664 C730.757602,119.328477 731.504331,114.944972 732.434794,110.586981 C733.904671,103.708991 735.879572,96.9497383 738.087334,90.2523084 C739.568019,85.7618411 740.997611,81.2556729 742.527423,76.7809065 C743.500135,73.9341308 744.612368,71.1295514 745.668596,68.3082897 C746.102878,67.1483832 746.593164,66.7990374 747.864568,66.8971682 C748.474724,66.9452523 749.15071,67.052215 749.651804,67.3524953 C750.630412,67.9393178 751.541225,68.6448785 752.420596,69.3671215 C753.983814,70.6516542 754.178356,72.1481495 753.376605,73.979271 C751.891008,77.3755794 750.45552,80.8003458 749.222435,84.284972 C747.616969,88.8225421 746.218817,93.4268411 744.752871,98.0095514 C744.255707,99.5639439 743.899045,101.161514 743.351772,102.699224 C741.727637,107.252495 740.628177,111.932355 739.987562,116.679925 C739.54149,119.979084 739.416708,123.346935 740.32359,126.644131 C740.507325,127.308477 740.628177,127.991467 741.471194,128.489972 C741.849471,128.370252 742.428186,128.325112 742.815306,128.041514 C744.592717,126.740299 746.35539,125.41357 748.04732,124.013243 C749.09274,123.14871 749.52604,121.944645 749.831609,120.647355 C751.130524,115.137308 752.393085,109.613523 753.89735,104.152542 C755.423232,98.6169813 757.009048,93.0882897 759.256112,87.7568411 C760.257318,85.3820748 761.006994,82.9111402 761.976759,80.5236168 C763.764978,76.1234299 766.070994,71.9607196 768.486072,67.8480561 C769.53837,66.0571682 770.5101,64.2231028 771.483795,62.391 C772.091003,61.2497383 772.746356,60.7924486 773.986319,60.8994112 C774.510012,60.9445514 775.069076,61.0681963 775.525956,61.3056729 C778.208284,62.6952056 779.968009,64.608757 779.912987,67.771514 C779.753816,76.9104393 778.202389,85.8177757 775.300955,94.5200187 C774.622021,96.5581963 774.047236,98.6385701 773.199306,100.611981 C770.886412,105.992495 768.401574,111.289598 765.189658,116.269738 C763.544889,118.82114 761.87261,121.346047 760.088321,123.807168 C759.883953,124.089785 759.725765,124.422449 759.462445,124.642262 C756.657299,126.98072 756.969746,128.016 756.313411,131.24843 C755.682622,134.351327 755.396703,137.518009 754.976177,140.658196 C754.921155,141.070346 754.968317,141.494271 754.968317,141.985907 C756.075637,142.182168 757.088633,142.361748 758.246063,142.566841 C759.071395,141.49329 760.522603,141.618897 761.767478,141.242075 C761.922719,141.194972 762.188005,141.203804 762.283311,141.297028 C763.310063,142.291093 763.968363,141.76315 764.862473,140.991841 C765.463786,140.474692 766.502328,140.23329 767.358119,140.201888 C770.046342,140.104738 772.607818,139.275533 775.270496,139.091047 C777.957737,138.905579 780.64596,138.608243 783.335166,138.586654 C787.824382,138.551327 792.315562,138.692636 796.80576,138.772121 C797.154561,138.778009 797.536768,138.815299 797.842338,138.957589 C799.809378,139.875112 801.485588,141.093897 802.58996,142.97114 C803.341602,144.247822 802.896512,145.251701 802.061355,146.250673 C801.220303,147.255533 800.241695,147.902215 798.810137,147.444925 C798.55566,147.363477 798.266794,147.345813 798.037863,147.224131 C795.674859,145.958243 793.04264,145.822822 790.457583,145.765907 C784.26563,145.628523 778.089397,145.619692 771.931832,146.693243 C766.899274,147.570533 761.828396,148.247636 756.843981,149.37614 C755.978366,149.572402 755.127488,149.827542 754.291348,150.049318 C753.574095,152.057075 753.784359,154.04815 753.692983,156.000953 C753.469946,160.780907 753.254771,165.562822 753.162412,170.34572 C753.069071,175.141374 753.070054,179.938009 753.594729,184.721888 C753.949425,187.957262 754.211763,191.201467 754.483925,194.44371 C754.555651,195.295486 754.544843,196.157075 754.512419,197.012776 C754.440694,198.88315 753.718529,200.515065 752.393085,201.891841 C750.854431,203.48843 749.049509,204.732729 746.959651,205.609037 C743.483432,207.067262 739.818566,207.910206 736.088852,208.410673 C729.856615,209.246748 723.588023,209.539178 717.284061,209.599037 C709.635986,209.670673 702.021318,209.163336 694.392894,208.884645 C689.365248,208.70114 684.339567,208.488196 679.312903,208.292916 C671.949765,208.008336 664.604312,207.574598 657.292265,206.621748 C654.795637,206.296935 652.329467,205.884785 649.866244,205.407869 C648.256847,205.096794 646.835115,204.489364 645.497881,203.532589 C644.307045,202.679832 643.610426,201.74857 643.791213,200.162776 C645.191329,198.111841 647.213392,196.382776 649.127376,194.602682 C652.01702,191.914879 654.904698,189.198617 658.227641,186.973991 C661.533881,184.760159 664.837173,182.541421 668.197453,180.405112 C674.476852,176.412168 681.112913,172.977589 687.589802,169.29572 C688.343409,168.867869 689.048871,168.291841 690.039269,168.840393 C690.176824,168.916935 690.77519,168.596047 690.835125,168.378196 C691.1122,167.360579 692.011222,167.169224 692.832624,166.85128 L692.820834,166.800252 C692.832624,167.183944 693.045835,167.322308 693.407409,167.181981 C693.617672,167.100533 693.797476,166.946467 693.991036,166.824785 L693.929136,166.870907 C694.122696,166.762963 694.317239,166.656 694.565821,166.517636 C694.323134,166.430299 694.118766,166.35572 693.913416,166.282121 L693.994966,166.339037 Z M767.414123,91.8312336 C766.283222,93.012729 766.283222,93.012729 765.921648,95.5032897 C766.986719,94.2943178 767.445565,93.1402991 767.352224,91.7821682 C767.972205,91.4907196 768.04393,91.1207664 767.414123,90.5378692 L767.414123,91.8312336 Z M654.596182,201.015533 C655.546296,201.305019 656.271409,201.64357 657.03091,201.737776 C660.32143,202.149925 663.614896,202.576794 666.921136,202.836841 C671.304237,203.180299 675.700112,203.387355 680.091073,203.626794 C684.574393,203.87114 689.057714,204.100766 693.542016,204.303897 C697.488871,204.483477 701.43769,204.633617 705.38651,204.771 C712.214165,205.008477 719.036908,205.038897 725.842948,204.298009 C729.594277,203.888804 733.323991,203.403056 736.934817,202.292215 C739.619111,201.465953 742.088228,200.296234 744.077867,198.333617 C745.508442,196.920533 746.373076,195.27586 746.310193,193.273009 C746.259101,191.648944 746.209974,190.022916 746.073402,188.403757 C745.877877,186.104551 745.536936,183.81614 745.37973,181.514972 C745.193048,178.783991 745.139991,176.044178 745.021104,173.309271 C744.976889,172.286748 744.822631,171.26128 744.867828,170.242682 C745.097742,165.028991 745.381695,159.81628 745.630277,154.60357 C745.661718,153.938243 745.592941,153.268991 745.57329,152.680206 C745.252,152.531047 745.089881,152.389738 744.935623,152.396607 C744.493481,152.416234 744.039548,152.445673 743.61804,152.560486 C742.324037,152.912776 741.034948,153.285673 739.756666,153.688991 C735.177057,155.133477 730.537513,156.409178 726.233015,158.577869 C724.344577,159.529738 722.243912,160.090065 720.310277,160.969318 C717.495306,162.247963 714.738305,163.639458 711.905648,164.889645 C706.785644,167.150579 701.968261,169.964972 696.939632,172.399598 C692.787427,174.409318 688.749197,176.643757 684.729634,178.891935 C680.396643,181.316748 676.143236,183.870112 671.858389,186.371467 C670.721593,187.034832 669.541565,187.645206 668.474529,188.399832 C666.89166,189.519505 665.383464,190.736327 663.858566,191.927636 C660.935516,194.21114 658.141178,196.625159 655.717257,199.400299 C655.333085,199.839925 655.048149,200.358056 654.596182,201.015533 L654.596182,201.015533 Z" id="Fill-42"></path>
                    <path d="M432.771169,78.4941729 C431.876077,79.2291729 431.341577,79.5471168 430.97902,79.9916495 C430.097684,81.0720701 429.215365,82.1642664 428.479444,83.3349673 C425.193837,88.5535654 422.226573,93.9438925 420.00702,99.6502009 C417.667598,105.665621 415.501102,111.747771 413.469214,117.864266 C410.568762,126.599874 408.400301,135.523893 406.329111,144.466556 C405.981293,145.970902 405.57747,147.464453 405.244389,148.971743 C404.7993,150.985388 403.567197,151.927444 401.388911,152.282678 C398.877544,152.693846 397.026443,151.765528 395.250014,150.381883 C394.453176,149.760715 394.065074,148.874593 393.929484,147.915855 C393.640617,145.877678 393.479481,143.837537 393.654373,141.771883 C393.894112,138.945715 394.593679,136.199033 395.086913,133.417023 C395.804166,129.374033 396.536156,125.333005 397.220985,121.285107 C397.877321,117.404033 398.493372,113.51707 399.10058,109.629126 C399.391411,107.768565 399.655714,105.902117 399.867942,104.031743 C400.370019,99.6080047 400.837707,95.1813224 401.300482,90.7536589 C401.322098,90.5485654 401.161945,90.3258084 401.055831,90.0265093 C400.260957,90.461229 400.211831,91.208986 400.021218,91.800715 C398.341078,97.035014 396.645218,102.26735 395.089861,107.536977 C393.459831,113.056836 392.140282,118.65422 391.037875,124.293799 C390.215491,128.500668 389.422583,132.712444 388.638517,136.926182 C387.886876,140.96721 386.989819,144.985668 386.740254,149.103238 C386.63414,150.848005 385.918853,151.518238 384.200394,151.997117 C381.474834,152.755668 379.295565,151.719407 377.312804,150.086509 C376.888347,149.736182 376.736054,149.227864 376.909963,148.680294 C379.051896,141.942631 379.536287,134.880154 381.362825,128.079687 C382.161628,125.10436 382.934885,122.122164 383.659998,119.129173 C385.33719,112.206042 386.997679,105.278986 389.147472,98.4696869 C390.360906,94.6239393 391.498685,90.7536589 392.821181,86.942257 C393.495202,85.0022103 394.53964,83.1818832 395.339425,81.2781449 C395.700017,80.4185187 395.873926,79.4862757 396.128403,78.5864159 C396.151984,78.5049673 396.131351,78.4137056 396.149037,78.3302944 C396.368142,77.2695 397.533432,76.6983785 397.52852,75.3991262 C397.523607,74.3726776 398.249702,73.3187523 398.749814,72.321743 C399.251891,71.3208084 399.803095,70.3287056 400.460413,69.4160888 C402.009875,67.2650607 404.302136,66.7047336 406.83217,67.781229 C407.323439,67.9902477 407.771477,68.3042664 408.275519,68.4681449 C410.26614,69.1128645 411.005009,70.5406682 411.123896,72.4090794 C411.411779,76.9505748 411.280119,81.4871636 410.884156,86.0149206 C410.473456,90.7055748 409.981204,95.3893598 409.54594,100.07707 C409.486988,100.716883 409.552818,101.366509 409.562643,102.090715 C409.885898,101.932724 410.117777,101.893472 410.154131,101.790435 C411.411779,98.2165093 413.224562,94.8780981 414.944985,91.5004346 C415.768352,89.8852009 416.648706,88.2925374 417.373819,86.6380514 C418.82994,83.3153411 420.609316,80.1466963 422.632361,77.1291729 C424.172981,74.8329112 426.04668,72.7505748 428.708375,71.4366028 C430.667556,70.470014 432.646387,70.2541262 434.686136,70.9106215 C436.038108,71.3463224 437.352743,71.9311822 438.612357,72.5788458 C440.145116,73.3658551 440.776888,74.8348738 441.24261,76.3245 C441.865539,78.3185187 441.922527,80.3792664 441.755495,82.4409953 C441.48628,85.7676308 441.217064,89.0952477 440.89774,92.4179579 C440.216841,99.491229 439.636161,106.577257 438.3736,113.585762 C437.053069,120.923986 435.677516,128.252397 434.309824,135.582771 C433.457963,140.151743 433.032524,144.742304 433.392133,149.383893 C433.526741,151.117864 433.869647,152.74193 435.083081,154.159921 C435.939854,155.160855 435.254042,156.740762 433.914843,156.892864 C431.474219,157.168612 429.080757,157.065575 427.025288,155.483706 C426.052576,154.734967 425.587835,153.729126 425.351044,152.629079 C424.718289,149.684173 424.383244,146.696089 424.537502,143.695248 C424.802787,138.562023 425.479756,133.468051 426.42987,128.406463 C427.266992,123.942491 428.136538,119.482444 428.870494,115.002771 C429.632943,110.354313 430.371812,105.697023 430.900417,101.02207 C431.632408,94.553285 432.165926,88.0638925 432.760361,81.5823505 C432.837982,80.7462757 432.771169,79.8984252 432.771169,78.4941729" id="Fill-44"></path>
                    <path d="M330.483282,23.137486 C329.486989,22.466271 329.432949,21.4987009 329.242337,20.5801963 C328.559473,17.295757 327.479664,14.1280935 326.0766,11.0605234 C325.897778,10.6689813 325.706183,10.2774393 325.475287,9.91239252 C323.796129,7.25304673 321.347645,5.87136449 318.071864,6.16281308 C316.565634,6.29725234 315.008311,6.5612243 313.620968,7.10683178 C310.785363,8.22159813 308.221922,9.79071028 306.041671,11.9083738 C299.408558,18.3516449 293.649904,25.4523925 288.563305,33.0477196 C285.954667,36.9425327 283.294937,40.8304766 281.041978,44.9137009 C274.505154,56.7669252 269.120847,69.0813645 265.617117,82.0846822 C264.07355,87.8145421 263.131296,93.6552897 262.325615,99.5156636 C261.49537,105.554636 261.082705,111.61814 261.272334,117.710103 C261.470807,124.068 262.170374,130.350336 264.453792,136.387346 C266.518104,141.848327 270.249783,145.978654 275.446425,148.943187 C279.39328,151.19529 283.705638,151.714402 288.183063,151.252206 C290.733731,150.989215 293.013219,149.863654 295.190523,148.690991 C299.352553,146.448701 303.155957,143.685336 306.477918,140.409729 C309.84704,137.088 313.039305,133.599449 316.261047,130.14328 C317.022514,129.326832 317.593368,128.347486 318.183873,127.535944 C319.609536,127.133607 320.879957,126.798 322.225051,127.272953 C323.634011,127.769495 324.258905,128.731178 323.681173,130.084402 C322.841103,132.052907 322.072758,134.062626 320.634323,135.766178 C318.323394,138.504028 315.858206,141.103514 313.259394,143.591131 C312.879152,143.955196 312.466486,144.291785 312.106877,144.672533 C307.805326,149.215991 302.380735,152.199168 296.665312,154.776084 C294.446742,155.775056 292.064088,156.269636 289.65687,156.532626 C283.298868,157.22543 277.118705,156.58071 271.22446,154.03814 C265.905,151.74286 261.732162,148.145383 258.631273,143.513607 C257.150588,141.301738 255.95877,138.863187 255.315207,136.241131 C255.051887,135.165617 254.616623,134.128374 254.256032,133.074449 C253.303953,130.287533 253.29904,127.375009 253.007226,124.500757 C252.763557,122.115196 252.446197,119.730617 252.338118,117.338187 C252.20744,114.437439 252.099361,111.520009 252.274253,108.62515 C252.531678,104.354495 252.677093,100.043607 253.685177,95.8661776 C254.349373,93.1106636 254.791515,90.3404299 255.218919,87.5574393 C255.231692,87.4720654 255.251342,87.3886542 255.272958,87.305243 C256.006914,84.588 256.757573,81.8756636 257.469913,79.153514 C257.881596,77.5814579 258.104632,75.9554299 258.637168,74.4245888 C259.452674,72.0812243 260.483356,69.8065514 261.381396,67.4877196 C262.465135,64.6900093 263.506625,61.8765981 264.567766,59.0700561 C264.719077,58.6706636 264.822244,58.2418318 265.046262,57.8816916 C266.376618,55.7365514 267.219636,53.3853364 268.251301,51.1136075 C268.855561,49.7829533 269.677946,48.5445421 270.311682,47.2246822 C272.480143,42.705757 275.028847,38.3713178 277.687594,34.1153832 C280.257913,30.0017383 283.178998,26.0814112 286.0372,22.1365514 C288.895403,18.1907103 291.835156,14.2968785 295.187575,10.7052897 C297.402216,8.33248598 299.763254,6.11276636 302.376805,4.13150467 C309.638742,-1.37461682 320.123403,-0.697514019 326.118849,3.32290654 C327.670276,4.36309346 329.200088,5.39641121 330.466579,6.7476729 C331.920735,8.3001028 333.065391,10.012486 333.574346,12.0771589 C333.902514,13.410757 334.321075,14.7237477 334.694439,16.0465514 C334.811361,16.4596822 334.944986,16.8718318 335.017694,17.2937944 C335.517806,20.2023925 334.993131,21.1375794 332.12412,22.4603832 C331.576847,22.7135607 331.006975,22.9225794 330.483282,23.137486" id="Fill-46"></path>
                    <path d="M360.159265,71.7338411 C360.703591,71.3128598 361.123135,70.9978598 361.530888,70.6701028 C362.404364,69.9665047 363.309281,69.7928131 364.506995,69.9527664 C366.129165,70.1706168 367.649151,70.5778598 369.175032,71.1028598 C371.156811,71.7848692 372.483237,73.0801963 373.433351,74.8141682 C375.084997,77.8258037 375.742315,81.0886542 376.18937,84.4152897 C377.052038,90.836972 376.695377,97.2203832 375.719717,103.606738 C374.523968,111.425804 372.661077,119.075103 369.739009,126.480056 C367.425132,132.342393 364.605249,137.975103 361.20272,143.332065 C358.692336,147.286738 355.271139,150.335664 351.103214,152.753607 C347.62503,154.771178 344.172392,154.712299 340.529142,153.560243 C340.359163,153.506271 340.192131,153.442486 340.02117,153.389495 C332.508685,151.081458 329.401901,145.443841 327.791521,138.680664 C327.712918,138.350944 327.701128,137.997673 327.720779,137.659121 C327.827875,135.783841 328.024383,133.911505 328.060737,132.036224 C328.127549,128.596738 328.99906,125.264215 329.439237,121.874776 C329.527666,121.197673 329.698627,120.529402 329.790986,119.852299 C330.426688,115.174402 331.537938,110.600523 332.988164,106.091411 C335.385556,98.6403364 338.255549,91.3600093 341.697379,84.2945888 C342.942255,81.7382804 344.43473,79.2879533 345.891833,76.8317383 C346.417491,75.9456168 347.153412,75.1684206 347.824485,74.364729 C349.801351,71.9968318 352.492522,70.9694019 355.562953,70.7299626 C356.168197,70.6818785 356.805864,70.8359439 357.409142,70.9743084 C358.27574,71.173514 359.12367,71.4433738 360.159265,71.7338411 M358.089058,77.6609439 C356.244834,78.2232336 355.335987,79.284028 354.550939,80.4154766 C353.562506,81.8403364 352.638921,83.3113178 351.772322,84.8068318 C349.64218,88.4788879 347.939442,92.3393551 346.303517,96.230243 C341.575545,107.480944 338.297798,119.082953 336.953687,131.151084 C336.611763,134.221598 336.563619,137.296037 337.348667,140.336131 C338.050199,143.053374 339.338306,145.470336 341.364299,147.493794 C342.800769,148.927486 344.224467,149.049168 345.902641,147.929495 C346.708322,147.391738 347.477649,146.788234 348.180164,146.13272 C350.305393,144.150477 352.159442,141.954308 353.639144,139.487299 C356.224201,135.17543 358.485021,130.710477 360.481538,126.126785 C362.098795,122.412533 363.315177,118.572673 364.466711,114.704355 C365.689971,110.589729 366.83168,106.467252 367.335722,102.209355 C367.48605,100.936598 367.481137,99.644215 367.684522,98.381271 C368.440094,93.6965047 368.445007,89.0195888 367.699261,84.3387477 C367.611815,83.7941215 367.433975,83.2622523 367.322949,82.8216449 C366.000453,83.0031869 364.858744,83.159215 363.727843,83.3142617 C362.683405,84.219028 361.96517,85.612486 360.148457,85.3063178 C359.914613,85.1188879 359.664066,84.864729 359.36341,84.6861308 C357.848336,83.7852897 357.519186,82.4772056 357.882725,80.9120187 C357.998664,80.4125327 358.150958,79.9130467 358.191242,79.4066916 C358.228578,78.9209439 358.14015,78.4263645 358.089058,77.6609439" id="Fill-48"></path>
                    <path d="M629.489589,147.886318 C630.141994,148.062953 630.644071,148.262159 631.164816,148.328888 C633.137752,148.579121 634.043652,149.907813 634.739288,151.460243 C635.000644,152.046084 634.965272,152.652533 634.647912,153.200103 C633.816685,154.63085 632.685784,155.516972 630.81405,155.583701 C628.473645,155.668093 626.369049,155.288327 624.483559,153.893888 C623.542287,153.19814 622.760187,152.422907 622.178525,151.424916 C620.665417,148.829355 619.897072,146.039495 619.649472,143.100477 C619.550236,141.923888 619.444122,140.74828 619.318357,139.306738 C618.817263,139.592299 618.495973,139.694355 618.29357,139.903374 C617.016271,141.222252 615.841156,142.637299 614.492131,143.884542 C610.63567,147.449636 605.948965,148.449589 600.790641,147.529121 C597.672066,146.97272 595.202949,145.259355 593.164183,142.987626 C592.212103,141.927813 591.580332,140.697252 591.395614,139.296925 C591.2276,138.023187 590.958385,136.742579 590.985896,135.469822 C591.078255,131.266879 591.494851,127.103187 593.024662,123.103374 C593.390166,122.150523 593.572918,121.131925 593.811675,120.136879 C595.384718,113.587626 598.206567,107.468187 601.108983,101.398794 C603.569258,96.2537944 606.548313,91.3551028 610.09724,86.8067383 C612.078036,84.2661308 614.126627,81.7814579 617.034939,80.0631869 C619.854823,78.3969252 622.738571,78.0858505 625.764788,79.325243 C626.99296,79.8286542 628.173971,80.4625794 629.307819,81.1416449 C630.792434,82.0307103 631.804448,83.3348692 632.508928,84.8598224 C633.529784,87.0726729 634.240159,89.3571589 634.310902,91.7957103 C634.322692,92.2186542 634.39933,92.6406168 634.454353,93.1450093 C635.042893,93.5139813 635.604904,93.9555701 636.241589,94.2470187 C637.890287,95.0026262 638.266599,96.3008972 638.067144,97.8729533 C638.024895,98.2105234 637.939414,98.5471121 637.830353,98.8709439 C636.244536,103.597907 634.689179,108.333701 633.046376,113.042019 C631.766129,116.71015 630.894618,120.461692 630.187191,124.260336 C629.277361,129.157065 628.566003,134.079308 628.441221,139.051598 C628.385216,141.266411 628.650502,143.493 628.8588,145.706832 C628.92856,146.44772 629.273431,147.166037 629.489589,147.886318 M624.84808,85.599729 C622.952765,86.1296355 621.490748,87.1364579 620.328406,88.4337477 C618.699358,90.2530935 617.156774,92.1558505 615.728164,94.1233738 C611.567116,99.8571589 608.43282,106.113981 605.708243,112.560196 C603.491638,117.806271 601.596322,123.162252 600.520443,128.738047 C600.066511,131.087299 599.813999,133.48071 599.620439,135.86529 C599.480918,137.577673 599.668583,139.308701 600.615749,140.839542 C601.575689,142.389028 602.615214,142.625523 604.210855,141.743327 C604.596993,141.529402 604.950706,141.260523 605.322106,141.021084 C607.837403,139.397019 609.510664,137.05071 611.231088,134.747579 C614.046059,130.97543 616.575112,127.025664 618.88211,122.962065 C621.059414,119.127112 623.048071,115.187159 623.985412,110.859589 C624.168164,110.014682 624.358776,109.204121 623.847857,108.384729 C622.97438,106.980477 622.934096,105.483 623.382134,103.939402 C623.502003,103.529215 623.53934,103.097439 623.627768,102.678421 C624.231046,99.8277196 624.930613,96.9927196 625.411074,94.1243551 C625.705836,92.3589813 625.736294,90.5445421 625.75398,88.7507103 C625.763805,87.7458505 625.726469,86.6850561 624.84808,85.599729" id="Fill-50"></path>
                    <path d="M672.63931,83.0207523 C672.0547,82.8843505 671.836576,83.3436028 671.642034,83.6792103 C670.772488,85.1747243 669.848902,86.6535561 669.133615,88.2167804 C666.3324,94.3401449 664.07944,100.624444 662.498537,107.159958 C660.866542,113.904491 658.727557,120.536173 656.911827,127.241453 C655.745554,131.548416 654.740418,135.895612 653.714649,140.235939 C653.499473,141.145612 653.550565,142.110238 653.410062,143.039537 C653.181131,144.550752 652.543464,145.020799 650.929154,145.203322 C648.752833,145.449631 646.884046,144.906967 645.166569,143.608696 C644.236106,142.905098 643.697675,142.093556 643.768418,140.995472 C643.840143,139.890519 643.960996,138.775752 644.207613,137.695332 C644.532833,136.27636 644.997573,134.886827 645.409256,133.487481 C647.033391,127.969584 648.516041,122.409491 650.334719,116.951453 C651.60907,113.128276 652.705582,109.26879 653.715631,105.384771 C654.707994,101.567481 655.537256,97.7109393 656.410732,93.8661729 C656.637699,92.864257 656.688791,91.8240701 656.949163,90.8319673 C657.280278,89.570986 657.745019,88.3796776 659.355398,88.047014 C659.97538,87.9184626 660.326146,87.4160327 660.574728,86.7958458 C661.79111,83.7694907 663.390681,80.9129019 665.160232,78.1564065 C665.850956,77.0808925 666.771594,76.0878084 667.76887,75.2546776 C670.385368,73.0673411 673.530472,72.9466402 676.41815,74.7836495 C677.014551,75.1634159 677.615864,75.5422009 678.178858,75.9641636 C679.562271,76.9984626 680.507473,78.3065467 680.969266,79.9463131 C681.487063,81.7872477 681.688483,83.6635093 681.577457,85.5476215 C681.351473,89.3904252 681.114681,93.2361729 680.717736,97.0652383 C680.170462,102.342715 679.501354,107.609397 678.827333,112.874117 C678.186719,117.883696 677.437042,122.8815 676.804288,127.892061 C676.364111,131.373743 676.105703,134.877014 675.644893,138.355752 C675.239105,141.418416 674.924693,144.476173 675.023929,147.566313 C675.103515,150.046079 675.140851,152.526827 675.222402,155.006593 C675.273494,156.565893 675.476879,158.089864 676.694244,159.291967 C676.755161,159.351827 676.795445,159.433276 676.840642,159.506874 C677.852656,161.173136 676.974267,162.706921 674.921745,162.555799 C670.232092,162.210379 668.125531,160.86893 667.051617,156.907388 C666.718537,155.67879 666.621266,154.384444 666.510239,153.112668 C666.399212,151.834023 666.450304,150.542621 666.349103,149.262995 C666.064167,145.6665 666.330434,142.110238 666.833494,138.535332 C667.548781,133.44921 668.008609,128.330706 668.625643,123.230846 C669.241694,118.131967 669.918663,113.038977 670.56419,107.942061 C670.994542,104.544771 671.432753,101.1465 671.835594,97.7462664 C672.168674,94.9397243 672.512563,92.1331822 672.740511,89.3187897 C672.8987,87.3581355 672.872171,85.3847243 672.907543,83.4162196 C672.91049,83.2886495 672.736581,83.1571542 672.63931,83.0207523" id="Fill-52"></path>
                    <path d="M542.394782,93.8159299 C543.284962,92.2811636 544.775471,91.922986 546.305283,91.8150421 C550.45454,91.5226121 554.421045,90.4333598 558.406219,89.415743 C558.831658,89.3068178 559.230568,89.1027056 559.611793,88.9555093 C560.57861,87.1067243 560.925446,85.149014 561.320426,83.2315374 C562.90919,75.5135467 564.463565,67.7867243 565.91379,60.0442009 C566.986722,54.3153224 567.801246,48.5432664 568.875159,42.8143879 C569.743723,38.1865374 570.546456,33.5361168 572.031071,29.0319112 C572.192207,28.5422383 572.338605,28.0476589 572.512515,27.5619112 C572.77387,26.8298551 573.36241,26.4942477 574.132719,26.402986 C574.39997,26.3706028 574.677045,26.310743 574.937418,26.3460701 C577.362321,26.6718645 579.280235,27.8759299 580.865069,29.5814439 C581.512561,30.2781729 581.502736,31.1535 581.226643,32.019014 C580.756007,33.4919579 580.169432,34.9413505 579.829474,36.441771 C578.82532,40.8704159 577.870293,45.3098551 576.984044,49.7610701 C575.612421,56.655743 574.346913,63.5690607 572.973325,70.4637336 C572.035984,75.1691075 570.983686,79.8538738 570.009008,84.5533598 C569.893069,85.1117243 569.9363,85.7014907 569.894051,86.5110701 C571.207704,86.2735935 572.323867,86.0999019 573.425292,85.8663505 C576.581204,85.1980794 579.733185,84.5278458 582.958857,84.2128458 C584.862033,84.0273785 586.723942,84.140229 588.567183,84.5985 C590.086186,84.977285 591.305516,85.8604626 592.492421,86.777986 C592.759672,86.9840607 592.953232,87.302986 593.118298,87.6013037 C593.523104,88.3333598 593.159565,89.2646215 592.315565,89.4638271 C591.363485,89.6885467 590.380948,89.8563505 589.40234,89.9093411 C584.429716,90.1772383 579.680128,91.4666776 574.909907,92.6844813 C572.65793,93.2605093 570.391215,93.7835467 568.016421,94.3576121 C567.772752,94.9964439 567.465218,95.610743 567.303099,96.2574252 C565.451998,103.673173 563.926116,111.154668 563.131243,118.737238 C562.579057,124.009808 562.111369,129.31378 562.78146,134.625603 C563.005478,136.406678 563.174475,138.19364 563.360175,139.97864 C563.530154,141.606631 562.910172,142.313173 561.23691,142.652706 C559.01834,143.103126 557.223243,142.12378 555.442885,141.159154 C555.052817,140.948173 554.770829,140.354481 554.67454,139.892285 C554.429888,138.719621 554.224538,137.525369 554.171481,136.334061 C554.011327,132.754248 553.807942,129.169528 553.861981,125.590696 C553.904231,122.776304 554.324757,119.967799 554.537967,117.153407 C554.764934,114.161397 555.153036,111.191958 555.753367,108.247051 C556.351732,105.309014 556.93536,102.369014 557.528813,99.4309766 C557.578922,99.1787804 557.649665,98.929528 557.723355,98.6832196 C558.158619,97.2338271 557.340165,96.9335467 556.235793,97.1563037 C554.570391,97.4919112 552.873548,97.7019112 551.180636,97.8932664 C548.866759,98.1542944 546.739565,97.5812103 544.748943,96.4576121 C543.713348,95.8727523 542.855593,95.1603224 542.394782,93.8159299" id="Fill-54"></path>
                    <path d="M494.185483,148.950449 C495.928505,148.155589 497.059406,146.850449 498.098931,145.454047 C500.298833,142.500308 501.742181,139.175636 503.260202,135.88629 C506.314912,129.269327 508.091341,122.28928 509.710563,115.266056 C510.345282,112.514467 510.925962,109.750121 511.465376,106.979888 C511.760137,105.471617 511.936994,103.939794 512.131536,102.414841 C512.683722,98.0794206 513.128812,93.7361495 512.933287,89.3575514 C512.902828,88.6735794 512.999117,87.943486 512.780011,87.3164299 C512.318218,85.9916636 512.652281,84.8229252 513.311564,83.5040467 C513.753706,83.5266168 514.293119,83.4530187 514.762773,83.5933458 C516.672826,84.1674112 518.39718,85.0348879 519.633213,86.6216636 C520.401557,87.6088598 520.883983,88.6618037 520.979289,89.9119907 C521.147303,92.1268037 521.276016,94.322972 521.223941,96.5593738 C521.048067,104.045776 519.621422,111.356523 518.126982,118.656477 C516.905688,124.618907 515.155788,130.463579 512.994204,136.180682 C511.469306,140.209935 509.608379,144.105729 507.176598,147.723813 C506.502577,148.72671 505.707704,149.665822 504.890232,150.570589 C502.429958,153.291757 499.24457,154.230869 495.536472,154.259327 C490.057841,154.303486 486.489264,151.498907 483.592742,147.512832 C481.695462,144.90157 481.086288,141.878159 480.55277,138.830215 C479.669469,133.79414 480.02613,128.785542 480.888798,123.785776 C480.946768,123.448206 480.996877,123.108673 481.029301,122.768159 C481.556924,117.235542 482.6161,111.770636 483.308789,106.262551 C483.85508,101.920262 484.69515,97.6574579 485.907601,93.4515701 C486.619941,90.9776916 487.375513,88.5155888 488.117329,86.0495607 C488.191019,85.805215 488.300081,85.5687196 488.403247,85.3322243 C489.605874,82.5570841 492.516151,81.589514 495.220095,83.1448879 C496.13189,83.6689065 496.942484,84.3823178 497.711811,85.0947477 C498.487033,85.8120841 498.481138,86.4832991 497.936812,87.3910093 C497.49467,88.1289533 496.990628,88.8541402 496.692919,89.6460561 C495.271187,93.4358692 494.092142,97.2914299 493.455457,101.283393 C493.294321,102.298065 493.102726,103.310776 492.850214,104.307785 C491.499224,109.63629 490.636556,115.048206 489.880984,120.471897 C489.029124,126.590355 488.704887,132.746103 489.150959,138.910682 C489.349431,141.652458 489.883932,144.356944 491.671168,146.652224 C492.096607,147.198813 492.575103,147.715963 493.080128,148.197785 C493.385697,148.489234 493.78952,148.686477 494.185483,148.950449" id="Fill-56"></path>
                    <path d="M728.850692,119.612369 C729.305607,120.34835 729.762488,120.967556 730.087708,121.644659 C730.497426,122.499379 730.426683,123.375687 730.056266,124.26279 C729.110082,126.524706 727.628415,128.467696 725.980699,130.272322 C722.55459,134.026808 718.732518,137.399565 714.669724,140.526995 C712.713491,142.032322 710.79656,143.58279 708.856047,145.107743 C706.797631,146.725921 704.466068,147.851481 701.792583,147.982977 C698.835144,148.12821 695.881635,148.001621 693.175726,146.554192 C688.107796,143.842836 684.89981,139.859706 683.687358,134.396762 C682.836481,130.565734 682.876765,126.740593 683.47906,122.907603 C684.534306,116.198397 686.494469,109.702136 688.953761,103.356995 C691.161524,97.6614813 693.717105,92.0994252 696.651945,86.699285 C698.639619,83.0419486 700.820853,79.5151262 703.39412,76.1983037 C705.28747,73.7558271 707.675037,71.8128364 710.08815,69.8973224 C711.78401,68.5490047 713.858148,67.8964346 716.026609,67.6589579 C718.186227,67.4234439 720.077612,68.311528 721.868779,69.3173692 C725.260499,71.2220888 727.256034,74.0286308 727.647084,77.8076495 C727.726669,78.5730701 727.880928,79.339472 727.867172,80.1039112 C727.815098,83.0066215 727.75025,85.9103131 727.605817,88.8100794 C727.517389,90.5725093 726.878739,91.0405935 725.057114,90.9974159 C723.904597,90.9689579 722.977081,90.4959673 722.238213,89.7050327 C720.953053,88.3302196 720.029468,86.766014 720.007852,84.8750327 C719.986236,82.9948458 720.015712,81.108771 720.132634,79.2325093 C720.22401,77.764472 720.059926,76.3621822 719.659051,74.8990514 C718.164611,74.9186776 717.116243,75.4976495 716.11995,76.2522757 C713.062292,78.5691449 710.634441,81.423771 708.419801,84.4520888 C705.68638,88.1889112 703.550343,92.2466215 701.530245,96.359285 C697.979354,103.588584 695.207614,111.088724 693.20815,118.835173 C692.134236,122.997883 691.301044,127.220453 691.859125,131.542136 C692.089039,133.320266 692.482054,135.08564 692.921249,136.829425 C693.326054,138.431902 694.235885,139.830266 695.301938,141.112836 C696.431857,142.471949 697.504788,142.784005 699.078814,142.057836 C700.690176,141.314005 702.346734,140.559379 703.747833,139.521154 C707.640648,136.633164 711.615014,133.838397 715.160993,130.53335 C716.693752,129.104565 718.399437,127.858304 719.812327,126.285266 C720.613095,125.394238 721.83046,124.857463 722.753063,124.048864 C724.008746,122.948818 725.22611,121.79578 726.334413,120.562276 C726.991731,119.831201 727.699158,119.521107 728.850692,119.612369" id="Fill-58"></path>
                    <path d="M521.162238,141.447266 C521.40296,138.031332 521.568026,134.608528 521.903071,131.201425 C522.31279,127.030864 522.795216,122.864229 523.375896,118.712313 C523.860287,115.248294 524.478303,111.798014 525.130708,108.358528 C526.007132,103.742453 526.946438,99.1371729 527.908343,94.5367991 C528.715006,90.6851636 529.611081,86.849229 530.43543,82.9995561 C532.355309,74.0333411 534.371477,65.0828271 536.126289,56.0861916 C537.422257,49.443715 538.35272,42.736472 539.477726,36.0635748 C540.119323,32.261986 540.831663,28.4702103 541.495858,24.6715654 C541.61278,23.9983879 541.731668,23.308528 541.704156,22.6324065 C541.654047,21.405771 543.096413,20.5922664 544.166396,20.9367056 C546.037148,21.5382477 547.884319,22.2771729 549.322755,23.6196028 C550.244375,24.4802103 550.771016,25.5449299 550.460534,26.8746028 C550.011514,28.7950234 549.58018,30.7213318 549.246117,32.6623598 C548.520021,36.8849299 547.886285,41.1222196 547.167067,45.345771 C546.346648,50.1610514 545.654941,55.0038084 544.590853,59.7710047 C541.861363,71.9912383 538.928487,84.1692757 536.132184,96.3767523 C534.52377,103.398014 532.910443,110.420257 531.86404,117.548481 C530.88052,124.24493 529.918615,130.934509 529.585535,137.702593 C529.442084,140.616098 529.512827,143.508014 529.610098,146.411706 C529.652347,147.694276 529.689684,148.989603 529.559989,150.263341 C529.39001,151.926659 528.539132,152.689136 526.814778,152.912874 C526.195779,152.993341 525.55713,153.003154 524.933218,152.963902 C523.518364,152.875584 522.598708,152.168061 522.210606,150.889416 C522.036697,150.31535 521.885386,149.726565 521.816608,149.133855 C521.629926,147.51764 521.461912,145.8975 521.347938,144.274416 C521.282108,143.337266 521.336147,142.392266 521.336147,141.451192 L521.162238,141.447266 Z" id="Fill-60"></path>
                    <path d="M445.860735,129.022822 C446.799058,129.140579 447.594914,129.327028 448.389787,129.322121 C449.755515,129.31329 450.624078,130.004131 451.130085,131.065907 C452.020264,132.929411 452.875072,134.816467 453.579552,136.748664 C454.317438,138.775065 455.059254,140.786748 456.287426,142.593336 C456.724656,143.235112 457.244418,143.837636 457.797587,144.393056 C458.502067,145.101561 459.369647,145.155533 460.266705,144.721794 C461.928176,143.918103 463.099361,142.631607 464.027859,141.138056 C466.525471,137.117636 467.195561,132.864645 465.978197,128.296654 C464.710723,123.544178 462.839971,119.017402 460.700004,114.580907 C458.821391,110.687075 456.576292,106.980673 454.242765,103.324318 C452.512516,100.613944 450.94242,97.8280093 449.732916,94.8713271 C448.717955,92.3925421 447.990877,89.8431028 447.754085,87.1719813 C447.491748,84.2084299 447.932907,81.3528224 449.228875,78.6640374 C450.815673,75.3717477 452.907496,72.3522617 455.667445,69.8617009 C458.796828,67.0374953 462.445973,65.0876355 466.9008,64.8609533 C472.30181,64.5861869 480.372376,68.4888505 481.50819,75.7946916 C481.860921,78.0674019 481.941489,80.3950654 481.933629,82.6962336 C481.926751,84.8511869 479.157959,86.1700654 477.241028,84.9071215 C475.366346,83.6706729 473.825727,82.1025421 473.800181,79.6836168 C473.789373,78.6561869 473.79232,77.6189439 473.635114,76.607215 C473.438607,75.3452523 473.158583,74.084271 472.773429,72.8635234 C472.449191,71.8341308 471.860651,71.513243 470.749401,71.5534766 C468.408996,71.6368879 466.377107,72.5387103 464.637033,73.9488505 C461.286579,76.6631495 458.803706,79.9878224 457.422258,83.9935234 C456.528148,86.5841776 456.649,89.1974019 457.359375,91.8273084 C458.537438,96.1921682 460.692143,100.121327 463.117047,103.942542 C466.748507,109.665533 470.018393,115.565159 472.412837,121.867121 C473.390462,124.439131 474.364157,127.031748 475.042108,129.685206 C476.608274,135.813477 475.176716,141.386327 471.131608,146.348804 C470.643287,146.948383 470.006602,147.46357 469.360092,147.915953 C466.845778,149.676421 464.013121,150.84614 460.907319,150.896187 C456.12236,150.972729 452.224632,149.003243 449.318285,145.394972 C447.380721,142.989785 445.962919,140.349084 445.756586,137.21871 C445.638681,135.429785 445.303636,133.653617 445.1425,131.865673 C445.035403,130.671421 445.098285,130.657682 445.860735,129.022822" id="Fill-62"></path>
                    <path d="M700.922054,166.851575 C701.309174,166.680827 701.696294,166.510079 702.084397,166.339332 L702.002846,166.281435 C702.007759,166.478678 702.012671,166.674939 702.017584,166.871201 L702.080467,166.825079 C701.690399,166.816248 701.300332,166.808397 700.910264,166.800547 L700.922054,166.851575 Z" id="Fill-64"></path>
                </g>
            </g>
        </g>
    </g>
</svg>