<?xml version="1.0" encoding="UTF-8" standalone="no"?>
<svg width="786px" height="99px" viewBox="0 0 786 99" version="1.1" xmlns="http://www.w3.org/2000/svg" xmlns:xlink="http://www.w3.org/1999/xlink">
    <!-- Generator: Sketch 40 (33762) - http://www.bohemiancoding.com/sketch -->
    <title>Page 1</title>
    <desc>Created with Sketch.</desc>
    <defs></defs>
    <g id="Page-1" stroke="none" stroke-width="1" fill="none" fill-rule="evenodd">
        <g id="Desktop-HD" transform="translate(-441.000000, -5984.000000)" fill="#000222">
            <g id="Page-1" transform="translate(441.000000, 5983.000000)">
                <polygon id="Fill-1" points="21.2921798 17.0281264 21.2921798 45.521485 9.5256571 45.521485 9.5256571 17.0281264 -0.000416440373 17.0281264 -0.000416440373 83.545266 9.5256571 83.545266 9.5256571 53.9311713 21.2921798 53.9311713 21.2921798 83.545266 30.8182534 83.545266 30.8182534 17.0281264"></polygon>
                <g id="Group-44" transform="translate(0.000000, 0.649110)">
                    <path d="M48.7466361,67.2018937 C48.7466361,69.5058603 49.3837899,71.2057127 50.6601796,72.2931182 C51.9344872,73.3826069 53.4461657,73.9283929 55.1889687,73.9283929 C56.9317717,73.9283929 58.441368,73.3826069 59.71984,72.2931182 C60.9941475,71.2057127 61.6313013,69.5058603 61.6313013,67.2018937 L61.6313013,32.0736946 C61.6313013,29.7697281 60.9941475,28.0719589 59.71984,26.9824701 C58.441368,25.8929814 56.9317717,25.3471955 55.1889687,25.3471955 C53.4461657,25.3471955 51.9344872,25.8929814 50.6601796,26.9824701 C49.3837899,28.0719589 48.7466361,29.7697281 48.7466361,32.0736946 L48.7466361,67.2018937 Z M39.2226448,32.0736946 C39.2226448,29.3968438 39.6869758,27.0282995 40.6218844,24.9743112 C41.5547109,22.9182398 42.78321,21.2204706 44.3115461,19.8830867 C45.8357179,18.5436197 47.5472878,17.5312077 49.4462559,16.8458505 C51.345224,16.1604934 53.2587676,15.8188564 55.1889687,15.8188564 C57.1170876,15.8188564 59.0327133,16.1604934 60.9337636,16.8458505 C62.8306495,17.5312077 64.5422195,18.5436197 66.0684734,19.8830867 C67.5947274,21.2204706 68.8232265,22.9182398 69.7581352,24.9743112 C70.6909616,27.0282995 71.1573748,29.3968438 71.1573748,32.0736946 L71.1573748,67.2018937 C71.1573748,69.9433223 70.6909616,72.3264487 69.7581352,74.3491896 C68.8232265,76.3740138 67.5947274,78.0551178 66.0684734,79.3945848 C64.5422195,80.7340518 62.8306495,81.7464639 60.9337636,82.4297378 C59.0327133,83.1130118 57.1170876,83.4588151 55.1889687,83.4588151 C53.2587676,83.4588151 51.345224,83.1130118 49.4462559,82.4297378 C47.5472878,81.7464639 45.8357179,80.7340518 44.3115461,79.3945848 C42.78321,78.0551178 41.5547109,76.3740138 40.6218844,74.3491896 C39.6869758,72.3264487 39.2226448,69.9433223 39.2226448,67.2018937 L39.2226448,32.0736946 Z" id="Fill-2"></path>
                    <path d="M110.377521,67.6685199 C110.377521,69.8495804 109.971492,71.8723214 109.163597,73.7409091 C108.353621,75.6094969 107.250054,77.2447715 105.848732,78.6467331 C104.44741,80.0486946 102.812882,81.1548486 100.947229,81.9631117 C99.0774114,82.7713748 97.0847442,83.1775896 94.9692271,83.1775896 C92.8516278,83.1775896 90.8610429,82.7713748 88.9912256,81.9631117 C87.1255727,81.1548486 85.4910442,80.0486946 84.0897224,78.6467331 C82.6884005,77.2447715 81.5827513,75.6094969 80.774857,73.7409091 C79.9648805,71.8723214 79.5609333,69.8495804 79.5609333,67.6685199 L79.5609333,16.0979988 L89.0849247,16.0979988 L89.0849247,66.7331844 C89.0849247,69.1017287 89.6471192,70.8453273 90.7673438,71.9660633 C91.8875684,73.0867993 93.2888902,73.6492504 94.9692271,73.6492504 C96.649564,73.6492504 98.0508859,73.0867993 99.1711105,71.9660633 C100.291335,70.8453273 100.85353,69.1017287 100.85353,66.7331844 L100.85353,16.0979988 L110.377521,16.0979988 L110.377521,67.6685199 Z" id="Fill-4"></path>
                    <path d="M150.158612,35.5302694 L140.634621,35.5302694 L140.634621,33.3804561 C140.634621,31.2035619 140.120317,29.3183089 139.091709,27.7309468 C138.065184,26.1415015 136.336956,25.3478205 133.909109,25.3478205 C132.601486,25.3478205 131.529152,25.5957156 130.687943,26.0956722 C129.846733,26.5935456 129.195004,27.2330734 128.726508,28.0100892 C128.260095,28.7891882 127.93319,29.6911932 127.745791,30.7181874 C127.558393,31.7472647 127.466776,32.8221713 127.466776,33.9429073 C127.466776,35.251127 127.512585,36.3572809 127.606284,37.2592859 C127.699983,38.1612909 127.93319,38.9403899 128.307986,39.5944998 C128.6807,40.2486096 129.224155,40.8256429 129.940432,41.3235163 C130.654627,41.8213897 131.635344,42.3192631 132.882583,42.8192197 L140.166126,45.7148016 C142.281643,46.5251479 143.995295,47.4750653 145.302918,48.5624709 C146.608458,49.6540428 147.620408,50.9310152 148.338768,52.3933882 C149.052963,53.8578443 149.533952,55.5410315 149.785898,57.4387833 C150.03368,59.3386183 150.158612,61.5030137 150.158612,63.9319694 C150.158612,66.7338094 149.877515,69.3356667 149.317403,71.7333752 C148.75729,74.1310836 147.839039,76.187155 146.56265,77.8995063 C145.28626,79.6118576 143.589265,80.9679898 141.473748,81.9616535 C139.356149,82.9594835 136.772136,83.4573569 133.721711,83.4573569 C131.418795,83.4573569 129.269963,83.0532254 127.279378,82.2428791 C125.286711,81.4346159 123.575141,80.328462 122.142586,78.9265004 C120.710031,77.5245389 119.575231,75.8601001 118.734022,73.9290178 C117.894894,71.9979355 117.47429,69.9106168 117.47429,67.6691448 L117.47429,64.11737 L127.000363,64.11737 L127.000363,67.1087768 C127.000363,68.8523754 127.512585,70.4251554 128.53911,71.827117 C129.567718,73.2269954 131.293863,73.9290178 133.721711,73.9290178 C135.341664,73.9290178 136.601396,73.6957047 137.505072,73.2269954 C138.406665,72.7603693 139.091709,72.1083426 139.560205,71.266749 C140.026618,70.4251554 140.320208,69.3835792 140.447223,68.135771 C140.570073,66.892129 140.634621,65.5193315 140.634621,64.0257112 C140.634621,62.2821127 140.570073,60.8489038 140.447223,59.7281678 C140.320208,58.6074318 140.057851,57.7054268 139.653904,57.0179865 C139.247874,56.3347125 138.687762,55.7722614 137.971485,55.3368825 C137.255207,54.9015037 136.305723,54.4348776 135.123033,53.934921 L128.307986,51.133081 C124.197719,49.451977 121.442966,47.2250871 120.041644,44.4524112 C118.640323,41.6818185 117.942785,38.2092034 117.942785,34.0366492 C117.942785,31.5451989 118.282184,29.1787377 118.969311,26.9351826 C119.652273,24.6937106 120.664223,22.7626283 122.003079,21.1440189 C123.341934,19.5254095 125.036847,18.233855 127.09198,17.2651891 C129.147113,16.3006895 131.543728,15.8173982 134.283905,15.8173982 C136.647204,15.8173982 138.812694,16.2548602 140.774128,17.1256179 C142.73348,17.9984587 144.4159,19.150442 145.817221,20.5815677 C147.216461,22.0168597 148.290877,23.618804 149.036305,25.3936498 C149.785898,27.1684957 150.158612,28.991254 150.158612,30.8598417 L150.158612,35.5302694 Z" id="Fill-6"></path>
                    <polygon id="Fill-8" points="157.25434 16.3790161 185.64308 16.3790161 185.64308 25.3469872 166.778331 25.3469872 166.778331 44.8723747 183.215233 44.8723747 183.215233 53.842429 166.778331 53.842429 166.778331 73.3678165 185.64308 73.3678165 185.64308 82.8961557 157.25434 82.8961557"></polygon>
                    <path d="M211.297889,67.2018937 C211.297889,69.5058603 211.935043,71.2057127 213.211433,72.2931182 C214.48574,73.3826069 215.997419,73.9283929 217.740222,73.9283929 C219.483025,73.9283929 220.992621,73.3826069 222.271093,72.2931182 C223.545401,71.2057127 224.182554,69.5058603 224.182554,67.2018937 L224.182554,32.0736946 C224.182554,29.7697281 223.545401,28.0719589 222.271093,26.9824701 C220.992621,25.8929814 219.483025,25.3471955 217.740222,25.3471955 C215.997419,25.3471955 214.48574,25.8929814 213.211433,26.9824701 C211.935043,28.0719589 211.297889,29.7697281 211.297889,32.0736946 L211.297889,67.2018937 Z M201.773898,32.0736946 C201.773898,29.3968438 202.238229,27.0282995 203.173138,24.9743112 C204.105964,22.9182398 205.334463,21.2204706 206.862799,19.8830867 C208.386971,18.5436197 210.098541,17.5312077 211.997509,16.8458505 C213.896477,16.1604934 215.810021,15.8188564 217.740222,15.8188564 C219.668341,15.8188564 221.583966,16.1604934 223.485017,16.8458505 C225.381903,17.5312077 227.093473,18.5436197 228.619727,19.8830867 C230.145981,21.2204706 231.37448,22.9182398 232.309388,24.9743112 C233.242215,27.0282995 233.708628,29.3968438 233.708628,32.0736946 L233.708628,67.2018937 C233.708628,69.9433223 233.242215,72.3264487 232.309388,74.3491896 C231.37448,76.3740138 230.145981,78.0551178 228.619727,79.3945848 C227.093473,80.7340518 225.381903,81.7464639 223.485017,82.4297378 C221.583966,83.1130118 219.668341,83.4588151 217.740222,83.4588151 C215.810021,83.4588151 213.896477,83.1130118 211.997509,82.4297378 C210.098541,81.7464639 208.386971,80.7340518 206.862799,79.3945848 C205.334463,78.0551178 204.105964,76.3740138 203.173138,74.3491896 C202.238229,72.3264487 201.773898,69.9433223 201.773898,67.2018937 L201.773898,32.0736946 Z" id="Fill-10"></path>
                    <polygon id="Fill-12" points="242.113436 16.3790161 270.502176 16.3790161 270.502176 25.3469872 251.637427 25.3469872 251.637427 45.5264846 268.074329 45.5264846 268.074329 54.4965389 251.637427 54.4965389 251.637427 82.8961557 242.113436 82.8961557"></polygon>
                    <polygon id="Fill-14" points="0 16.3790161 9.52399134 16.3790161 9.52399134 44.8723747 21.2925963 44.8723747 21.2925963 16.3790161 30.8165876 16.3790161 30.8165876 82.8961557 21.2925963 82.8961557 21.2925963 53.2799779 9.52399134 53.2799779 9.52399134 82.8961557 0 82.8961557"></polygon>
                    <path d="M48.7466361,67.2018937 C48.7466361,69.5058603 49.3837899,71.2057127 50.6601796,72.2931182 C51.9344872,73.3826069 53.4461657,73.9283929 55.1889687,73.9283929 C56.9317717,73.9283929 58.441368,73.3826069 59.71984,72.2931182 C60.9941475,71.2057127 61.6313013,69.5058603 61.6313013,67.2018937 L61.6313013,32.0736946 C61.6313013,29.7697281 60.9941475,28.0719589 59.71984,26.9824701 C58.441368,25.8929814 56.9317717,25.3471955 55.1889687,25.3471955 C53.4461657,25.3471955 51.9344872,25.8929814 50.6601796,26.9824701 C49.3837899,28.0719589 48.7466361,29.7697281 48.7466361,32.0736946 L48.7466361,67.2018937 Z M39.2226448,32.0736946 C39.2226448,29.3968438 39.6869758,27.0282995 40.6218844,24.9743112 C41.5547109,22.9182398 42.78321,21.2204706 44.3115461,19.8830867 C45.8357179,18.5436197 47.5472878,17.5312077 49.4462559,16.8458505 C51.345224,16.1604934 53.2587676,15.8188564 55.1889687,15.8188564 C57.1170876,15.8188564 59.0327133,16.1604934 60.9337636,16.8458505 C62.8306495,17.5312077 64.5422195,18.5436197 66.0684734,19.8830867 C67.5947274,21.2204706 68.8232265,22.9182398 69.7581352,24.9743112 C70.6909616,27.0282995 71.1573748,29.3968438 71.1573748,32.0736946 L71.1573748,67.2018937 C71.1573748,69.9433223 70.6909616,72.3264487 69.7581352,74.3491896 C68.8232265,76.3740138 67.5947274,78.0551178 66.0684734,79.3945848 C64.5422195,80.7340518 62.8306495,81.7464639 60.9337636,82.4297378 C59.0327133,83.1130118 57.1170876,83.4588151 55.1889687,83.4588151 C53.2587676,83.4588151 51.345224,83.1130118 49.4462559,82.4297378 C47.5472878,81.7464639 45.8357179,80.7340518 44.3115461,79.3945848 C42.78321,78.0551178 41.5547109,76.3740138 40.6218844,74.3491896 C39.6869758,72.3264487 39.2226448,69.9433223 39.2226448,67.2018937 L39.2226448,32.0736946 Z" id="Fill-16"></path>
                    <path d="M110.377521,67.6685199 C110.377521,69.8495804 109.971492,71.8723214 109.163597,73.7409091 C108.353621,75.6094969 107.250054,77.2447715 105.848732,78.6467331 C104.44741,80.0486946 102.812882,81.1548486 100.947229,81.9631117 C99.0774114,82.7713748 97.0847442,83.1775896 94.9692271,83.1775896 C92.8516278,83.1775896 90.8610429,82.7713748 88.9912256,81.9631117 C87.1255727,81.1548486 85.4910442,80.0486946 84.0897224,78.6467331 C82.6884005,77.2447715 81.5827513,75.6094969 80.774857,73.7409091 C79.9648805,71.8723214 79.5609333,69.8495804 79.5609333,67.6685199 L79.5609333,16.0979988 L89.0849247,16.0979988 L89.0849247,66.7331844 C89.0849247,69.1017287 89.6471192,70.8453273 90.7673438,71.9660633 C91.8875684,73.0867993 93.2888902,73.6492504 94.9692271,73.6492504 C96.649564,73.6492504 98.0508859,73.0867993 99.1711105,71.9660633 C100.291335,70.8453273 100.85353,69.1017287 100.85353,66.7331844 L100.85353,16.0979988 L110.377521,16.0979988 L110.377521,67.6685199 Z" id="Fill-18"></path>
                    <path d="M150.158612,35.5302694 L140.634621,35.5302694 L140.634621,33.3804561 C140.634621,31.2035619 140.120317,29.3183089 139.091709,27.7309468 C138.065184,26.1415015 136.336956,25.3478205 133.909109,25.3478205 C132.601486,25.3478205 131.529152,25.5957156 130.687943,26.0956722 C129.846733,26.5935456 129.195004,27.2330734 128.726508,28.0100892 C128.260095,28.7891882 127.93319,29.6911932 127.745791,30.7181874 C127.558393,31.7472647 127.466776,32.8221713 127.466776,33.9429073 C127.466776,35.251127 127.512585,36.3572809 127.606284,37.2592859 C127.699983,38.1612909 127.93319,38.9403899 128.307986,39.5944998 C128.6807,40.2486096 129.224155,40.8256429 129.940432,41.3235163 C130.654627,41.8213897 131.635344,42.3192631 132.882583,42.8192197 L140.166126,45.7148016 C142.281643,46.5251479 143.995295,47.4750653 145.302918,48.5624709 C146.608458,49.6540428 147.620408,50.9310152 148.338768,52.3933882 C149.052963,53.8578443 149.533952,55.5410315 149.785898,57.4387833 C150.03368,59.3386183 150.158612,61.5030137 150.158612,63.9319694 C150.158612,66.7338094 149.877515,69.3356667 149.317403,71.7333752 C148.75729,74.1310836 147.839039,76.187155 146.56265,77.8995063 C145.28626,79.6118576 143.589265,80.9679898 141.473748,81.9616535 C139.356149,82.9594835 136.772136,83.4573569 133.721711,83.4573569 C131.418795,83.4573569 129.269963,83.0532254 127.279378,82.2428791 C125.286711,81.4346159 123.575141,80.328462 122.142586,78.9265004 C120.710031,77.5245389 119.575231,75.8601001 118.734022,73.9290178 C117.894894,71.9979355 117.47429,69.9106168 117.47429,67.6691448 L117.47429,64.11737 L127.000363,64.11737 L127.000363,67.1087768 C127.000363,68.8523754 127.512585,70.4251554 128.53911,71.827117 C129.567718,73.2269954 131.293863,73.9290178 133.721711,73.9290178 C135.341664,73.9290178 136.601396,73.6957047 137.505072,73.2269954 C138.406665,72.7603693 139.091709,72.1083426 139.560205,71.266749 C140.026618,70.4251554 140.320208,69.3835792 140.447223,68.135771 C140.570073,66.892129 140.634621,65.5193315 140.634621,64.0257112 C140.634621,62.2821127 140.570073,60.8489038 140.447223,59.7281678 C140.320208,58.6074318 140.057851,57.7054268 139.653904,57.0179865 C139.247874,56.3347125 138.687762,55.7722614 137.971485,55.3368825 C137.255207,54.9015037 136.305723,54.4348776 135.123033,53.934921 L128.307986,51.133081 C124.197719,49.451977 121.442966,47.2250871 120.041644,44.4524112 C118.640323,41.6818185 117.942785,38.2092034 117.942785,34.0366492 C117.942785,31.5451989 118.282184,29.1787377 118.969311,26.9351826 C119.652273,24.6937106 120.664223,22.7626283 122.003079,21.1440189 C123.341934,19.5254095 125.036847,18.233855 127.09198,17.2651891 C129.147113,16.3006895 131.543728,15.8173982 134.283905,15.8173982 C136.647204,15.8173982 138.812694,16.2548602 140.774128,17.1256179 C142.73348,17.9984587 144.4159,19.150442 145.817221,20.5815677 C147.216461,22.0168597 148.290877,23.618804 149.036305,25.3936498 C149.785898,27.1684957 150.158612,28.991254 150.158612,30.8598417 L150.158612,35.5302694 Z" id="Fill-20"></path>
                    <polygon id="Fill-22" points="157.25434 16.3790161 185.64308 16.3790161 185.64308 25.3469872 166.778331 25.3469872 166.778331 44.8723747 183.215233 44.8723747 183.215233 53.842429 166.778331 53.842429 166.778331 73.3678165 185.64308 73.3678165 185.64308 82.8961557 157.25434 82.8961557"></polygon>
                    <path d="M211.297889,67.2018937 C211.297889,69.5058603 211.935043,71.2057127 213.211433,72.2931182 C214.48574,73.3826069 215.997419,73.9283929 217.740222,73.9283929 C219.483025,73.9283929 220.992621,73.3826069 222.271093,72.2931182 C223.545401,71.2057127 224.182554,69.5058603 224.182554,67.2018937 L224.182554,32.0736946 C224.182554,29.7697281 223.545401,28.0719589 222.271093,26.9824701 C220.992621,25.8929814 219.483025,25.3471955 217.740222,25.3471955 C215.997419,25.3471955 214.48574,25.8929814 213.211433,26.9824701 C211.935043,28.0719589 211.297889,29.7697281 211.297889,32.0736946 L211.297889,67.2018937 Z M201.773898,32.0736946 C201.773898,29.3968438 202.238229,27.0282995 203.173138,24.9743112 C204.105964,22.9182398 205.334463,21.2204706 206.862799,19.8830867 C208.386971,18.5436197 210.098541,17.5312077 211.997509,16.8458505 C213.896477,16.1604934 215.810021,15.8188564 217.740222,15.8188564 C219.668341,15.8188564 221.583966,16.1604934 223.485017,16.8458505 C225.381903,17.5312077 227.093473,18.5436197 228.619727,19.8830867 C230.145981,21.2204706 231.37448,22.9182398 232.309388,24.9743112 C233.242215,27.0282995 233.708628,29.3968438 233.708628,32.0736946 L233.708628,67.2018937 C233.708628,69.9433223 233.242215,72.3264487 232.309388,74.3491896 C231.37448,76.3740138 230.145981,78.0551178 228.619727,79.3945848 C227.093473,80.7340518 225.381903,81.7464639 223.485017,82.4297378 C221.583966,83.1130118 219.668341,83.4588151 217.740222,83.4588151 C215.810021,83.4588151 213.896477,83.1130118 211.997509,82.4297378 C210.098541,81.7464639 208.386971,80.7340518 206.862799,79.3945848 C205.334463,78.0551178 204.105964,76.3740138 203.173138,74.3491896 C202.238229,72.3264487 201.773898,69.9433223 201.773898,67.2018937 L201.773898,32.0736946 Z" id="Fill-24"></path>
                    <polygon id="Fill-26" points="242.113436 16.3790161 270.502176 16.3790161 270.502176 25.3469872 251.637427 25.3469872 251.637427 45.5264846 268.074329 45.5264846 268.074329 54.4965389 251.637427 54.4965389 251.637427 82.8961557 242.113436 82.8961557"></polygon>
                    <path d="M394.349877,85.5425925 C394.60807,84.838487 395.059908,84.0885521 395.143196,83.2969542 C395.763692,77.4599611 396.567422,71.6021366 395.911529,65.7359794 C395.351416,60.7468294 394.581002,55.7618456 393.539901,50.8539386 C391.830413,42.7879724 389.883554,34.7678356 387.053842,27.0018435 C386.243865,24.7749535 385.196518,22.6334729 384.361555,20.4149155 C383.926375,19.2566828 383.437057,18.0067914 383.464126,16.8089787 C383.520345,14.2196203 385.200682,12.8364071 387.663927,12.2364592 C390.225035,12.4156103 392.386361,13.3884425 394.120835,15.4882601 C395.151525,16.7381515 395.659582,18.1567783 396.088516,19.6024861 C399.582451,31.3868793 403.16592,43.1483578 405.658316,55.2014776 C405.885276,56.2930495 406.056016,57.3971203 406.222592,58.4991079 C407.505229,66.9587898 408.027861,75.4559685 407.10961,83.9823113 C406.780622,87.0216307 406.226757,90.0630332 405.460506,93.0211096 C404.525598,96.6312128 400.798456,98.7747766 397.092137,98.1831613 C394.252014,97.7290341 391.767947,96.4645606 389.544155,94.7292946 C386.460414,92.3232536 383.514099,89.7818076 380.765592,86.957053 C372.738704,78.7077694 365.617574,69.7668793 359.258529,60.1864614 C356.23309,55.6264407 353.851051,50.7310326 351.387806,45.8731211 C350.896407,44.9044553 350.284239,43.998284 349.399303,42.5171626 C349.005767,43.7003932 348.612231,44.3024242 348.643464,44.8794574 C349.032836,52.1288278 349.461769,59.3761151 349.9261,66.619236 C350.363363,73.4519759 350.78605,80.286799 352.418496,86.9758013 C352.89532,88.925632 352.108248,90.510911 351.071311,91.8628769 C350.609063,92.0295291 350.359198,92.1524351 350.096841,92.206597 C347.710638,92.7003042 345.480599,92.6586411 343.410891,90.9983686 C341.239154,89.2589364 339.860737,87.217447 339.394323,84.4114407 C337.761877,74.5997929 337.014367,64.7089852 336.506309,54.7931798 C336.177322,48.3687377 335.889978,41.9422125 335.565154,35.5198537 C335.43814,33.009655 335.256988,30.5015395 335.100823,27.9913409 C335.075837,27.5726272 334.973809,27.1372484 335.05085,26.7372831 C335.821265,22.7876261 335.12581,19.0025382 334.074298,15.1841198 C333.143553,11.8114961 335.781703,8.97424251 339.229829,9.45128441 C341.759705,9.79917086 344.000154,10.6303487 345.684655,12.8634881 C347.708555,15.5507547 349.65125,18.2630191 351.152517,21.2710912 C355.458511,29.8995085 359.79782,38.5112605 364.012196,47.183424 C369.063618,57.5825208 375.693349,66.892129 383.301714,75.5330452 C385.79411,78.3661324 388.392698,81.107561 391.010025,83.8239917 C391.853317,84.6989158 392.700773,85.7592403 394.349877,85.5425925" id="Fill-28"></path>
                    <path d="M566.837189,51.2472377 C562.606155,51.1055834 558.797808,52.0242536 555.407983,54.5511175 C553.960853,55.6322736 552.497065,56.6884318 551.274813,57.5862705 C546.631503,57.7029271 545.063605,54.4052968 543.324966,51.4055573 C543.029293,50.8931018 543.156308,50.020261 543.327048,49.3765669 C543.760146,47.7329596 544.568041,46.3080834 545.908979,45.1581832 C548.166085,43.2208515 550.662645,41.7293144 553.43822,40.6981539 C557.642186,39.1357896 561.885713,37.7713248 566.470722,37.965058 C569.689806,38.1004629 572.334202,39.2545293 574.670433,41.5626622 C577.618831,44.4790756 579.099276,47.7600406 579.261688,51.9659253 C579.511552,58.3591201 578.480862,64.4856713 576.479866,70.4913997 C574.793283,75.5555432 572.43623,80.3447106 569.606518,84.8297377 C566.847601,89.2043578 563.509831,93.2081767 559.243399,96.2662445 C554.179484,99.8971791 548.41595,99.7346932 543.2625,96.16417 C536.976333,91.8062152 532.653681,85.844233 529.407529,79.1114844 C523.094293,66.0147052 521.832478,52.3096455 525.538798,38.2629488 C527.475245,30.9219197 530.679754,24.0933461 535.191886,17.9292981 C540.266211,10.99865 546.970901,6.45112831 555.305956,4.45338515 C559.368331,3.48055297 563.351584,4.00342423 567.126616,5.9261739 C569.256708,7.00941316 570.520605,8.80717369 571.409705,10.8924092 C571.719953,11.6235957 571.730364,12.5339333 571.690802,13.3526122 C571.605432,15.0212173 570.653866,15.919056 569.029748,15.9773843 C568.4738,15.9982158 567.899112,15.9773843 567.359822,15.8607277 C562.901828,14.8878956 558.779068,16.1398702 554.799981,17.9043003 C550.233712,19.9270413 546.47742,23.0371878 543.635214,27.1659959 C535.872766,38.4504325 533.447,50.8764366 535.866519,64.289855 C536.66192,68.7019718 537.823789,73.0182636 539.793552,77.0783276 C541.269833,80.1238964 543.085513,82.9382353 545.567497,85.2547008 C547.493534,87.0524614 549.14472,87.294107 551.18736,85.6317514 C553.450714,83.7923278 555.609957,81.7425059 557.461034,79.4947844 C562.046043,73.9202686 565.313018,67.6291483 566.937135,60.5360143 C567.630508,57.5154433 567.93451,54.5219533 566.837189,51.2472377" id="Fill-30"></path>
                    <path d="M637.989775,93.0825626 C637.177717,92.0451527 636.373987,91.0848195 635.645216,90.0703243 C634.63743,88.6641964 634.06066,87.045587 634.206414,85.3394851 C634.820664,78.1901061 633.810796,71.0907226 633.640056,63.9663414 C633.567178,60.8895253 633.386027,57.8147923 633.192382,54.7442257 C633.142409,53.942212 632.855065,53.1568635 632.621859,52.1173705 C625.021822,53.8547196 617.332251,54.1963566 609.975831,56.3982487 C609.078402,59.6625485 609.546898,62.7414478 609.784269,65.7599356 C610.365203,73.1467941 611.200166,80.5107378 612.524446,87.8142702 C612.747242,89.0433301 612.738913,90.3203025 612.788886,91.5785266 C612.870092,93.5991844 611.997649,95.124052 610.152818,95.9323151 C608.189302,96.7905739 606.18206,96.4656021 604.647477,95.1011373 C602.529877,93.2158844 600.9245,90.9577472 600.995295,87.8455175 C601.030692,86.3227331 600.747513,84.7853666 600.539292,83.2625822 C599.441972,75.2174476 598.613256,67.1493983 598.544543,59.0209376 C598.538296,58.4605696 598.594516,57.891869 598.517474,57.3439999 C597.31188,48.8468212 598.073965,40.3058963 597.996924,31.7878861 C597.953198,26.9028937 598.471666,22.0095687 598.763174,17.1224932 C598.802736,16.4329697 598.902682,15.7205316 599.135888,15.0768375 C599.7897,13.2624117 601.153542,12.5124769 603.08999,12.7916193 C606.369458,13.2665781 608.416262,15.2643212 609.286623,18.3078069 C609.894625,20.4347055 610.22986,22.642847 609.769693,24.9405642 C608.720264,30.200524 609.178348,35.531311 609.30328,40.8412665 C609.309527,41.0974942 609.499007,41.3474725 609.669748,41.7599367 C611.004439,42.4869569 612.582748,42.2515607 614.059029,42.1015737 C619.612262,41.5328731 625.150919,40.835017 630.69374,40.1579925 C631.087276,40.11008 631.453744,39.8455196 632.01802,39.5997077 C632.103391,38.8581054 632.299118,38.0540086 632.274131,37.2582444 C632.115884,32.223265 631.680704,27.221616 630.83533,22.2428818 C630.227327,18.6640259 629.879599,15.0351744 629.554775,11.4167387 C629.461076,10.3522478 629.648475,9.1627678 630.054504,8.17535356 C630.906124,6.10886637 632.852983,5.32768422 634.878966,6.24427128 C636.934099,7.1754404 638.868464,8.40450033 639.722167,10.6480555 C640.41554,12.4687307 641.163051,14.3289858 641.435819,16.2350702 C642.418619,23.1532194 643.184869,30.1026158 644.098956,37.0311807 C644.280107,38.3956456 644.577862,39.8017734 645.144221,41.039166 C646.006252,42.9285852 646.191568,44.7325952 645.585648,46.7220058 C645.227509,47.9052363 644.963069,49.1863751 645.008878,50.4112687 C645.252495,56.9773651 645.629374,63.5392952 645.914636,70.1053916 C646.129102,74.9945503 646.322747,79.8878753 646.422693,84.7812003 C646.453926,86.3039847 646.297761,87.8684322 645.960444,89.3537198 C645.306633,92.2305533 643.834516,93.3450398 640.921515,93.3617051 C639.959538,93.3679545 638.995479,93.1846371 637.989775,93.0825626" id="Fill-32"></path>
                    <path d="M755.713304,93.577728 C749.168944,93.7527128 744.250783,91.554987 740.123859,87.3136887 C736.344663,83.4306926 733.69402,78.9206676 731.905408,73.8336094 C730.995486,71.2505004 730.79143,68.6361442 731.201624,65.982208 C731.3682,64.9135508 731.792969,63.8261452 732.340588,62.8866435 C733.383772,61.1013819 735.232767,61.115964 736.296772,62.9762191 C737.958369,65.8780504 739.624131,68.8048795 740.962986,71.8629472 C742.235212,74.7731112 744.204975,77.0687451 746.395451,79.2248079 C747.711403,80.5184455 749.314698,81.3954527 751.224077,81.5058597 C759.078143,81.9579038 765.809901,79.5331144 771.107023,73.59613 C771.929493,72.6774598 772.649934,71.5796385 773.108019,70.4401541 C774.513505,66.9446244 773.78057,64.2427757 770.857159,61.8617325 C768.243995,59.7327508 765.360146,58.0453973 762.203528,56.82467 C758.299399,55.3143845 754.420257,53.7416044 750.516129,52.2271526 C743.819767,49.6294616 738.285275,45.4673231 734.156268,39.6074153 C729.036134,32.3413797 727.765991,21.4839894 734.237474,12.9701455 C737.092173,9.21422167 740.663149,6.37280178 744.88169,4.35214394 C749.062752,2.35023448 753.4208,0.806618541 758.068275,0.456648936 C764.369018,-0.0183098133 770.2908,1.22324902 775.562935,4.90626248 C777.67637,6.38113439 779.356707,8.21222536 780.256218,10.6599294 C780.489424,11.2952909 780.676823,12.0160617 780.624768,12.676421 C780.420712,15.2386984 778.369743,16.6864894 775.914827,15.9657186 C775.00074,15.696992 774.190764,15.0762125 773.322486,14.6366674 C770.534417,13.2305395 767.642239,12.4868541 764.454388,12.6014275 C757.972493,12.8347406 752.075698,14.6345842 746.928495,18.6259043 C745.729146,19.5570734 744.586018,20.6382295 743.66152,21.8381253 C740.359148,26.1335855 740.65482,31.6081101 744.221632,35.6515089 C746.799398,38.5762549 750.168401,40.2552757 753.64776,41.7343139 C757.497751,43.3716717 761.422702,44.8298784 765.285186,46.4401552 C770.084662,48.4399815 774.553067,50.9730949 778.298948,54.6748567 C782.54664,58.8724088 785.138981,63.7365697 785.116077,69.877703 C785.101502,74.4439731 783.637714,78.5352844 780.639343,81.7600043 C774.228243,88.6510725 766.226342,92.6590578 756.779392,93.5714785 C756.225526,93.6235573 755.661249,93.577728 755.713304,93.577728" id="Fill-34"></path>
                    <path d="M425.934381,63.2078656 C427.92913,63.9453016 429.111821,64.9993767 429.903058,66.8867128 C434.867027,78.7273511 448.851095,84.1289653 460.773783,80.3605426 C462.604038,79.7835093 464.33643,78.7336005 465.939725,77.646195 C467.578418,76.5317084 467.859516,75.0818343 467.168225,73.2007477 C466.056329,70.1801767 463.686783,68.1782673 461.325566,66.2076051 C456.692667,62.3433574 451.50382,59.2915391 446.389932,56.1313969 C440.801302,52.6775302 435.158535,49.3153222 430.371553,44.7053059 C428.120693,42.5388274 426.130108,40.1432021 424.772512,37.4309377 C421.878252,31.6460234 421.769977,25.8006978 425.967696,20.4574119 C429.001464,16.5931641 432.437097,13.160129 436.826379,10.7353396 C441.134455,8.35846266 445.709052,7.26272449 450.541843,7.68143812 C456.105486,8.16472948 460.784194,10.3895363 463.561851,15.5995004 C464.63002,17.6055762 464.634185,17.6451561 463.909579,20.869876 C462.345845,21.55315 460.755043,21.6823055 459.155912,20.8073815 C453.894188,17.9326311 448.896903,19.0846144 444.009975,21.8156272 C441.288538,23.3384116 438.985622,25.3757347 437.02627,27.7796926 C434.411025,30.9856641 434.365216,34.1583053 437.099147,37.2559529 C438.467154,38.8058183 440.120422,40.1786157 441.846568,41.3243495 C446.975031,44.7219711 452.201358,47.9716889 457.392287,51.2734855 C462.837245,54.7377679 468.038585,58.5416042 472.423702,63.2911917 C474.495493,65.5347469 476.229967,68.1220221 477.891564,70.6967985 C478.780664,72.0758454 479.326201,73.7257021 479.790532,75.3213969 C480.477659,77.6857749 480.186151,80.0022403 479.078419,82.2478786 C476.325748,87.8286439 471.582492,91.0096177 465.804382,92.2782575 C453.348651,95.0113535 442.004815,92.2970059 431.891561,84.4206066 C428.766175,81.9854014 426.107204,79.150231 423.785549,75.9880056 C420.258299,71.1863393 420.897535,67.2512644 425.934381,63.2078656" id="Fill-36"></path>
                    <path d="M687.243219,19.6428993 C685.866884,21.1115217 685.725294,22.8363719 685.573293,24.4799792 C685.354662,26.8381077 685.221401,29.2254003 685.310936,31.5918615 C685.731541,42.6221535 686.291653,53.6482792 687.572207,64.6181598 C688.138566,69.4656554 689.090132,74.2673218 689.760601,79.1023185 C690.145809,81.8791607 690.149973,84.6414208 689.271284,87.3995145 C688.196868,90.7721383 686.285406,91.4554123 682.310483,90.6388165 C681.523411,90.4784138 680.815462,89.9263784 680.074198,89.5555773 C679.441209,88.2619396 678.754082,87.0349629 678.239778,85.7392421 C677.939941,84.9872241 677.640104,84.0581381 677.815009,83.3248684 C678.693698,79.641855 677.883722,76.0400845 677.269472,72.4903927 C674.591761,56.9854894 673.94836,41.3597631 674.094115,25.6715423 C674.102443,24.696627 674.010826,23.7196285 673.906716,22.7488795 C673.879648,22.509317 673.611044,22.2968354 673.456961,22.0739381 C670.292014,21.9406164 665.063605,22.9946915 662.144358,24.4716465 C660.526487,25.2882423 658.977329,26.2464924 657.430253,27.1922436 C654.998241,28.6754481 651.683376,28.2963144 649.932244,26.0944223 C649.082706,25.0257651 648.397661,23.7446264 647.945823,22.4530719 C646.890147,19.4429166 647.964563,17.0431251 650.733892,15.401601 C656.586961,11.931069 662.916855,9.85624924 669.609052,8.79384151 C675.955603,7.78559574 682.283414,6.65236083 688.646623,5.76285475 C693.348235,5.10457859 698.083162,4.6358693 702.820171,4.290066 C708.394226,3.88176813 713.984938,3.70053387 719.567321,3.41097568 C720.125351,3.38181155 720.679217,3.29015284 721.233083,3.21099305 C725.680666,2.57146526 728.354213,3.85052084 730.565511,7.73560009 C731.048582,8.58344312 731.417132,9.49378072 731.912696,10.5311906 C731.64201,11.7727495 731.346337,13.1226322 731.054829,14.4600161 C729.162107,16.4619255 726.830041,16.9514663 724.18148,16.8806392 C713.680936,16.5952473 703.211625,17.1056196 692.786041,18.4325877 C691.955242,18.5388285 691.116115,18.6242377 690.299892,18.8096383 C689.219229,19.0533671 688.159388,19.3887547 687.243219,19.6428993" id="Fill-38"></path>
                    <path d="M305.808199,88.6789868 C305.029456,86.8895588 304.777509,85.0626342 305.066935,83.0253111 C305.379266,80.8317516 305.26058,78.567365 305.212689,76.3363087 C305.029456,67.6849768 304.933674,59.0273954 304.546385,50.384396 C304.146602,41.4601711 303.51153,32.5442788 302.838979,23.6346359 C302.661992,21.2890063 302.037332,18.9662914 301.495959,16.6623248 C300.540228,12.5835124 301.845769,10.3295415 306.678559,10.3691214 C309.98926,10.3962023 312.544122,11.9169036 314.032896,15.0270502 C315.571644,18.2413543 316.05055,21.6868884 316.348305,25.1699192 C316.848033,31.0069123 317.320693,36.8459885 317.772531,42.6850647 C317.934943,44.7703003 318.028642,46.8597021 318.120259,48.949104 C318.407603,55.5027015 318.709522,62.0583821 318.9344,68.6140627 C319.011441,70.845119 318.853194,73.0803415 318.842783,75.315564 C318.828207,79.0860699 318.855276,82.8544926 318.844865,86.6249985 C318.840701,87.8769731 318.861523,89.1206151 318.086943,90.2455174 C316.398278,92.6932215 312.754425,93.3785786 309.914301,91.620398 C308.498404,90.7454739 307.19911,89.6851494 305.808199,88.6789868" id="Fill-40"></path>
                    <path d="M508.836832,81.8756193 C508.738968,84.0566799 508.653598,85.452392 508.618201,86.8501873 C508.559899,89.2541451 507.225208,91.1102339 505.769748,92.7725896 C504.657853,94.0433125 502.842173,93.8599951 501.447097,93.297544 C499.158758,92.3788738 496.785047,90.6477741 497.330584,87.2439031 C497.942752,83.4359005 497.316009,79.7153903 496.895404,75.9782148 C495.956331,67.6539378 494.711174,59.3567417 494.013637,51.0137163 C493.245304,41.8270142 492.356204,32.62573 492.733083,23.3806996 C492.858015,20.3142993 493.072482,17.2520652 493.270291,14.1898312 C493.305688,13.6357127 493.422291,13.0774278 493.57221,12.5399745 C494.042788,10.8588705 495.367068,10.0526905 497.08072,10.3672465 C501.268028,11.1338466 504.280974,14.460641 504.58914,18.7831823 C504.676593,20.0309906 504.630784,21.3121293 504.453797,22.5495218 C503.556368,28.8427252 504.407988,35.113014 504.770292,41.3687207 C505.201307,48.7597454 506.032106,56.1257724 506.767123,63.4959656 C507.17107,67.5247823 507.754087,71.5348507 508.216336,75.557418 C508.487022,77.9134634 508.682749,80.2799246 508.836832,81.8756193" id="Fill-42"></path>
                </g>
            </g>
        </g>
    </g>
</svg>