<?xml version="1.0" encoding="UTF-8" standalone="no"?>
<svg width="772px" height="105px" viewBox="0 0 772 105" version="1.1" xmlns="http://www.w3.org/2000/svg" xmlns:xlink="http://www.w3.org/1999/xlink">
    <!-- Generator: Sketch 40 (33762) - http://www.bohemiancoding.com/sketch -->
    <title>Page 1</title>
    <desc>Created with Sketch.</desc>
    <defs></defs>
    <g id="Page-1" stroke="none" stroke-width="1" fill="none" fill-rule="evenodd">
        <g id="Desktop-HD" transform="translate(-888.000000, -4582.000000)" fill="#000000">
            <g id="Page-1" transform="translate(888.000000, 4581.000000)">
                <polygon id="Fill-1" points="22.1031 22.8145 22.1031 52.3815 9.8881 52.3815 9.8881 22.8145 0.0001 22.8145 0.0001 91.8355 9.8881 91.8355 9.8881 61.1045 22.1031 61.1045 22.1031 91.8355 31.9911 91.8355 31.9911 22.8145"></polygon>
                <polygon id="Fill-2" points="163.2456 22.8141 192.7166 22.8141 192.7166 32.1201 173.1336 32.1201 173.1336 52.3811 190.1956 52.3811 190.1956 61.6861 173.1336 61.6861 173.1336 81.9471 192.7166 81.9471 192.7166 91.8351 163.2456 91.8351"></polygon>
                <polygon id="Fill-3" points="251.3375 22.8141 280.8085 22.8141 280.8085 32.1201 261.2255 32.1201 261.2255 53.0591 278.2885 53.0591 278.2885 62.3661 261.2255 62.3661 261.2255 91.8351 251.3375 91.8351"></polygon>
                <polygon id="Fill-4" points="22.1031 22.8145 22.1031 52.3815 9.8881 52.3815 9.8881 22.8145 0.0001 22.8145 0.0001 91.8355 9.8881 91.8355 9.8881 61.1045 22.1031 61.1045 22.1031 91.8355 31.9911 91.8355 31.9911 22.8145"></polygon>
                <g id="Group-33" transform="translate(40.000000, 0.502000)">
                    <path d="M0.7162,38.598 C0.7162,35.819 1.1992,33.363 2.1692,31.23 C3.1392,29.098 4.4132,27.337 5.9992,25.947 C7.5812,24.558 9.3582,23.508 11.3302,22.796 C13.3012,22.086 15.2892,21.73 17.2922,21.73 C19.2942,21.73 21.2812,22.086 23.2542,22.796 C25.2252,23.508 27.0012,24.558 28.5852,25.947 C30.1692,27.337 31.4452,29.098 32.4152,31.23 C33.3852,33.363 33.8682,35.819 33.8682,38.598 L33.8682,75.047 C33.8682,77.891 33.3852,80.364 32.4152,82.463 C31.4452,84.564 30.1692,86.309 28.5852,87.698 C27.0012,89.089 25.2252,90.138 23.2542,90.848 C21.2812,91.558 19.2942,91.915 17.2922,91.915 C15.2892,91.915 13.3012,91.558 11.3302,90.848 C9.3582,90.138 7.5812,89.089 5.9992,87.698 C4.4132,86.309 3.1392,84.564 2.1692,82.463 C1.1992,80.364 0.7162,77.891 0.7162,75.047 L0.7162,38.598 Z M10.6042,75.047 C10.6042,77.438 11.2642,79.201 12.5902,80.33 C13.9142,81.461 15.4822,82.027 17.2922,82.027 C19.1012,82.027 20.6692,81.461 21.9942,80.33 C23.3172,79.201 23.9802,77.438 23.9802,75.047 L23.9802,38.598 C23.9802,36.207 23.3172,34.446 21.9942,33.314 C20.6692,32.184 19.1012,31.618 17.2922,31.618 C15.4822,31.618 13.9142,32.184 12.5902,33.314 C11.2642,34.446 10.6042,36.207 10.6042,38.598 L10.6042,75.047 Z" id="Fill-5"></path>
                    <path d="M74.5828,75.8224 C74.5828,78.0854 74.1618,80.1854 73.3228,82.1234 C72.4818,84.0624 71.3348,85.7584 69.8808,87.2134 C68.4278,88.6674 66.7308,89.8164 64.7918,90.6554 C62.8528,91.4944 60.7838,91.9154 58.5878,91.9154 C56.3898,91.9154 54.3218,91.4944 52.3828,90.6554 C50.4448,89.8164 48.7478,88.6674 47.2938,87.2134 C45.8398,85.7584 44.6908,84.0624 43.8518,82.1234 C43.0118,80.1854 42.5918,78.0854 42.5918,75.8224 L42.5918,22.3124 L52.4798,22.3124 L52.4798,74.8524 C52.4798,77.3104 53.0618,79.1184 54.2248,80.2824 C55.3878,81.4454 56.8428,82.0274 58.5878,82.0274 C60.3328,82.0274 61.7868,81.4454 62.9498,80.2824 C64.1128,79.1184 64.6948,77.3104 64.6948,74.8524 L64.6948,22.3124 L74.5828,22.3124 L74.5828,75.8224 Z" id="Fill-7"></path>
                    <path d="M115.8795,42.1838 L105.9915,42.1838 L105.9915,39.9538 C105.9915,37.6938 105.4585,35.7378 104.3915,34.0908 C103.3245,32.4408 101.5315,31.6178 99.0115,31.6178 C97.6545,31.6178 96.5395,31.8768 95.6665,32.3928 C94.7945,32.9118 94.1155,33.5738 93.6315,34.3808 C93.1465,35.1888 92.8065,36.1258 92.6135,37.1908 C92.4185,38.2588 92.3235,39.3728 92.3235,40.5358 C92.3235,41.8938 92.3715,43.0418 92.4685,43.9778 C92.5655,44.9148 92.8065,45.7228 93.1955,46.4008 C93.5835,47.0788 94.1485,47.6788 94.8915,48.1938 C95.6335,48.7128 96.6505,49.2288 97.9445,49.7458 L105.5065,52.7508 C107.7035,53.5918 109.4815,54.5778 110.8385,55.7068 C112.1945,56.8388 113.2445,58.1648 113.9895,59.6818 C114.7315,61.2018 115.2315,62.9468 115.4915,64.9168 C115.7485,66.8888 115.8795,69.1338 115.8795,71.6548 C115.8795,74.5628 115.5875,77.2608 115.0075,79.7478 C114.4245,82.2378 113.4715,84.3708 112.1475,86.1478 C110.8215,87.9248 109.0605,89.3308 106.8645,90.3638 C104.6655,91.3968 101.9835,91.9148 98.8175,91.9148 C96.4265,91.9148 94.1955,91.4938 92.1285,90.6548 C90.0605,89.8158 88.2825,88.6678 86.7965,87.2128 C85.3095,85.7578 84.1305,84.0308 83.2585,82.0268 C82.3855,80.0238 81.9505,77.8578 81.9505,75.5318 L81.9505,71.8478 L91.8385,71.8478 L91.8385,74.9498 C91.8385,76.7598 92.3715,78.3918 93.4365,79.8448 C94.5035,81.2998 96.2965,82.0268 98.8175,82.0268 C100.4985,82.0268 101.8065,81.7848 102.7445,81.2998 C103.6805,80.8148 104.3915,80.1368 104.8765,79.2648 C105.3615,78.3918 105.6665,77.3108 105.7965,76.0168 C105.9265,74.7248 105.9915,73.3018 105.9915,71.7518 C105.9915,69.9428 105.9265,68.4548 105.7965,67.2918 C105.6665,66.1288 105.3935,65.1928 104.9735,64.4798 C104.5525,63.7698 103.9705,63.1878 103.2285,62.7358 C102.4835,62.2848 101.4985,61.7998 100.2715,61.2818 L93.1955,58.3738 C88.9285,56.6288 86.0705,54.3188 84.6155,51.4418 C83.1615,48.5668 82.4355,44.9638 82.4355,40.6338 C82.4355,38.0488 82.7895,35.5928 83.5015,33.2658 C84.2105,30.9388 85.2605,28.9368 86.6515,27.2558 C88.0405,25.5758 89.8015,24.2358 91.9345,23.2328 C94.0685,22.2308 96.5555,21.7298 99.3985,21.7298 C101.8545,21.7298 104.1015,22.1828 106.1365,23.0878 C108.1725,23.9938 109.9165,25.1878 111.3715,26.6738 C112.8255,28.1618 113.9395,29.8248 114.7155,31.6658 C115.4915,33.5078 115.8795,35.3978 115.8795,37.3378 L115.8795,42.1838 Z" id="Fill-9"></path>
                    <polygon id="Fill-11" points="123.2456 22.3121 152.7166 22.3121 152.7166 31.6181 133.1336 31.6181 133.1336 51.8791 150.1956 51.8791 150.1956 61.1841 133.1336 61.1841 133.1336 81.4451 152.7166 81.4451 152.7166 91.3331 123.2456 91.3331"></polygon>
                    <path d="M169.4604,38.598 C169.4604,35.819 169.9434,33.363 170.9134,31.23 C171.8834,29.098 173.1574,27.337 174.7434,25.947 C176.3254,24.558 178.1024,23.508 180.0744,22.796 C182.0454,22.086 184.0334,21.73 186.0364,21.73 C188.0384,21.73 190.0254,22.086 191.9984,22.796 C193.9684,23.508 195.7454,24.558 197.3294,25.947 C198.9134,27.337 200.1894,29.098 201.1594,31.23 C202.1294,33.363 202.6124,35.819 202.6124,38.598 L202.6124,75.047 C202.6124,77.891 202.1294,80.364 201.1594,82.463 C200.1894,84.564 198.9134,86.309 197.3294,87.698 C195.7454,89.089 193.9684,90.138 191.9984,90.848 C190.0254,91.558 188.0384,91.915 186.0364,91.915 C184.0334,91.915 182.0454,91.558 180.0744,90.848 C178.1024,90.138 176.3254,89.089 174.7434,87.698 C173.1574,86.309 171.8834,84.564 170.9134,82.463 C169.9434,80.364 169.4604,77.891 169.4604,75.047 L169.4604,38.598 Z M179.3484,75.047 C179.3484,77.438 180.0084,79.201 181.3344,80.33 C182.6584,81.461 184.2264,82.027 186.0364,82.027 C187.8454,82.027 189.4134,81.461 190.7384,80.33 C192.0614,79.201 192.7244,77.438 192.7244,75.047 L192.7244,38.598 C192.7244,36.207 192.0614,34.446 190.7384,33.314 C189.4134,32.184 187.8454,31.618 186.0364,31.618 C184.2264,31.618 182.6584,32.184 181.3344,33.314 C180.0084,34.446 179.3484,36.207 179.3484,38.598 L179.3484,75.047 Z" id="Fill-13"></path>
                    <polygon id="Fill-15" points="211.3375 22.3121 240.8085 22.3121 240.8085 31.6181 221.2255 31.6181 221.2255 52.5571 238.2885 52.5571 238.2885 61.8641 221.2255 61.8641 221.2255 91.3331 211.3375 91.3331"></polygon>
                    <path d="M353.1373,56.5179 C354.1703,56.9619 355.0703,57.4339 356.0233,57.7449 C362.2093,59.7589 368.5493,61.1539 374.9023,62.5309 C382.1473,64.1019 389.3473,65.8799 396.5663,67.5659 C397.4553,67.7739 398.3463,67.9689 399.3363,68.1919 C401.0673,65.8829 401.3513,63.2549 401.5423,60.6389 C401.9123,55.5959 401.5323,50.5629 400.9273,45.5639 C400.5143,42.1499 399.7473,38.7809 399.1693,35.3859 C398.2153,29.7889 398.6663,24.2909 400.5763,18.9509 C401.0133,17.7299 401.6643,16.4529 402.5743,15.5709 C403.6903,14.4899 405.1513,13.7819 406.8913,14.3489 C410.2613,15.4459 413.0963,17.3329 415.3573,20.0439 C420.6313,26.3679 425.3603,33.0639 429.0753,40.4399 C429.4913,41.2659 429.9353,42.0769 430.3323,42.8309 C432.1413,43.9169 434.0913,43.0819 435.8193,43.5349 C438.3203,46.2299 438.5383,49.1529 436.9073,52.2869 C436.1613,53.7179 436.3203,55.0519 437.0923,56.4389 C439.6663,61.0629 441.7683,65.9379 444.6993,70.3789 C446.5343,73.1589 447.1553,76.2199 445.7783,79.4649 C445.4703,80.1909 445.3713,81.0029 445.0823,81.7379 C444.2873,83.7619 442.0233,84.5199 440.2293,83.4029 C438.7363,82.4749 437.6643,81.2039 436.7133,79.7089 C433.7313,75.0199 430.9603,70.2169 428.3503,65.3149 C427.6043,63.9149 426.7373,62.5789 425.9293,61.2179 C423.3913,60.3979 421.1433,61.6209 418.8793,62.0989 C415.1383,62.8899 411.4523,64.0159 408.3283,66.1389 C406.8953,71.4019 405.5343,76.5079 404.0953,81.5919 C403.8143,82.5839 403.3923,83.6229 402.7493,84.4049 C401.2973,86.1699 398.9023,85.9919 397.7143,84.0799 C397.1633,83.1939 396.8613,82.1539 396.3193,80.8879 C394.5703,80.3869 392.7063,79.6379 390.7733,79.3399 C384.7573,78.4119 378.7143,77.6599 372.6843,76.8229 C371.7673,76.6949 370.8693,76.4219 369.9513,76.3059 C366.9333,75.9239 363.9013,75.6469 360.8913,75.2079 C358.8083,74.9039 356.7493,74.4259 354.6903,73.9769 C353.4373,73.7039 352.2053,73.3379 351.1343,73.0589 C350.2643,73.9059 350.6743,74.5229 350.8913,75.1169 C351.8473,77.7229 352.5003,80.5069 353.8653,82.8789 C355.6793,86.0309 355.5793,89.1849 354.9703,92.4789 C354.7803,93.5069 354.3853,94.5179 353.9493,95.4749 C353.3963,96.6879 352.2223,97.1309 350.9523,96.6239 C349.7323,96.1369 348.5483,95.6399 347.8443,94.3259 C346.4073,91.6389 344.7313,89.0799 343.3273,86.3769 C340.4343,80.8029 338.6893,74.8479 337.6183,68.6659 C336.9183,64.6249 336.2663,60.5439 335.1183,56.6199 C333.3483,50.5709 332.7593,44.3829 332.4623,38.1699 C332.2853,34.4809 332.4283,30.6999 333.0563,27.0689 C333.9923,21.6529 337.5483,17.8589 342.1013,15.0499 C345.4443,12.9879 349.1073,12.0719 353.1113,12.3149 C357.7623,12.5979 362.3853,12.9209 366.7653,14.6499 C372.3513,16.8549 376.9763,20.2109 379.7553,25.7379 C380.4283,27.0749 380.8253,28.4299 380.7713,29.9339 C380.7143,31.5229 380.7593,33.1169 380.6933,34.7059 C380.5493,38.1739 379.1673,41.0779 376.7433,43.5639 C374.2033,46.1669 371.1913,48.0709 368.0123,49.7369 C364.1363,51.7689 360.1663,53.5799 355.9553,54.8499 C355.0313,55.1289 353.8223,55.1689 353.1373,56.5179 M371.6383,32.2039 C371.2883,31.6999 371.1353,31.2969 370.8433,31.0879 C363.4943,25.8269 355.3503,24.6489 346.6903,26.6239 C344.9323,27.0239 343.2513,27.9629 342.2853,29.9009 C343.9143,32.9049 344.0383,36.1789 343.8193,39.5049 C343.7673,40.2949 343.7023,41.0919 343.7443,41.8799 C343.7773,42.4769 343.9713,43.0649 344.0943,43.6609 C346.9153,43.6699 349.2953,42.8609 351.6453,42.0169 C356.1183,40.4089 360.6163,38.8469 364.9913,36.9999 C367.5073,35.9379 369.8433,34.4059 371.6383,32.2039 M406.3563,31.6429 C406.0023,32.3259 405.7543,32.5729 405.7843,32.7789 C406.4513,37.3329 407.1433,41.8829 407.8503,46.4299 C407.9283,46.9339 408.1193,47.4209 408.3083,48.0919 C409.0203,48.0919 409.7123,48.2509 410.2933,48.0639 C412.6513,47.3039 415.1303,46.8339 417.3613,45.4509 C416.7033,42.6869 414.7103,40.8169 413.4243,38.5599 C412.1023,36.2419 410.1403,34.4379 408.2083,32.6399 C407.7623,32.2249 407.1063,32.0359 406.3563,31.6429" id="Fill-17"></path>
                    <g id="Group-21" transform="translate(659.000000, 0.000000)">
                        <path d="M42.2668,11.419 C41.6878,11.487 41.0338,11.642 40.3848,11.629 C31.9178,11.46 24.8678,14.554 19.3638,20.958 C17.2148,23.459 15.3488,26.209 13.4218,28.894 C12.0658,30.783 11.6398,32.993 11.4918,35.277 C11.0608,41.904 12.3138,48.196 15.1758,54.181 C16.6098,57.181 18.2468,60.07 20.3648,62.629 C26.7908,70.393 35.0358,73.666 45.0328,72.209 C46.6938,71.967 48.4438,71.408 49.8488,70.517 C53.9178,67.936 57.3348,64.753 59.1358,60.03 C60.8518,55.53 61.8068,50.891 62.5088,46.169 C62.5418,45.95 62.3418,45.697 62.1558,45.214 C61.6268,45.214 60.9828,45.114 60.3818,45.231 C56.7338,45.938 53.0648,46.383 49.3528,46.668 C45.7938,46.942 42.2418,47.53 38.7418,48.25 C36.9728,48.614 35.3268,49.575 33.3488,50.379 C33.1488,50.316 32.6598,50.145 32.1618,50.011 C31.2978,49.778 30.8178,49.205 30.6688,48.351 C30.6008,47.961 30.5148,47.543 30.5858,47.167 C31.3928,42.944 32.6478,38.952 36.2338,36.138 C37.9878,34.762 40.0868,34.318 42.1718,34.098 C46.6468,33.625 51.1468,33.39 55.6348,33.037 C58.9318,32.777 62.2338,32.553 65.5158,32.167 C66.5278,32.048 67.4838,31.45 68.4618,31.063 C69.0558,30.828 69.6418,30.575 70.1468,30.365 C73.0368,32.96 73.1108,33.251 71.9848,36.507 C71.7698,37.128 71.5718,37.772 71.4908,38.421 C70.7038,44.75 69.0438,50.846 67.2698,56.975 C65.1108,64.435 61.3148,70.771 56.3658,76.561 C53.7648,79.603 50.6978,82.109 47.2868,84.208 C45.0848,85.563 42.7048,86.15 40.1398,86.337 C34.2158,86.767 28.5108,85.621 22.9768,83.775 C18.4018,82.25 14.5178,79.487 11.3868,75.736 C8.4878,72.261 5.9688,68.526 3.9778,64.478 C2.9938,62.477 2.2028,60.305 1.7708,58.122 C0.4788,51.593 0.2048,45.008 1.9868,38.516 C4.1078,30.79 7.3808,23.56 12.1548,17.098 C15.3018,12.838 18.5698,8.655 23.1548,5.754 C27.7228,2.863 32.7728,1.383 38.0498,0.581 C39.8708,0.304 41.5188,0.649 42.2298,2.709 C42.3138,2.952 42.5188,3.151 42.6578,3.378 C44.7068,6.717 44.6658,7.697 42.2668,11.419" id="Fill-19"></path>
                    </g>
                    <path d="M593.0675,45.4533 C593.2335,46.6013 593.3985,47.7493 593.5665,48.8973 C594.1035,52.5623 594.7835,56.2123 595.1435,59.8943 C595.6915,65.4913 595.0175,71.0053 593.3065,76.3643 C592.7505,78.1073 592.2165,79.9503 591.2025,81.4233 C590.4435,82.5263 588.9295,83.1103 587.7245,83.9443 C586.9075,83.6443 586.1775,83.3773 585.5235,83.1383 C584.8645,81.1443 585.1945,79.2953 585.6985,77.5233 C586.9155,73.2533 587.1115,69.0083 586.5325,64.5733 C584.9835,52.7043 581.9655,41.2013 578.5155,29.7843 C578.2535,28.9203 578.0615,27.9293 578.2145,27.0643 C578.9495,22.8983 580.0325,18.8463 582.9185,15.3663 C584.0545,15.2773 585.2155,15.1863 586.3265,15.0983 C589.3805,18.0433 592.3455,20.8633 595.2675,23.7283 C601.2295,29.5743 607.4365,35.1423 613.9555,40.3633 C620.0505,45.2453 625.9665,50.3543 632.4845,54.6943 C633.7195,55.5173 634.9625,56.2023 636.4345,56.4343 C637.5205,56.6053 638.2845,56.1103 638.3755,55.0183 C638.4635,53.9673 638.5325,52.8853 638.3865,51.8483 C637.8495,48.0483 637.3855,44.2253 636.5835,40.4773 C635.5585,35.6883 634.2445,30.9613 633.0255,26.2153 C632.7305,25.0633 632.4995,23.8403 631.9285,22.8233 C630.3745,20.0513 631.1625,17.4623 632.3475,14.9103 C633.0705,13.3563 633.9715,11.8783 634.8735,10.4163 C635.2925,9.7363 636.3935,9.6683 636.9935,10.2023 C637.7875,10.9093 638.4745,11.6673 638.6865,12.8023 C640.1655,20.7533 643.0605,28.3343 644.8435,36.2073 C644.9315,36.5943 644.9535,37.0123 645.1165,37.3643 C647.1965,41.8433 647.0425,46.5473 646.8765,51.3433 C646.7445,55.1553 645.8475,58.6123 644.2765,62.0353 C643.2085,64.3603 641.8445,66.3863 640.1825,68.3153 C637.7165,71.1783 634.7205,71.8813 631.2535,70.9283 C625.8095,69.4323 620.9725,66.7593 616.7215,63.0493 C614.8255,61.3953 612.9705,59.7643 610.5205,58.8653 C609.3305,58.4293 608.3175,57.4213 607.3225,56.5593 C603.6185,53.3493 599.9645,50.0823 596.2675,46.8633 C595.5015,46.1963 594.6315,45.6473 593.8105,45.0443 C593.5625,45.1803 593.3155,45.3163 593.0675,45.4533" id="Fill-22"></path>
                    <path d="M492.2098,49.613 C491.7548,51.799 492.3218,53.608 492.4908,55.414 C493.2328,63.361 493.1158,71.279 492.1628,79.205 C491.8998,81.393 490.7378,83.167 489.9988,85.128 C489.4878,86.483 487.4918,87.183 485.9108,86.895 C485.1618,86.759 484.3378,85.859 484.3148,84.838 C484.2498,81.926 484.2578,79.017 485.0728,76.17 C485.3948,75.044 485.6058,73.872 485.7228,72.706 C486.3098,66.849 485.3608,61.071 484.7668,55.274 C484.2958,50.67 483.8938,46.058 483.3708,41.459 C483.1628,39.624 482.7788,37.801 482.3578,36 C481.7428,33.374 481.6838,30.804 482.3058,28.146 C482.8148,25.972 482.7588,23.688 483.9618,21.658 C484.7928,20.256 485.8238,19.472 487.5668,19.618 C488.9948,20.577 489.6748,22.209 490.7078,23.56 C494.1648,28.081 497.5908,32.629 501.1778,37.045 C505.6838,42.592 510.1298,48.209 515.3128,53.155 C518.8538,56.535 522.5288,59.778 526.2328,62.979 C527.3158,63.916 528.6488,64.624 529.9698,65.205 C530.9038,65.617 532.0038,65.715 533.0418,65.81 C533.8848,65.888 534.5968,65.435 535.0258,64.704 C536.5228,62.155 537.7018,59.477 537.2848,56.436 C536.4938,50.663 535.5278,44.919 533.8038,39.332 C532.2838,34.408 530.7348,29.491 529.2738,24.549 C528.6118,22.311 529.2248,20.068 529.7308,17.899 C530.0548,16.508 530.7518,15.182 531.4258,13.902 C531.8708,13.057 533.1558,12.877 533.8658,13.48 C534.9798,14.426 536.0148,15.432 536.1868,17.035 C536.6568,21.432 538.3398,25.502 539.9498,29.535 C542.7318,36.507 544.1128,43.764 544.7238,51.157 C545.3848,59.151 543.1918,66.64 539.7788,73.802 C539.5528,74.276 539.2208,74.702 538.9178,75.136 C535.9978,79.32 532.4448,80.636 527.5238,79.342 C524.4498,78.533 521.4758,77.383 519.0728,75.122 C518.3088,74.403 517.3708,73.867 516.5028,73.262 C512.1418,70.223 508.1918,66.729 504.6648,62.746 C502.2078,59.973 499.6608,57.281 497.1978,54.513 C496.0578,53.232 495.0638,51.822 493.9168,50.548 C493.5488,50.14 492.9048,49.98 492.2098,49.613" id="Fill-24"></path>
                    <g id="Group-28" transform="translate(247.000000, 19.000000)">
                        <path d="M41.6332,18.0215 C39.6932,18.3845 38.1172,18.5555 36.6132,18.9815 C29.0962,21.1065 21.5852,23.2655 14.5832,26.8375 C13.2892,27.4975 12.0322,28.2295 10.7532,28.9185 C9.3542,29.6715 7.9752,30.4655 6.5412,31.1445 C4.9712,31.8875 4.1772,31.6155 3.1742,30.1815 C3.0982,30.0725 2.9822,29.9825 2.9372,29.8635 C1.1832,25.2755 -0.6238,20.7345 1.6642,15.7235 C2.2602,14.4205 2.9542,13.4665 4.1892,12.8545 C4.6632,12.6195 5.1282,12.3515 5.6252,12.1775 C9.6142,10.7825 13.6072,9.4025 17.6022,8.0275 C19.3552,7.4245 21.1262,6.8745 22.8712,6.2505 C26.2212,5.0505 29.5342,3.8085 33.1872,3.7505 C34.7492,3.7265 36.2942,3.1245 37.8652,2.9035 C43.6292,2.0945 49.3882,1.2145 55.1762,0.6175 C57.5132,0.3765 59.9222,0.7595 62.2912,0.9405 C62.9262,0.9895 63.6902,1.1735 64.1332,1.5805 C65.6222,2.9515 67.3362,3.7575 69.2162,4.4945 C71.4932,5.3875 71.8932,10.0975 69.9472,11.7495 C68.4482,13.0215 66.8992,14.1275 64.7142,14.3015 C61.1582,14.5865 57.6282,15.2325 54.0962,15.7825 C52.6692,16.0055 51.2662,16.3775 49.6312,16.7295 C49.5002,17.8415 49.2282,18.8695 49.2842,19.8785 C49.7062,27.4125 50.0892,34.9475 51.4222,42.4035 C52.3542,47.6115 52.9312,52.8835 53.8892,58.0865 C54.9672,63.9375 56.3982,69.6985 58.6742,75.2425 C60.0912,78.6955 59.1242,82.0135 57.1862,85.0495 C56.2532,86.5115 54.8922,85.9335 53.5642,85.6155 C52.0002,82.5605 50.7542,79.3945 49.7542,76.0795 C47.3372,68.0645 45.8022,59.8615 44.7352,51.6075 C43.8552,44.7975 42.7362,37.9865 42.7072,31.0685 C42.6912,27.3665 42.2932,23.6665 42.0432,19.9675 C42.0092,19.4575 41.8352,18.9565 41.6332,18.0215" id="Fill-26"></path>
                    </g>
                    <path d="M474.8625,85.6873 C471.8965,84.2663 470.7905,81.7173 469.8135,79.1113 C468.0525,74.4113 466.3275,69.6973 464.6425,64.9693 C464.0235,63.2333 463.3725,61.4733 463.0615,59.6683 C462.0265,53.6813 460.7935,47.7243 460.8685,41.5833 C460.9215,37.2273 460.3555,32.8723 461.0215,28.5133 C461.4595,25.6423 461.7015,22.7413 462.1085,19.8653 C462.3945,17.8453 463.3085,16.0963 464.7635,14.6513 C465.4535,13.9663 466.2305,13.5103 467.2525,13.8953 C468.1825,14.2463 468.9115,14.8713 468.9955,15.8683 C469.1285,17.4443 469.1415,19.0353 469.1155,20.6183 C469.0475,24.7203 468.8105,28.8223 468.8615,32.9223 C468.9445,39.6843 469.5925,46.4053 471.3155,52.9663 C472.1875,56.2853 473.4435,59.5043 474.3005,62.8263 C475.7495,68.4403 477.7095,73.9303 478.4305,79.7263 C478.6455,81.4553 478.0905,82.8273 476.8995,83.9903 C476.3395,84.5373 475.6955,84.9993 474.8625,85.6873" id="Fill-29"></path>
                    <path d="M570.8158,18.4427 C573.6048,19.9507 574.1118,22.2547 574.2118,24.6657 C574.3478,27.9687 574.3388,31.2797 574.3448,34.5867 C574.3498,37.6267 574.3718,40.6687 574.2448,43.7047 C574.0628,48.0957 574.6648,52.4217 575.1998,56.7497 C575.5428,59.5247 576.3668,62.1687 578.0978,64.4727 C578.6378,65.1907 578.9338,66.1007 579.2988,66.9407 C579.9448,68.4327 579.5428,69.7997 578.6748,71.0547 C578.3018,71.5937 577.7078,71.9887 577.3728,72.5447 C576.0148,74.7977 573.9528,74.8017 571.7918,74.2977 C568.5908,73.5507 566.9258,71.2507 566.3098,68.2207 C564.9618,61.5867 564.4658,54.8667 564.6948,48.1007 C564.8838,42.5527 565.1208,37.0067 565.3528,31.4607 C565.5218,27.4027 566.8988,23.7157 568.9598,20.2737 C569.3468,19.6277 570.0568,19.1757 570.8158,18.4427" id="Fill-31"></path>
                </g>
            </g>
        </g>
    </g>
</svg>