<?xml version="1.0" encoding="UTF-8" standalone="no"?>
<svg width="786px" height="91px" viewBox="0 0 786 91" version="1.1" xmlns="http://www.w3.org/2000/svg" xmlns:xlink="http://www.w3.org/1999/xlink">
    <!-- Generator: Sketch 40 (33762) - http://www.bohemiancoding.com/sketch -->
    <title>Page 1</title>
    <desc>Created with Sketch.</desc>
    <defs>
        <polygon id="path-1" points="63.6738787 0.359728096 0.602778898 0.359728096 0.602778898 74.9045806 63.6738787 74.9045806 63.6738787 0.359728096"></polygon>
        <polygon id="path-3" points="0.0326438011 71.2757807 47.7873606 71.2757807 47.7873606 0.472922349 0.0326438011 0.472922349"></polygon>
    </defs>
    <g id="HP-temp" stroke="none" stroke-width="1" fill="none" fill-rule="evenodd">
        <g id="Desktop-HD-Copy-2" transform="translate(-909.000000, -4439.000000)">
            <g id="Page-1" transform="translate(909.000000, 4439.000000)">
                <polygon id="Fill-1" fill="#0D0F1F" points="22.0402946 17.2546186 22.0402946 45.7630702 10.2309134 45.7630702 10.2309134 17.2546186 0.668705128 17.2546186 0.668705128 83.8079137 10.2309134 83.8079137 10.2309134 54.1771104 22.0402946 54.1771104 22.0402946 83.8079137 31.5988958 83.8079137 31.5988958 17.2546186"></polygon>
                <g id="Group-48" transform="translate(0.669787, 0.559278)">
                    <path d="M48.9274136,67.5454251 C48.9274136,69.8512822 49.565856,71.5491988 50.8463479,72.639175 C52.1268398,73.7291511 53.6453949,74.2759378 55.3947993,74.2759378 C57.1442037,74.2759378 58.6591518,73.7291511 59.9396436,72.639175 C61.2201355,71.5491988 61.8621849,69.8512822 61.8621849,67.5454251 L61.8621849,32.3999902 C61.8621849,30.0941331 61.2201355,28.3962164 59.9396436,27.302643 C58.6591518,26.2126669 57.1442037,25.6694775 55.3947993,25.6694775 C53.6453949,25.6694775 52.1268398,26.2126669 50.8463479,27.302643 C49.565856,28.3962164 48.9274136,30.0941331 48.9274136,32.3999902 L48.9274136,67.5454251 Z M39.3688124,32.3999902 C39.3688124,29.7200158 39.8341179,27.3494077 40.7719429,25.2953603 C41.709768,23.2377155 42.9433686,21.5397989 44.4763518,20.2016104 C46.005728,18.8598246 47.7226692,17.8489887 49.6307824,17.161908 C51.5352886,16.4748273 53.4578299,16.1330857 55.3947993,16.1330857 C57.3281616,16.1330857 59.2507029,16.4748273 61.1588162,17.161908 C63.0633224,17.8489887 64.7802636,18.8598246 66.3132468,20.2016104 C67.84623,21.5397989 69.0798306,23.2377155 70.0176556,25.2953603 C70.9554806,27.3494077 71.4207861,29.7200158 71.4207861,32.3999902 L71.4207861,67.5454251 C71.4207861,70.2865532 70.9554806,72.6715505 70.0176556,74.6968197 C69.0798306,76.7220889 67.84623,78.4056164 66.3132468,79.7438049 C64.7802636,81.0855907 63.0633224,82.0964266 61.1588162,82.77991 C59.2507029,83.4669907 57.3281616,83.8087324 55.3947993,83.8087324 C53.4578299,83.8087324 51.5352886,83.4669907 49.6307824,82.77991 C47.7226692,82.0964266 46.005728,81.0855907 44.4763518,79.7438049 C42.9433686,78.4056164 41.709768,76.7220889 40.7719429,74.6968197 C39.8341179,72.6715505 39.3688124,70.2865532 39.3688124,67.5454251 L39.3688124,32.3999902 Z" id="Fill-2" fill="#0D0F1F"></path>
                    <path d="M110.787074,68.2929401 C110.787074,70.4764897 110.37948,72.4981616 109.567901,74.3687477 C108.756322,76.2393338 107.64536,77.8724993 106.242229,79.2754389 C104.835492,80.6783785 103.194298,81.786341 101.322255,82.5957292 C99.4466049,83.4051174 97.4447092,83.8116102 95.3201748,83.8116102 C93.1956404,83.8116102 91.1973517,83.4051174 89.3217016,82.5957292 C87.4496586,81.786341 85.8084648,80.6783785 84.4017273,79.2754389 C82.9949897,77.8724993 81.8840278,76.2393338 81.0760555,74.3687477 C80.2608691,72.4981616 79.8568829,70.4764897 79.8568829,68.2929401 L79.8568829,16.693542 L89.4154841,16.693542 L89.4154841,67.3576471 C89.4154841,69.7282552 89.9781792,71.4693392 91.1035692,72.5916909 C92.2289592,73.7140425 93.6356968,74.2752184 95.3201748,74.2752184 C97.0082598,74.2752184 98.4149974,73.7140425 99.5403874,72.5916909 C100.66217,71.4693392 101.228472,69.7282552 101.228472,67.3576471 L101.228472,16.693542 L110.787074,16.693542 L110.787074,68.2929401 Z" id="Fill-4" fill="#0D0F1F"></path>
                    <path d="M150.715695,35.8562577 L141.157094,35.8562577 L141.157094,33.7050837 C141.157094,31.5251314 140.64129,29.6401562 139.609683,28.0537553 C138.578075,26.4601598 136.843099,25.668758 134.408361,25.668758 C133.095406,25.668758 132.016907,25.9169704 131.172865,26.4169925 C130.328822,26.9170145 129.672345,27.5537332 129.203432,28.3307459 C128.73452,29.1113559 128.406281,30.0142734 128.222323,31.0430958 C128.031151,32.0719181 127.940975,33.1475051 127.940975,34.2662595 C127.940975,35.5756698 127.987867,36.6836323 128.081649,37.5865498 C128.175432,38.4894674 128.406281,39.2700773 128.785018,39.9211852 C129.156541,40.5758903 129.704808,41.1550526 130.422605,41.6514773 C131.140402,42.1514994 132.125118,42.6515214 133.373147,43.1479462 L140.688182,46.0473547 C142.809109,46.8567429 144.529657,47.8064251 145.842612,48.8964012 C147.15196,49.9863773 148.16914,51.2670093 148.886937,52.7275054 C149.604734,54.195196 150.088074,55.8787235 150.340565,57.7780879 C150.58945,59.6774522 150.715695,61.8430154 150.715695,64.2747773 C150.715695,67.0770592 150.434348,69.6814906 149.871653,72.0772797 C149.308958,74.4802634 148.385561,76.5343108 147.108676,78.2502138 C145.824577,79.9625196 144.122064,81.3186945 141.99753,82.3151413 C139.872995,83.3115881 137.279548,83.8116102 134.217189,83.8116102 C131.90509,83.8116102 129.751699,83.4051174 127.75341,82.5957292 C125.751515,81.786341 124.034574,80.6783785 122.595373,79.2754389 C121.159779,77.8724993 120.019961,76.2069582 119.175918,74.2752184 C118.331876,72.3434785 117.909855,70.2570555 117.909855,68.0123522 L117.909855,64.4582386 L127.472063,64.4582386 L127.472063,67.4511764 C127.472063,69.1958576 127.987867,70.7714667 129.015867,72.170809 C130.047475,73.5737486 131.782451,74.2752184 134.217189,74.2752184 C135.843955,74.2752184 137.110019,74.0413951 138.01538,73.5737486 C138.920742,73.106102 139.609683,72.4513969 140.078595,71.6132304 C140.547508,70.7714667 140.839677,69.7282552 140.965922,68.4799987 C141.092168,67.2353395 141.157094,65.8611782 141.157094,64.3683066 C141.157094,62.6236253 141.092168,61.1883102 140.965922,60.0659586 C140.839677,58.9472042 140.576364,58.0442867 140.172378,57.357206 C139.764785,56.6701253 139.20209,56.1089495 138.484293,55.6736785 C137.762889,55.2384075 136.810636,54.770761 135.623927,54.2707389 L128.785018,51.4684571 C124.658588,49.7849296 121.895611,47.5582127 120.488874,44.784709 C119.082136,42.0112054 118.378767,38.536232 118.378767,34.3597888 C118.378767,31.8704704 118.721434,29.4998622 119.410375,27.2551589 C120.095708,25.0140529 121.109281,23.082313 122.454699,21.4599393 C123.800117,19.8411629 125.50263,18.549739 127.562238,17.5820704 C129.625453,16.6179991 132.031335,16.1323662 134.779884,16.1323662 C137.153303,16.1323662 139.328335,16.5712345 141.294161,17.4417765 C143.263594,18.3159157 144.951679,19.4670456 146.358416,20.8987635 C147.761547,22.3340786 148.840045,23.9384659 149.590305,25.7155227 C150.340565,27.4889822 150.715695,29.3128036 150.715695,31.1833897 L150.715695,35.8562577 Z" id="Fill-6" fill="#0D0F1F"></path>
                    <polygon id="Fill-8" fill="#0D0F1F" points="157.837755 16.6949809 186.333208 16.6949809 186.333208 25.6665997 167.396356 25.6665997 167.396356 45.2034325 183.894863 45.2034325 183.894863 54.1786485 167.396356 54.1786485 167.396356 73.7154814 186.333208 73.7154814 186.333208 83.248276 157.837755 83.248276"></polygon>
                    <path d="M212.081915,67.5454251 C212.081915,69.8512822 212.720358,71.5491988 214.00085,72.639175 C215.281341,73.7291511 216.799897,74.2759378 218.549301,74.2759378 C220.298705,74.2759378 221.813653,73.7291511 223.094145,72.639175 C224.374637,71.5491988 225.016687,69.8512822 225.016687,67.5454251 L225.016687,32.3999902 C225.016687,30.0941331 224.374637,28.3962164 223.094145,27.302643 C221.813653,26.2126669 220.298705,25.6694775 218.549301,25.6694775 C216.799897,25.6694775 215.281341,26.2126669 214.00085,27.302643 C212.720358,28.3962164 212.081915,30.0941331 212.081915,32.3999902 L212.081915,67.5454251 Z M202.523314,32.3999902 C202.523314,29.7200158 202.98862,27.3494077 203.926445,25.2953603 C204.86427,23.2377155 206.09787,21.5397989 207.630853,20.2016104 C209.16023,18.8598246 210.877171,17.8489887 212.785284,17.161908 C214.68979,16.4748273 216.612332,16.1330857 218.549301,16.1330857 C220.482663,16.1330857 222.405205,16.4748273 224.313318,17.161908 C226.217824,17.8489887 227.934765,18.8598246 229.467748,20.2016104 C231.000732,21.5397989 232.234332,23.2377155 233.172157,25.2953603 C234.109982,27.3494077 234.575288,29.7200158 234.575288,32.3999902 L234.575288,67.5454251 C234.575288,70.2865532 234.109982,72.6715505 233.172157,74.6968197 C232.234332,76.7220889 231.000732,78.4056164 229.467748,79.7438049 C227.934765,81.0855907 226.217824,82.0964266 224.313318,82.77991 C222.405205,83.4669907 220.482663,83.8087324 218.549301,83.8087324 C216.612332,83.8087324 214.68979,83.4669907 212.785284,82.77991 C210.877171,82.0964266 209.16023,81.0855907 207.630853,79.7438049 C206.09787,78.4056164 204.86427,76.7220889 203.926445,74.6968197 C202.98862,72.6715505 202.523314,70.2865532 202.523314,67.5454251 L202.523314,32.3999902 Z" id="Fill-10" fill="#0D0F1F"></path>
                    <polygon id="Fill-12" fill="#0D0F1F" points="243.011385 16.6949809 271.506837 16.6949809 271.506837 25.6665997 252.569986 25.6665997 252.569986 45.8581377 269.068492 45.8581377 269.068492 54.8333537 252.569986 54.8333537 252.569986 83.248276 243.011385 83.248276"></polygon>
                    <polygon id="Fill-14" fill="#0D0F1F" points="0 16.6949809 9.55860121 16.6949809 9.55860121 45.2034325 21.3715895 45.2034325 21.3715895 16.6949809 30.9301907 16.6949809 30.9301907 83.248276 21.3715895 83.248276 21.3715895 53.6174727 9.55860121 53.6174727 9.55860121 83.248276 0 83.248276"></polygon>
                    <path d="M48.9274136,67.5454251 C48.9274136,69.8512822 49.565856,71.5491988 50.8463479,72.639175 C52.1268398,73.7291511 53.6453949,74.2759378 55.3947993,74.2759378 C57.1442037,74.2759378 58.6591518,73.7291511 59.9396436,72.639175 C61.2201355,71.5491988 61.8621849,69.8512822 61.8621849,67.5454251 L61.8621849,32.3999902 C61.8621849,30.0941331 61.2201355,28.3962164 59.9396436,27.302643 C58.6591518,26.2126669 57.1442037,25.6694775 55.3947993,25.6694775 C53.6453949,25.6694775 52.1268398,26.2126669 50.8463479,27.302643 C49.565856,28.3962164 48.9274136,30.0941331 48.9274136,32.3999902 L48.9274136,67.5454251 Z M39.3688124,32.3999902 C39.3688124,29.7200158 39.8341179,27.3494077 40.7719429,25.2953603 C41.709768,23.2377155 42.9433686,21.5397989 44.4763518,20.2016104 C46.005728,18.8598246 47.7226692,17.8489887 49.6307824,17.161908 C51.5352886,16.4748273 53.4578299,16.1330857 55.3947993,16.1330857 C57.3281616,16.1330857 59.2507029,16.4748273 61.1588162,17.161908 C63.0633224,17.8489887 64.7802636,18.8598246 66.3132468,20.2016104 C67.84623,21.5397989 69.0798306,23.2377155 70.0176556,25.2953603 C70.9554806,27.3494077 71.4207861,29.7200158 71.4207861,32.3999902 L71.4207861,67.5454251 C71.4207861,70.2865532 70.9554806,72.6715505 70.0176556,74.6968197 C69.0798306,76.7220889 67.84623,78.4056164 66.3132468,79.7438049 C64.7802636,81.0855907 63.0633224,82.0964266 61.1588162,82.77991 C59.2507029,83.4669907 57.3281616,83.8087324 55.3947993,83.8087324 C53.4578299,83.8087324 51.5352886,83.4669907 49.6307824,82.77991 C47.7226692,82.0964266 46.005728,81.0855907 44.4763518,79.7438049 C42.9433686,78.4056164 41.709768,76.7220889 40.7719429,74.6968197 C39.8341179,72.6715505 39.3688124,70.2865532 39.3688124,67.5454251 L39.3688124,32.3999902 Z" id="Fill-16" fill="#0D0F1F"></path>
                    <path d="M110.787074,68.2929401 C110.787074,70.4764897 110.37948,72.4981616 109.567901,74.3687477 C108.756322,76.2393338 107.64536,77.8724993 106.242229,79.2754389 C104.835492,80.6783785 103.194298,81.786341 101.322255,82.5957292 C99.4466049,83.4051174 97.4447092,83.8116102 95.3201748,83.8116102 C93.1956404,83.8116102 91.1973517,83.4051174 89.3217016,82.5957292 C87.4496586,81.786341 85.8084648,80.6783785 84.4017273,79.2754389 C82.9949897,77.8724993 81.8840278,76.2393338 81.0760555,74.3687477 C80.2608691,72.4981616 79.8568829,70.4764897 79.8568829,68.2929401 L79.8568829,16.693542 L89.4154841,16.693542 L89.4154841,67.3576471 C89.4154841,69.7282552 89.9781792,71.4693392 91.1035692,72.5916909 C92.2289592,73.7140425 93.6356968,74.2752184 95.3201748,74.2752184 C97.0082598,74.2752184 98.4149974,73.7140425 99.5403874,72.5916909 C100.66217,71.4693392 101.228472,69.7282552 101.228472,67.3576471 L101.228472,16.693542 L110.787074,16.693542 L110.787074,68.2929401 Z" id="Fill-18" fill="#0D0F1F"></path>
                    <path d="M150.715695,35.8562577 L141.157094,35.8562577 L141.157094,33.7050837 C141.157094,31.5251314 140.64129,29.6401562 139.609683,28.0537553 C138.578075,26.4601598 136.843099,25.668758 134.408361,25.668758 C133.095406,25.668758 132.016907,25.9169704 131.172865,26.4169925 C130.328822,26.9170145 129.672345,27.5537332 129.203432,28.3307459 C128.73452,29.1113559 128.406281,30.0142734 128.222323,31.0430958 C128.031151,32.0719181 127.940975,33.1475051 127.940975,34.2662595 C127.940975,35.5756698 127.987867,36.6836323 128.081649,37.5865498 C128.175432,38.4894674 128.406281,39.2700773 128.785018,39.9211852 C129.156541,40.5758903 129.704808,41.1550526 130.422605,41.6514773 C131.140402,42.1514994 132.125118,42.6515214 133.373147,43.1479462 L140.688182,46.0473547 C142.809109,46.8567429 144.529657,47.8064251 145.842612,48.8964012 C147.15196,49.9863773 148.16914,51.2670093 148.886937,52.7275054 C149.604734,54.195196 150.088074,55.8787235 150.340565,57.7780879 C150.58945,59.6774522 150.715695,61.8430154 150.715695,64.2747773 C150.715695,67.0770592 150.434348,69.6814906 149.871653,72.0772797 C149.308958,74.4802634 148.385561,76.5343108 147.108676,78.2502138 C145.824577,79.9625196 144.122064,81.3186945 141.99753,82.3151413 C139.872995,83.3115881 137.279548,83.8116102 134.217189,83.8116102 C131.90509,83.8116102 129.751699,83.4051174 127.75341,82.5957292 C125.751515,81.786341 124.034574,80.6783785 122.595373,79.2754389 C121.159779,77.8724993 120.019961,76.2069582 119.175918,74.2752184 C118.331876,72.3434785 117.909855,70.2570555 117.909855,68.0123522 L117.909855,64.4582386 L127.472063,64.4582386 L127.472063,67.4511764 C127.472063,69.1958576 127.987867,70.7714667 129.015867,72.170809 C130.047475,73.5737486 131.782451,74.2752184 134.217189,74.2752184 C135.843955,74.2752184 137.110019,74.0413951 138.01538,73.5737486 C138.920742,73.106102 139.609683,72.4513969 140.078595,71.6132304 C140.547508,70.7714667 140.839677,69.7282552 140.965922,68.4799987 C141.092168,67.2353395 141.157094,65.8611782 141.157094,64.3683066 C141.157094,62.6236253 141.092168,61.1883102 140.965922,60.0659586 C140.839677,58.9472042 140.576364,58.0442867 140.172378,57.357206 C139.764785,56.6701253 139.20209,56.1089495 138.484293,55.6736785 C137.762889,55.2384075 136.810636,54.770761 135.623927,54.2707389 L128.785018,51.4684571 C124.658588,49.7849296 121.895611,47.5582127 120.488874,44.784709 C119.082136,42.0112054 118.378767,38.536232 118.378767,34.3597888 C118.378767,31.8704704 118.721434,29.4998622 119.410375,27.2551589 C120.095708,25.0140529 121.109281,23.082313 122.454699,21.4599393 C123.800117,19.8411629 125.50263,18.549739 127.562238,17.5820704 C129.625453,16.6179991 132.031335,16.1323662 134.779884,16.1323662 C137.153303,16.1323662 139.328335,16.5712345 141.294161,17.4417765 C143.263594,18.3159157 144.951679,19.4670456 146.358416,20.8987635 C147.761547,22.3340786 148.840045,23.9384659 149.590305,25.7155227 C150.340565,27.4889822 150.715695,29.3128036 150.715695,31.1833897 L150.715695,35.8562577 Z" id="Fill-20" fill="#0D0F1F"></path>
                    <polygon id="Fill-22" fill="#0D0F1F" points="157.837755 16.6949809 186.333208 16.6949809 186.333208 25.6665997 167.396356 25.6665997 167.396356 45.2034325 183.894863 45.2034325 183.894863 54.1786485 167.396356 54.1786485 167.396356 73.7154814 186.333208 73.7154814 186.333208 83.248276 157.837755 83.248276"></polygon>
                    <path d="M212.081915,67.5454251 C212.081915,69.8512822 212.720358,71.5491988 214.00085,72.639175 C215.281341,73.7291511 216.799897,74.2759378 218.549301,74.2759378 C220.298705,74.2759378 221.813653,73.7291511 223.094145,72.639175 C224.374637,71.5491988 225.016687,69.8512822 225.016687,67.5454251 L225.016687,32.3999902 C225.016687,30.0941331 224.374637,28.3962164 223.094145,27.302643 C221.813653,26.2126669 220.298705,25.6694775 218.549301,25.6694775 C216.799897,25.6694775 215.281341,26.2126669 214.00085,27.302643 C212.720358,28.3962164 212.081915,30.0941331 212.081915,32.3999902 L212.081915,67.5454251 Z M202.523314,32.3999902 C202.523314,29.7200158 202.98862,27.3494077 203.926445,25.2953603 C204.86427,23.2377155 206.09787,21.5397989 207.630853,20.2016104 C209.16023,18.8598246 210.877171,17.8489887 212.785284,17.161908 C214.68979,16.4748273 216.612332,16.1330857 218.549301,16.1330857 C220.482663,16.1330857 222.405205,16.4748273 224.313318,17.161908 C226.217824,17.8489887 227.934765,18.8598246 229.467748,20.2016104 C231.000732,21.5397989 232.234332,23.2377155 233.172157,25.2953603 C234.109982,27.3494077 234.575288,29.7200158 234.575288,32.3999902 L234.575288,67.5454251 C234.575288,70.2865532 234.109982,72.6715505 233.172157,74.6968197 C232.234332,76.7220889 231.000732,78.4056164 229.467748,79.7438049 C227.934765,81.0855907 226.217824,82.0964266 224.313318,82.77991 C222.405205,83.4669907 220.482663,83.8087324 218.549301,83.8087324 C216.612332,83.8087324 214.68979,83.4669907 212.785284,82.77991 C210.877171,82.0964266 209.16023,81.0855907 207.630853,79.7438049 C206.09787,78.4056164 204.86427,76.7220889 203.926445,74.6968197 C202.98862,72.6715505 202.523314,70.2865532 202.523314,67.5454251 L202.523314,32.3999902 Z" id="Fill-24" fill="#0D0F1F"></path>
                    <polygon id="Fill-26" fill="#0D0F1F" points="243.011385 16.6949809 271.506837 16.6949809 271.506837 25.6665997 252.569986 25.6665997 252.569986 45.8581377 269.068492 45.8581377 269.068492 54.8333537 252.569986 54.8333537 252.569986 83.248276 243.011385 83.248276"></polygon>
                    <path d="M348.295589,66.3086799 C348.659898,67.3806697 349.04585,68.3843111 349.330804,69.4167307 C349.449836,69.8412098 349.485906,70.3628156 349.348839,70.7693083 C348.804179,72.3413201 348.209021,73.8665672 347.065596,75.1795748 C346.510115,75.8162935 346.228767,76.7731703 345.734606,77.5321965 C345.298156,78.2084854 344.883349,78.9243443 344.320654,79.4855201 C342.398113,81.4100654 340.2844,82.9137289 337.405998,83.2338869 C334.303962,83.5756286 331.241602,84.2591119 328.150387,84.7303557 C325.358554,85.1548349 322.5559,84.9174143 319.792923,84.4929352 C317.470002,84.1368044 315.150689,83.6727551 312.885481,83.0648147 C307.175569,81.532373 301.829967,79.2480996 297.166091,75.4853437 C294.276868,73.1579029 292.170369,70.3700101 290.965624,66.8806476 C290.608529,65.8446307 290.009764,64.8697676 289.79695,63.812167 C289.338859,61.5602691 289.147687,59.2688011 289.328038,56.9521522 C289.49396,54.8513401 289.526424,52.7397362 289.634634,50.6353268 C289.83302,46.7790416 290.442607,42.9839102 292.065765,39.4693667 C293.274117,36.861338 294.965809,34.4979244 296.938848,32.3899178 C299.204056,29.972545 301.472872,27.5335885 304.286347,25.7205589 C306.991611,23.9722803 309.794265,22.4002685 312.968442,21.6268531 C313.156007,21.5800885 313.339965,21.522532 313.513102,21.4469891 C317.112907,19.9037556 320.893064,19.0044353 324.74536,18.4648432 C326.779719,18.180658 328.87179,18.2418117 330.938613,18.2058389 C332.814263,18.1734634 334.69352,18.1698661 336.56917,18.2490063 C341.016624,18.4396622 345.020416,19.8749773 348.392979,22.457825 C348.436263,23.213254 348.454298,23.7456516 348.493976,24.2780492 C348.548081,25.0586592 349.024207,25.799699 348.497583,26.6306709 C348.299197,26.9364398 348.429049,27.476032 348.468726,27.9041084 C348.580544,29.051641 348.457905,30.0444906 347.00067,30.2891057 C347.00067,30.817906 346.910494,31.3071362 347.025919,31.7424072 C347.188235,32.3719314 347.188235,32.9151208 346.885245,33.5086721 C346.517329,34.2209338 346.037595,34.7389422 345.334227,35.1490323 C344.147517,35.8397102 343.07984,35.8684885 341.831811,35.210186 C338.791094,33.609396 335.494278,32.9762746 332.074824,33.0698039 C329.236099,33.1453468 326.368519,33.1057767 323.573079,33.519464 C318.451112,34.274893 313.559993,35.8576966 309.083682,38.5376709 C308.221605,39.0556794 307.402811,39.6492307 306.591232,40.2463794 C306.338741,40.4298407 306.180032,40.7356096 305.898684,41.0881431 C306.930292,41.6169434 307.929436,41.4982332 308.899724,41.4946359 C312.016189,41.4766495 315.136261,41.4118984 318.252726,41.419093 C320.463828,41.4262875 322.674931,41.5018304 324.882427,41.5881652 C326.657081,41.6601108 328.435341,41.7320564 330.199174,41.9263096 C331.227174,42.0414226 332.222711,42.4083452 333.492382,42.7213087 C333.730445,42.9839102 334.239035,43.4371676 334.603344,43.9839543 C334.877478,44.4012389 335.072257,44.9336365 335.097506,45.426464 C335.137183,46.0739745 334.956832,46.7358742 334.902727,47.3941767 C334.823372,48.3798316 334.18493,49.318722 333.250712,49.8367304 C332.608662,50.189264 332.486024,50.7900099 332.608662,51.4411177 C332.651947,51.6605519 332.983792,51.9015697 332.936901,52.0490582 C332.554557,53.21098 332.168606,54.3836936 331.649195,55.4880588 C331.483272,55.8405923 330.94222,56.1031939 330.516591,56.2362933 C329.430878,56.5816322 328.330738,56.7291207 327.147635,56.7075371 C321.751534,56.6104105 316.355433,56.6319942 310.959332,56.6643697 C308.502952,56.6751615 306.050179,56.7902745 303.597406,56.9017902 C302.219525,56.962944 300.848857,57.103238 299.287018,57.2219482 C299.954317,58.999005 300.838036,60.4595011 302.118528,61.6322147 C305.361238,64.607166 309.278461,66.3698337 313.354393,67.90947 C316.66203,69.1613237 320.0382,70.1217978 323.518974,70.5570688 C326.75447,70.9599642 330.036858,71.1650092 333.30121,70.5930416 C335.768411,70.1613678 338.23922,69.7620697 340.710028,69.3735633 C342.037411,69.1613237 343.011306,68.499424 343.693033,67.333905 C344.097019,66.6396298 344.61643,66.0137029 345.013202,65.4633189 C346.387476,65.3518032 347.357764,66.0208975 348.295589,66.3086799" id="Fill-28" fill="#0D0F1F"></path>
                    <g id="Group-32" transform="translate(721.403865, 0.000000)">
                        <mask id="mask-2" fill="white">
                            <use xlink:href="#path-1"></use>
                        </mask>
                        <g id="Clip-31"></g>
                        <path d="M32.6135866,45.869649 C32.494555,45.9775674 32.3755234,46.0890831 32.2528847,46.1970015 C32.3502742,46.7761638 32.8913271,46.8517067 33.4684502,46.9164577 C33.1834957,46.5675215 32.8985412,46.2185852 32.6135866,45.869649 M3.71775482,17.4763104 C3.21998615,16.8431889 2.90978249,16.2100675 3.16588086,15.397082 C3.38590904,14.7100013 3.45083539,13.9797533 3.60593722,13.1487814 C4.06402867,12.9545282 4.69886407,12.7530805 4.51490609,11.9041222 C4.4788359,11.7314527 4.67000792,11.4184892 4.84314485,11.3105708 C5.81704006,10.7026303 6.80536336,9.87525569 7.99567974,10.1198708 C8.87579245,10.2997348 9.76672623,10.8177433 10.4592739,11.4076974 C11.3177445,12.1379454 11.9237238,13.1523786 12.7316961,13.950975 C15.6209186,16.7964243 18.0340145,20.0339771 20.5192508,23.2175708 C23.3002627,26.7788789 26.0740606,30.3545762 29.0101743,33.7863822 C31.2212772,36.36923 33.6632293,38.7650191 36.051076,41.1931837 C37.8040874,42.9738378 39.5751339,44.7472973 41.447177,46.4020466 C44.5023223,49.1000073 47.6404291,51.708036 50.7641079,54.3304538 C51.1897361,54.6901819 51.7343961,54.909616 52.4161227,55.3089142 C52.5640105,54.704571 52.7118983,54.2764946 52.7696106,53.834029 C53.2024529,50.5748925 52.9716037,47.3049641 52.6830421,44.0638139 C52.4053017,40.9161931 51.8534277,37.7793641 51.2294134,34.6785079 C50.4394761,30.7682635 49.104879,27.0055076 47.6007519,23.3146974 C46.497004,20.6023475 45.3283297,17.9187759 44.1380134,15.2423989 C43.8963431,14.6956122 43.4635008,14.2207711 43.0739427,13.7531246 C41.6888472,12.0983753 41.4219278,11.3501409 42.2948265,9.61984874 C42.6591354,8.89319799 42.9585181,8.13776899 43.31922,7.41111823 C44.1019432,5.84270374 44.1127642,5.84630102 45.4581824,5.32829256 C45.4076842,4.43616688 45.3571859,3.56562489 45.3030806,2.61234543 C45.8585616,2.57277534 46.2697618,2.5439971 46.7386743,2.51162157 C47.0272358,1.87130556 46.7927796,1.03313909 47.6620712,0.579881691 C48.4916857,0.141013414 49.1409492,0.457574138 49.7974267,0.65182731 C52.4161227,6.82116416 55.0167837,12.9473336 57.6715499,19.2066025 C58.0394658,18.8648608 58.2306379,18.688594 58.5624836,18.3792279 C59.0963225,20.2030493 59.6445894,21.9261469 60.0774318,23.6780227 C60.1712143,24.0485427 59.8429755,24.5197865 59.6698386,25.0629759 C59.8790457,25.1744916 60.1423581,25.3183829 60.5102741,25.5162333 C60.9611515,26.8544218 61.426457,28.3472934 61.985545,29.8041922 C62.1153977,30.1387393 62.5698821,30.3509789 63.0243666,30.7538744 C63.0243666,31.6028327 62.9666542,32.6496415 63.0424016,33.6856584 C63.100114,34.5274221 63.3778544,35.3511995 63.4463878,36.1929632 C63.4932791,36.7469445 63.3309632,37.3153149 63.2804649,37.8764907 C63.2516088,38.1570786 63.2371807,38.4448611 63.2588228,38.725449 C63.3562123,39.9593164 63.4499948,41.1931837 63.5762405,42.4198565 C63.9008722,45.5315046 63.3201421,48.6143744 63.2227526,51.708036 C63.1433982,54.2441191 62.4977417,56.7262429 61.04772,58.9241816 C59.8574036,60.7264193 58.7716908,62.5970054 57.6246586,64.4280215 C57.4515217,64.7050121 57.2495286,65.0611429 56.9790022,65.1582695 C56.4631984,65.3489254 56.4704124,65.6331106 56.394665,66.1043544 C56.3153106,66.5935846 55.8752543,67.1008012 55.45684,67.4389456 C54.8797169,67.9065921 54.4288395,68.6296456 53.4765864,68.5612973 C53.2637723,68.5469082 52.9643897,69.0793057 52.7768247,69.4066583 C51.9904944,70.7664305 51.4855117,70.9534891 49.9561355,70.6477202 C48.2428014,70.3023813 46.8396708,69.4138529 45.5303228,68.3382659 C44.635782,67.6080178 43.8205957,66.7842405 42.9116268,66.0719789 C41.9016614,65.280577 40.8123416,64.5970937 39.7879481,63.820081 C38.5327053,62.8668015 37.2486065,61.9423003 36.0979673,60.8739079 C34.8066544,59.672416 33.7065135,58.2658792 32.4188076,57.06079 C30.9507507,55.6866287 29.3131639,54.4923314 27.837893,53.1253647 C26.0560255,51.4706154 24.3535124,49.7295315 22.6365712,48.0028366 C21.5977496,46.9560278 20.6094263,45.8588571 19.5850328,44.8012565 C19.4660012,44.6753517 19.2567941,44.6357816 18.8564149,44.448723 C18.8311658,44.9811206 18.7482043,45.3804188 18.8023096,45.754536 C19.1197273,47.9380855 19.4840363,50.1144405 19.805061,52.2979901 C20.1188717,54.4311777 20.3533279,56.5787544 20.7176369,58.7011502 C21.0386616,60.5861254 21.4570759,62.4531142 21.8971322,64.3129085 C22.1532306,65.3920928 21.857455,66.406526 21.2767249,67.1727468 C20.356935,68.3814332 19.8663803,69.8275402 18.9141272,71.0074483 C18.7265622,71.2412716 18.7698465,71.6513616 18.6255657,71.9427414 C18.3694673,72.4643471 18.3261831,73.1586223 17.4532844,73.1981924 C17.1755439,73.2089843 16.8905894,73.6586444 16.6561331,73.9464269 C16.1800066,74.5327837 15.6389537,74.971652 14.6830936,74.896109 C14.3368197,74.1514719 14.1456477,73.1442332 13.5396684,72.5794601 C12.5946294,71.6909317 12.7389101,70.6369284 12.5729873,69.5937169 C12.1293239,66.8489915 11.6784465,64.1078634 11.1806778,61.3739299 C10.661267,58.5464671 10.0733229,55.7369907 9.52866295,52.9167224 C9.07417851,50.5641006 8.67379937,48.2042843 8.17242368,45.8624544 C7.94157445,44.794062 7.53037424,43.7652396 7.19131443,42.7220281 C7.08671087,42.4054674 6.94243009,42.0996985 6.83421951,41.7831378 C5.90360853,39.0132315 4.97299754,36.2433251 4.04238656,33.4770161 C3.32458971,31.3402312 2.61761392,29.2034463 1.87096092,27.0774532 C1.5860064,26.268065 1.16037812,25.5090387 0.882637629,24.6960532 C0.71671474,24.2176149 0.471437426,23.501756 0.687858585,23.2067789 C1.42729755,22.2031375 1.26498168,20.9944511 1.63289765,19.9152669 C1.93228025,19.033933 2.25330497,18.3504496 3.14063173,17.9907215 C3.34262481,17.9079841 3.48690558,17.6885499 3.71775482,17.4763104" id="Fill-30" fill="#0D0F1F" mask="url(#mask-2)"></path>
                    </g>
                    <path d="M702.786595,16.7162049 C702.786595,16.8061369 702.757739,16.9104581 702.790202,16.986001 C702.948911,17.3529236 702.909234,17.9105022 703.522427,17.8673348 C703.65228,17.8601402 703.865094,17.6371088 703.872308,17.5040094 C703.915592,16.9464309 703.464715,16.8169288 703.046301,16.6946212 C702.97416,16.6694402 702.880378,16.7054131 702.786595,16.7162049 M681.332044,72.7618423 C681.295974,72.8553716 681.256297,72.9453036 681.220227,73.0388329 C681.566501,73.1575432 681.919989,73.2618643 682.262655,73.3949637 C683.272621,73.78347 684.275372,74.1899628 685.285338,74.5748719 C685.674896,74.7223604 686.035598,74.7295549 686.255626,74.0244879 C684.59279,73.5964114 682.962417,73.1791268 681.332044,72.7618423 M709.603862,53.9588547 C709.647146,53.9516601 709.686823,53.9480628 709.730108,53.9444656 C709.621897,52.9480187 709.54615,51.9443773 709.401869,50.9515278 C709.199876,49.5270045 708.961812,48.1096758 708.712928,46.6923471 C708.622753,46.1743387 708.482079,45.6599275 708.319763,45.1599054 C707.865279,43.746174 707.436043,42.3180535 706.898597,40.9331003 C705.892239,38.343058 704.903916,35.7386266 703.746063,33.2133354 C702.728883,30.993813 701.542174,28.8498336 699.958692,26.9504692 C698.891015,25.6698372 697.996474,24.2417167 696.896333,22.9898629 C695.114465,20.9645937 692.953861,19.8962013 690.129565,20.5509064 C687.622686,21.1372632 685.213197,22.0006106 683.034558,23.3100209 C678.331004,26.1374837 674.352462,29.8246967 670.951043,34.1198502 C670.16832,35.1091024 669.537091,36.1846895 669.400025,37.4761133 C669.028502,40.9223085 669.046537,44.3289335 669.96272,47.7247668 C670.799548,50.8292202 672.15218,53.681864 673.912406,56.3258655 C676.076617,59.5814048 678.940591,62.1174879 682.443006,63.8945447 C685.703752,65.5492939 689.090743,66.6824374 692.827615,66.369474 C696.387743,66.074497 699.702594,64.9161725 702.82988,63.2902015 C705.372828,61.9664021 707.497363,60.1030106 708.976241,57.5705248 C709.437939,56.7827202 709.585827,55.9769293 709.603862,55.1063873 C709.611076,54.7250755 709.603862,54.3401665 709.603862,53.9588547 M674.514778,14.0218415 C673.890764,14.1261626 673.573346,14.1765245 673.252321,14.2304838 C673.663521,12.7591958 675.243396,12.0433369 675.683452,10.7914832 C676.238933,9.21227681 678.190331,9.30220884 678.597924,7.79494811 C679.856774,7.13304842 681.115623,6.474746 682.446613,5.77327621 C682.800101,6.21574177 683.110305,6.60424812 683.510684,7.10786745 C683.896635,6.98915718 684.394404,6.93519796 684.787569,6.70497198 C686.086096,5.93515386 687.507262,5.89198648 688.950069,5.80565174 C690.908681,5.69053875 692.863685,5.49988286 694.81869,5.30203241 C696.824192,5.09698739 698.631309,5.67974691 700.341036,6.63302636 C701.246398,7.1366457 702.101262,7.73019706 703.093192,8.35252666 C702.837094,8.67268467 702.663957,8.87772968 702.501641,9.08996926 C702.169795,9.52883754 702.097655,9.98209494 702.566567,10.3598094 C703.057122,10.7519131 703.060729,11.3490617 703.309613,11.8275001 C703.897557,12.9606436 704.669459,14.0038551 705.426934,15.039872 C706.35033,16.3133094 707.392759,17.5004121 708.265658,18.8026279 C708.925742,19.7918801 709.401869,20.9070372 709.946529,21.9718324 C710.487582,23.0330303 710.480368,23.0366275 711.645435,22.8028043 C711.584116,23.1013786 711.429014,23.4107448 711.501154,23.644568 C711.634614,24.0762417 711.865463,24.7921007 712.121561,24.8208789 C713.185632,24.9467837 713.412874,25.730991 713.618474,26.4828227 C713.907036,27.5548124 714.177562,28.5872321 714.945858,29.4649686 C715.371486,29.9506015 715.147851,30.7563925 715.7899,31.3103738 C716.190279,31.6557127 716.100104,32.5370466 716.284062,33.1629734 C716.850364,35.0479487 717.470771,36.9149375 718.015431,38.8071073 C718.213817,39.4941879 718.271529,40.2208387 718.37974,40.9331003 C718.99654,45.0160142 719.414954,49.1205118 719.09393,53.246593 C718.992933,54.552406 718.54927,55.8618163 718.091178,57.1100728 C717.615052,58.4122885 716.998252,59.6713368 716.338167,60.8944124 C714.202812,64.8262405 711.389336,68.2724356 708.280086,71.4452374 C706.541502,73.2186969 704.377291,74.5784691 702.086834,75.6180833 C700.297752,76.4310688 698.43653,77.0893713 696.604164,77.8088274 C696.337245,77.9131486 696.055897,78.0066779 695.77455,78.0318589 C693.772654,78.1973338 691.774365,78.4095734 689.77247,78.481519 C686.555008,78.6002293 683.492649,77.841203 680.473574,76.7728105 C679.658387,76.4850281 678.915341,75.9238522 677.91259,75.9886033 C677.458106,76.0209788 676.657347,75.8842821 676.394035,75.114464 C676.329109,74.9166136 675.921515,74.6719984 675.708701,74.704374 C673.948476,74.9885592 672.837514,73.7618864 671.676054,72.8769552 C668.685835,70.6034737 666.586549,67.5637713 664.840752,64.2758565 C664.728934,64.0636169 664.627938,63.8369882 664.483657,63.6499296 C662.160737,60.6174217 661.262589,57.0057517 660.588076,53.386887 C659.870279,49.5593801 659.848637,45.6671221 660.653003,41.7964477 C661.049775,39.879097 661.204877,37.907787 661.540329,35.9724499 C662.045312,33.0694441 662.957888,30.2851487 664.537762,27.7850384 C666.431448,24.7849061 668.49827,21.8890949 670.395562,18.8925599 C671.380278,17.3349372 672.585023,16.0507079 674.067508,14.9859128 C674.251466,14.8528134 674.291143,14.5218635 674.514778,14.0218415" id="Fill-33" fill="#0D0F1F"></path>
                    <path d="M368.374784,36.306997 C368.374784,36.8753674 368.345928,37.2063172 368.378391,37.5300725 C368.605633,39.8719024 368.804019,42.2209269 369.096188,44.551965 C369.442462,47.3110795 369.741844,50.0881804 370.300932,52.8077248 C371.260399,57.4518145 372.411039,62.0527368 373.478716,66.6752429 C373.806955,68.1033634 374.023376,68.2472547 375.45897,67.9810559 C379.700825,67.1968486 383.697402,65.7255607 387.510021,63.7146806 C389.295496,62.772193 391.091792,61.8476918 392.516564,60.3692093 C393.389463,59.4662918 393.421926,59.3763598 392.801519,58.2540081 C390.97276,54.9588988 388.426204,52.2069788 385.92654,49.4334752 C384.938217,48.3399018 383.838076,47.3470523 382.748756,46.3542027 C381.262664,45.0016251 379.787393,43.6346583 378.214733,42.3864018 C376.865707,41.3144121 375.408472,40.3827163 373.969271,39.4294369 C372.490393,38.4509765 370.982659,37.5120861 369.471318,36.5839876 C369.211612,36.4257073 368.858125,36.42211 368.374784,36.306997 M361.824437,84.9566247 C361.207637,83.9889561 360.630513,83.30907 360.32031,82.5284601 C360.038962,81.823393 360.05339,81.0032129 359.894682,79.9600015 C360.352773,79.5714951 360.980394,79.0355003 361.669335,78.4491435 C360.190457,77.3052081 360.121924,75.5893051 359.851397,74.0496688 C359.714331,73.2762534 360.302275,72.3409604 360.662977,71.517183 C361.030893,70.671822 361.737868,70.2797184 362.686514,70.1250353 C363.833547,69.9379767 364.183428,69.1717559 363.916508,68.0098341 C363.025574,64.1319652 362.073321,60.2684855 361.294205,56.3726302 C360.814471,53.9768411 360.605264,51.5270927 360.277026,49.1025254 C359.952394,46.677958 359.555622,44.2605852 359.324772,41.8288233 C359.072281,39.2064055 358.960464,36.5695985 358.812576,33.9363889 C358.75847,32.9363447 358.744042,31.9327034 358.769292,30.9326592 C358.830611,28.637594 359.191313,26.3892934 359.584478,24.130201 C359.833362,22.6948859 360.280633,21.3207245 360.551159,19.9033958 C360.735117,18.9393245 360.994822,18.1802982 362.221209,18.1587146 C362.81276,18.1479227 363.382669,17.7270408 363.985041,17.6550952 C365.586558,17.4680366 366.964439,18.2018819 368.342321,18.8673789 C370.239613,19.7882828 372.129691,20.7271732 374.016162,21.6732581 C374.355222,21.8423303 374.647391,22.1013345 374.975629,22.2955877 C377.922564,24.0222825 380.642257,26.07633 383.365556,28.1231828 C386.521698,30.4901937 389.54438,33.0226795 392.155862,35.9976308 C394.150544,38.2711124 396.181296,40.5122184 398.118265,42.8360619 C400.152624,45.2750184 401.826281,47.9406036 402.90478,50.9623196 C403.637005,53.0019779 403.604542,55.0092607 403.020205,57.0417245 C402.36012,59.3295952 401.678393,61.6102713 401.003881,63.8945447 C400.935347,64.1247707 400.899277,64.3945667 400.754996,64.5636389 C399.910954,65.5564885 399.773887,66.8335232 399.366294,67.9882504 C398.085802,71.6143096 395.921591,74.4453697 392.534599,76.3879015 C389.443384,78.161361 386.247565,79.6506353 382.921893,80.9600456 C378.889245,82.5464465 374.715924,83.3270564 370.488497,83.999748 C368.735486,84.2803359 366.982475,84.5465347 365.222249,84.7515797 C364.093252,84.8846791 362.953434,84.8918737 361.824437,84.9566247" id="Fill-35" fill="#0D0F1F"></path>
                    <path d="M537.793235,39.4423871 C537.616491,38.8920031 537.540744,38.4747185 537.353179,38.1185877 C536.397319,36.2983635 535.408996,34.4961258 534.4351,32.6830962 C533.666805,31.2477811 532.837191,29.8592306 531.589162,28.7656572 C530.824474,28.0929657 530.337526,28.02102 529.580052,28.7009061 C529.085891,29.1433717 528.616978,29.6541856 528.270704,30.2189587 C526.474409,33.1759237 526.034352,36.5034085 525.796289,39.8596717 C525.716935,40.9244668 526.019924,41.053969 527.109244,40.9064804 C529.291491,40.6115034 531.488166,40.3920693 533.670412,40.1042868 C534.990581,39.92802 536.299929,39.6834049 537.793235,39.4423871 M525.954998,56.1589517 C525.954998,56.7561004 525.933356,57.3244707 525.958605,57.8928411 C526.142563,62.4901662 526.326521,67.0874913 526.539335,71.6848163 C526.579012,72.5841366 526.301272,73.3683438 525.954998,74.1597456 C525.612331,74.9403556 525.229987,75.7245629 525.049636,76.5447429 C524.945032,77.019584 524.721397,77.1454888 524.371516,77.3289502 C523.909818,77.5735653 523.487797,77.8973206 523.076596,78.1671166 C523.051347,80.2931097 521.947599,82.077361 520.389367,82.5845776 C518.26844,80.5844894 518.142194,77.9045151 518.033983,75.2964864 C517.853633,70.8826227 517.853633,66.4615644 517.763457,62.0441034 C517.738208,60.7958469 517.66246,59.5511877 517.629997,58.3029312 C517.611962,57.558294 517.258474,56.9971182 516.652495,56.6373901 C515.887807,56.1805354 515.646137,55.7092916 515.927484,54.7560121 C516.262937,53.640855 516.252116,52.4249741 516.396397,51.194704 C517.62639,50.7882112 517.853633,50.004004 517.561464,48.7413584 C517.28733,47.5614502 517.280116,46.2808182 517.839204,45.0973128 C517.936594,44.8886705 517.940201,44.6332635 517.976271,44.3994403 C518.416328,41.3597378 518.766208,38.3056463 519.325296,35.2875276 C519.621072,33.6975294 520.277549,32.1758795 520.764497,30.6218542 C521.13602,29.4347515 521.464259,28.2332596 521.879066,27.0641433 C522.081059,26.4921756 522.373228,25.9274025 522.73393,25.4381723 C523.220877,24.7690781 523.664541,24.1215675 523.740288,23.2510255 C523.866534,21.747362 524.862071,20.6106213 525.605117,19.4091294 C526.687223,17.6608509 527.88836,15.9701288 529.457414,14.5887729 C531.282565,12.9735938 533.226749,11.7253373 535.82741,12.4879609 C536.191719,12.5958793 536.552421,12.7541596 536.866231,12.9663992 C539.430822,14.7002886 541.389434,16.9773675 542.817813,19.711301 C544.015344,22.002769 545.16959,24.3230152 546.36712,26.6144832 C547.676468,29.1181907 549.075992,31.5751336 550.320413,34.1112167 C551.564835,36.6401052 552.495446,39.3344687 553.891363,41.7698279 C554.890507,43.5181064 555.384669,45.4570409 556.506452,47.1765412 C557.68234,48.9859735 558.29914,51.1731203 559.074649,53.2271677 C561.166721,58.7633831 562.46164,64.5226299 563.630315,70.3070577 C563.843129,71.3574638 563.561781,72.4402453 562.598707,73.2388417 C562.036012,73.7064882 561.588742,74.2856505 561.314608,75.0554686 C560.932264,76.1166665 560.27218,77.0807378 559.702271,78.1419357 C559.381246,78.0520036 559.020544,77.9548771 558.67427,77.8613477 C557.963687,78.7894462 557.281961,79.6851692 556.484809,80.7211861 C554.771475,80.9873849 554.154675,80.4657792 553.151924,78.7498761 C551.878646,76.5735212 551.698295,74.1201755 550.958856,71.8179157 C550.32402,69.8573976 549.710827,67.8860876 549.09042,65.9219722 C548.776609,64.9147336 548.480834,63.9003003 548.152595,62.9002562 C547.611542,61.270688 547.088524,59.6303278 546.478938,58.0259405 C546.006418,56.7740868 545.407653,55.5689976 544.8666,54.3423248 C544.614109,53.7775517 544.181267,53.576104 543.578894,53.6696333 C542.103623,53.8998593 540.628353,54.1300853 539.153082,54.3423248 C537.299074,54.6085236 535.445066,54.8855143 533.583844,55.1085457 C531.387169,55.3711472 529.179673,55.5689976 526.982998,55.8208073 C526.661974,55.8567801 526.358984,56.022255 525.954998,56.1589517" id="Fill-37" fill="#0D0F1F"></path>
                    <path d="M610.815538,8.66117337 C611.634331,9.64682835 612.377377,10.538954 613.268311,11.6109438 C612.922037,12.2404679 612.460339,13.0750371 611.922893,14.0499002 C611.976998,14.1326377 612.128493,14.3592664 612.279988,14.5822978 C612.117672,14.9492205 611.82911,15.3197404 611.807468,15.7010522 C611.746149,16.8773631 610.963426,17.8630181 610.992282,19.0573153 C610.995889,19.3235141 610.884071,19.6940341 610.692899,19.8451199 C609.715397,20.6077434 609.726218,21.7696652 609.459299,22.8020848 C609.232057,23.6798214 608.716253,24.1294815 607.857782,24.1762461 C606.375297,24.2589836 604.889205,24.2805673 603.40672,24.3489156 C601.722242,24.4208613 600.037764,24.4748205 598.356893,24.6115171 C595.236822,24.8597295 592.120357,25.1547066 589.003892,25.4496836 C588.444804,25.5036428 587.896537,25.6511313 587.211204,25.7806335 C587.514193,26.9281661 587.766685,27.939002 588.048032,28.9390461 C589.602657,34.4248996 591.207781,39.8999612 592.711908,45.4002038 C594.089789,50.4363972 595.32339,55.5121606 596.697664,60.5483539 C597.732879,64.3434854 598.883518,68.102644 600.001694,71.8761917 C600.16401,72.4229784 600.459786,72.930195 600.618494,73.4769817 C601.224474,75.606572 600.322719,76.9087877 598.064725,77.11743 C598.025048,77.2757104 597.970942,77.4519772 597.931265,77.6318412 C597.898802,77.7721352 597.87716,77.9124291 597.855518,78.0419312 C597.761735,78.0922932 597.67156,78.1894198 597.613847,78.1750306 C597.007868,77.987972 596.61831,78.1066823 596.41271,78.7829711 C596.221538,79.3981062 595.723769,79.8369744 595.539811,80.534847 C595.384709,81.1212038 594.482955,81.5097101 593.913045,81.9845512 C592.93915,81.2363167 591.543234,79.6247349 591.16089,78.6678581 C590.486377,76.9807334 589.855149,75.2720249 589.22392,73.5633165 C588.549408,71.7251059 587.809969,69.9048817 587.250881,68.0342956 C586.118277,64.2175805 585.068634,60.3792817 584.026206,56.5373857 C582.90803,52.418499 581.883636,48.270834 580.72939,44.1627392 C579.97913,41.4899594 579.001628,38.885528 578.247761,36.2163455 C577.439788,33.3529099 576.77249,30.4499041 576.000588,27.3922153 C575.654314,27.3922153 575.178187,27.3094779 574.738131,27.4066045 C572.206003,27.9605857 569.666662,28.4929833 567.16339,29.1620776 C565.637621,29.5721676 564.183992,30.2412618 562.676258,30.7304921 C562.247023,30.870786 561.745647,30.8168268 561.280342,30.7880486 C561.053099,30.7736594 560.836678,30.5326416 560.613043,30.5326416 C558.860032,30.5326416 558.513758,29.2735933 558.326193,27.9461966 C558.199947,27.0504736 558.167484,26.133167 558.203554,25.2302495 C558.214375,24.9136887 558.502937,24.5683498 558.744607,24.3093455 C559.058418,23.9676039 559.451583,23.6978078 559.722109,23.4711791 C559.480439,22.5035105 559.278446,21.7049141 559.047597,20.7804129 C559.603078,20.4602549 560.13331,20.0789431 559.765394,19.0896909 C559.570615,18.578877 559.967387,17.8270453 560.158559,17.2047156 C560.558938,15.8737217 561.745647,15.4060752 562.878251,15.0787226 C565.778295,14.2477507 568.714408,13.5246972 571.646915,12.805241 C572.656881,12.5570286 573.692095,12.4275265 574.720096,12.2728435 C576.473107,12.0030474 578.222511,11.7044731 579.982737,11.5138172 C583.611398,11.1217135 587.243667,10.7835691 590.879542,10.4382302 C592.888652,10.2475743 594.897762,10.0856966 596.910479,9.90942986 C599.146831,9.71157941 601.38679,9.49574255 603.626749,9.31947578 C605.332869,9.18637639 607.046203,9.11802805 608.752323,8.98133137 C609.462906,8.92377488 610.166275,8.76549452 610.815538,8.66117337" id="Fill-39" fill="#0D0F1F"></path>
                    <g id="Group-43" transform="translate(403.986164, 18.656243)">
                        <mask id="mask-4" fill="white">
                            <use xlink:href="#path-3"></use>
                        </mask>
                        <g id="Clip-42"></g>
                        <path d="M0.434645829,6.58012152 C1.66463942,5.13761186 2.03616241,3.51883543 1.94237991,1.75616776 C3.63767899,0.46114661 3.63767899,0.46114661 5.5818624,0.475535734 C5.75139231,1.09426806 5.88845905,1.73098679 6.11209425,2.33173271 C6.22030483,2.62670975 6.440333,2.94327047 6.70364541,3.1087454 C7.56572303,3.65193482 8.00217237,4.45772576 8.37730238,5.37143512 C10.5667631,10.7062028 11.670511,16.2747937 12.1754937,21.9980677 C12.3594517,24.0916852 12.8608274,26.1529272 13.0988907,28.2465447 C13.4992698,31.73231 14.101642,35.1713106 14.9528986,38.5815329 C16.1179659,43.2544009 18.0982195,47.5423598 20.8900524,51.4382151 C22.3941795,53.5354299 24.3383629,55.1649982 26.7586729,56.1938205 C29.0779863,57.1830728 31.1520224,56.6686616 32.9302829,55.111039 C34.8456102,53.4275115 36.31006,51.398645 37.4895554,49.0748015 C39.8774021,44.3659607 40.036111,39.4952423 39.1343562,34.4806327 C38.6365875,31.6963372 38.1857101,28.8760689 37.3669167,26.1781082 C36.299239,22.6527729 35.177456,19.1058538 32.760753,16.163278 C32.2918405,15.5949076 32.1728089,14.882646 32.3639809,14.0228958 C32.6561495,12.6954992 32.6200793,11.2925596 32.7246828,9.93638466 C33.2729498,9.58025384 33.7887535,9.24570672 34.2829152,8.92554871 C34.0520659,8.12335506 33.7671114,7.42188527 33.6625078,6.69163723 C33.5579043,5.98297288 33.6408657,5.24553029 33.6408657,4.35340461 C34.1422414,4.20231881 34.625582,3.92173089 34.5642627,2.975646 C34.5317995,2.43245658 35.1305647,1.6338602 35.6644036,1.3137022 C36.9737516,0.53668951 38.5103418,1.25974298 39.0477877,2.72383633 C39.5058792,3.96849555 39.9964338,5.2059602 40.4437042,6.45781397 C40.5230586,6.68444267 40.4545252,6.96503059 40.4545252,7.40749614 C40.6925885,7.64851397 41.6736978,7.58736019 41.3166029,8.49747228 C41.2985678,8.54063965 41.0605045,8.50106956 40.8116201,8.50106956 C40.966722,9.67378315 41.1723221,10.8572886 42.1606454,11.6271067 C43.1525757,12.4041194 43.5457408,13.4401363 43.8054462,14.5696825 C44.3969974,17.1381411 44.8514818,19.7461698 45.5764927,22.2750584 C46.1752579,24.3614813 46.5576019,26.4658907 46.7884512,28.6098701 C46.8425565,29.1314759 46.7992722,29.6602762 46.8389494,30.1854792 C46.8714126,30.6603203 46.7812371,31.3725819 47.0445495,31.5596405 C48.0112307,32.2395266 47.7695604,33.1856115 47.7370973,34.0381671 C47.6649569,36.0994091 47.4918199,38.1534565 47.3511462,40.2111012 C47.32229,40.5960103 47.2032584,40.9809193 47.2285075,41.3586338 C47.4268936,44.0529973 46.5395668,46.5674967 45.9624437,49.1359553 C45.3528575,51.8303187 43.9389059,54.1937323 42.8892633,56.7046344 C41.8107645,59.2946767 40.1803918,61.5465746 38.6798717,63.8812099 C36.6022286,67.1043737 33.5759394,69.1836021 30.1168079,70.6333063 C27.8840629,71.5685994 25.4962161,71.4678755 23.3644677,70.4318586 C21.178614,69.3706607 19.0107954,68.1260015 17.1495734,66.5827679 C14.1701754,64.1114359 11.8220058,61.0681362 10.357556,57.4132988 C9.52072751,55.3196813 8.43140767,53.319593 7.72082486,51.1900027 C6.91285254,48.787019 6.252768,46.3120897 5.79828356,43.8227713 C5.11294989,40.0528209 4.66928652,36.239703 4.11019852,32.4445716 C3.56914562,28.800526 3.07859099,25.1456886 2.43654155,21.5160321 C2.16962212,20.0159659 1.68267451,18.5230943 1.08030229,17.1201547 C0.185761495,15.0265372 0.21461765,12.821404 0.0342666836,10.6378544 C0.00901754831,10.3284883 0.283151017,9.93638466 0.524821312,9.67738043 C1.213762,8.92914599 1.20654796,8.15932787 0.734028433,7.3211614 C0.618603814,7.11611639 0.553677466,6.87869584 0.434645829,6.58012152" id="Fill-41" fill="#0D0F1F" mask="url(#mask-4)"></path>
                    </g>
                    <path d="M503.568393,70.2056144 C504.224871,70.4214513 504.668534,70.5005914 504.982345,69.8278999 C504.41965,69.4717691 504.022878,69.5365201 503.568393,70.2056144 M506.77864,69.2955023 C507.687609,69.9142346 507.723679,70.3171301 506.87603,71.1373102 C506.7065,71.2991878 506.5009,71.6840969 506.57304,71.7920153 C507.078023,72.5582362 506.342191,72.8676023 505.99231,73.1302038 C505.656857,73.3856108 505.397152,73.7453389 505.104983,73.939592 C503.564786,74.9468307 502.612533,76.7274848 500.762132,77.2886606 C499.247184,77.7527099 497.710594,78.1699945 496.163182,78.5117361 C493.44349,79.1196766 490.72019,79.7204225 487.978856,80.1988609 C483.845212,80.9111225 479.70796,81.2852398 475.599565,79.9362594 C472.360462,78.8714642 469.225962,77.6987506 466.719084,75.2058349 C464.349272,72.8460186 462.686436,70.1264742 461.654829,66.9644643 C460.432049,63.2125002 459.919852,59.3742014 460.421228,55.4783462 C460.947853,51.391835 461.135418,47.2513646 462.217524,43.2439936 C462.314913,42.877071 462.459194,42.5209401 462.614296,42.1720039 C462.881215,41.5640634 463.220275,40.9849012 463.44391,40.3625716 C464.958858,36.1645447 467.198817,32.4233725 470.36578,29.254168 C471.862693,27.7612964 473.273038,26.1677009 474.89259,24.8259151 C476.638387,23.3762109 478.319258,21.78981 480.487077,20.9120734 C480.793673,20.7897659 481.103877,20.5883181 481.309477,20.3365085 C482.474544,18.9407634 484.140987,18.6134109 485.77136,18.3040447 C488.685831,17.7428689 491.60391,17.7356743 494.521989,18.3831849 C496.174004,18.7501075 497.331857,19.7897217 498.406749,20.9696299 C498.69531,21.2825933 498.810735,21.624335 498.662847,22.1387462 C498.486103,22.7430894 498.558243,23.4373646 498.62317,24.0812779 C498.677275,24.6496483 498.86484,25.2036296 499.005514,25.7612081 C499.157009,26.3547595 499.074047,26.8871571 498.698917,27.3907764 C498.085724,28.2109565 497.486959,29.0347338 498.334608,30.0851399 C498.45364,30.2290311 498.367071,30.7578314 498.215576,30.854958 C497.472531,31.3190072 497.519422,32.0636444 497.458102,32.7543223 C497.324643,34.2471939 496.596025,34.8875099 495.11354,34.606922 C494.226213,34.4378498 493.3461,34.1500673 492.509272,33.8083256 C490.40638,32.9449782 488.234954,32.9881456 486.117634,33.4737785 C483.563864,34.0601353 481.255372,35.2868081 479.206585,36.9379601 C476.346218,39.2474145 473.868196,41.9094024 471.776125,44.9275211 C471.15211,45.8340359 470.59663,46.7837181 469.976222,47.6938302 C468.522593,49.830615 468.65966,52.2084178 469.200713,54.5070803 C469.99065,57.8669407 471.859086,60.6440416 474.513853,62.8743558 C476.010766,64.1370014 477.814275,64.8636522 479.624999,65.4715927 C481.825281,66.2090353 484.112131,66.410483 486.467515,66.2126325 C491.614731,65.7845561 496.65013,64.759331 501.685529,63.6945359 C503.319509,63.3491969 504.989559,63.1729301 506.63436,62.8887449 C507.478402,62.7448537 508.30441,62.4498767 509.148452,62.3815283 C510.100705,62.3059854 510.775218,62.9067313 511.089028,63.8743999 C511.319878,64.5902588 511.045744,65.5219546 510.443372,66.0327685 C510.263021,66.1910489 510.064635,66.3313428 509.87707,66.4788313 C508.794964,67.3169978 507.467581,67.8565899 506.77864,69.2955023" id="Fill-44" fill="#0D0F1F"></path>
                    <path d="M636.817819,7.01793543 C637.081131,7.33809343 637.546437,7.72659977 637.777286,8.22662183 C638.076669,8.87772968 638.448192,9.12594207 639.068599,8.80938134 C639.912642,10.1259862 640.085778,11.4569801 639.955926,12.8851007 C639.512262,17.7881946 639.79361,22.6768994 640.590761,27.5188396 C641.452839,32.7636753 642.430341,37.9977191 643.54491,43.1993873 C644.453879,47.4621653 645.712729,51.6494003 646.67941,55.9049837 C647.498203,59.4986674 648.151074,63.1355184 648.79673,66.7687722 C648.933797,67.5313957 648.717376,68.3587704 648.659663,69.2077287 C647.931045,69.3156471 647.46574,69.4307601 647.209642,70.1897864 C647.029291,70.7185867 646.141964,71.0099664 645.561234,71.3948755 C644.645051,72.0100105 643.782973,72.6035619 643.573766,73.8554157 C643.454735,74.5820664 643.043534,75.3015226 642.138172,75.5641241 C641.795506,75.2799389 641.478088,74.884238 641.059674,74.7007767 C639.973961,74.218741 639.541119,73.2906426 639.270592,72.2618202 C638.376051,68.8300142 637.535616,65.3874163 636.633861,61.9556103 C636.096415,59.9159519 635.382225,57.919461 634.920527,55.8654136 C634.018772,51.8472508 633.214407,47.8075042 632.413648,43.7677577 C631.894238,41.1309508 631.396469,38.4905465 630.981662,35.8357532 C630.285507,31.3787221 629.708384,26.9073019 630.079907,22.3783251 C630.130405,21.7559955 630.137619,21.1264714 630.101549,20.5041417 C629.993338,18.6083747 630.45143,16.8960689 631.692244,15.424781 C632.29101,14.7125194 632.125087,13.8707557 631.998841,13.0793538 C631.829311,11.9965723 632.22969,11.1332248 632.842884,10.3094475 C632.983557,10.1223889 633.163908,9.94971941 633.254084,9.74107711 C634.119768,7.72300249 634.256835,7.60429222 636.817819,7.01793543" id="Fill-46" fill="#0D0F1F"></path>
                </g>
            </g>
        </g>
    </g>
</svg>