<?xml version="1.0" encoding="UTF-8" standalone="no"?>
<svg width="178px" height="111px" viewBox="0 0 178 111" version="1.1" xmlns="http://www.w3.org/2000/svg" xmlns:xlink="http://www.w3.org/1999/xlink">
    <!-- Generator: Sketch 40 (33762) - http://www.bohemiancoding.com/sketch -->
    <title>Page 1</title>
    <desc>Created with Sketch.</desc>
    <defs></defs>
    <g id="Page-1" stroke="none" stroke-width="1" fill="none" fill-rule="evenodd">
        <g id="Desktop-HD" transform="translate(-1213.000000, -11100.000000)" fill="#FFFFFF">
            <g id="Page-1" transform="translate(1213.000000, 11100.000000)">
                <path d="M0,110.523058 L177.39279,110.523058 L177.39279,0.000716129032 L0,0.000716129032 L0,110.523058 Z M9.5675,100.976342 L167.82529,100.976342 L167.82529,9.546 L9.5675,9.546 L9.5675,100.976342 Z" id="Fill-1"></path>
                <path d="M0,110.522342 L177.39279,110.522342 L177.39279,0 L0,0 L0,110.522342 Z M9.5675,100.976342 L167.82529,100.976342 L167.82529,9.546 L9.5675,9.546 L9.5675,100.976342 Z" id="Fill-2"></path>
                <g id="Group-9" transform="translate(23.685484, 18.142413)">
                    <path d="M122.6509,45.2052155 C121.051053,44.7340026 120.133061,44.4181897 119.197844,44.1947574 C114.666021,43.1134026 110.096158,42.3843832 105.478206,41.9088735 C100.551626,41.4018542 95.6322226,40.6814284 90.7515774,39.7647832 C87.3609645,39.1274284 84.0349484,38.0217252 80.9055935,36.3008671 C77.7597306,34.5714155 75.5749242,31.805009 74.1939887,28.1735187 C73.6377387,26.7104671 73.030529,25.2674671 72.5474887,23.7729058 C72.140529,22.513951 71.7866823,21.2134606 71.5735129,19.8964994 C71.1708597,17.4115316 72.12115,15.4722542 73.9879968,14.3772929 C76.7577629,12.7523961 79.6351903,11.3602413 82.4968274,9.94660258 C83.8705855,9.26699613 85.3110935,8.75997677 86.7236097,8.18206065 C87.5317871,7.85120903 88.3227387,7.40148 89.1567548,7.23247355 C92.5552629,6.54570581 95.703279,4.9200929 99.0120694,3.90963484 C99.8403435,3.65684129 100.692303,3.4992929 101.537803,3.32670581 C101.954094,3.24148645 102.430674,3.34317677 102.796005,3.15197032 C107.311319,0.785163871 112.247948,1.03008 117.003706,0.223002581 C118.546134,-0.0391006452 120.247182,0.345460645 121.792481,0.803067097 C124.237827,1.52850581 126.329327,2.89129935 127.529392,5.7192929 C128.225602,7.35922839 129.338102,8.76928645 129.674005,10.8002284 C129.284271,11.5156413 128.8364,12.3363252 128.394271,13.1469832 C127.871755,13.1469832 127.421013,13.2572671 127.029844,13.1305123 C122.988956,11.8156994 118.969602,12.047009 114.888521,13.0037574 C106.533287,14.9623703 98.4543839,17.9264284 90.5061097,21.3975058 C89.3017387,21.9231445 88.1397145,22.5776865 86.9733839,23.2114606 C86.7013597,23.3589832 86.49465,23.6633381 86.0532387,24.0951639 C86.7594968,24.4252994 87.2827306,24.8334929 87.8396984,24.9058219 C92.7619726,25.5395961 97.6986016,26.02728 102.612981,26.7298026 C108.271658,27.5390284 113.919569,28.46928 119.436852,30.20088 C122.041537,31.0179832 124.522771,32.1637897 126.93869,33.5559445 C129.783819,35.19588 131.682247,37.8505703 132.931118,41.0165768 C134.029981,43.8023187 134.72619,46.7943058 134.940795,49.9023058 C135.031231,51.2135381 134.786481,52.2927445 134.154868,53.3662219 C132.260747,56.5859381 129.413465,58.26168 126.435553,59.7691316 C122.1614,61.9325574 117.567852,62.7131381 113.061868,63.8804284 C109.810497,64.7240284 106.589989,65.7810348 103.304884,66.3875961 C98.3158597,67.3085381 93.2995613,68.0926994 88.2201016,68.0876865 C86.7164323,68.0869703 85.2048677,68.1743381 83.7090935,68.3548026 C81.3549,68.6376735 79.4780048,67.76328 78.0834323,65.5891123 C77.0642387,64.0014542 75.9574806,62.4639252 75.1091097,60.7616865 C73.3190613,57.1710155 73.8379887,55.1343445 75.5684645,51.7964671 C76.1663435,50.6427832 77.3075532,50.4408348 78.4121581,51.1268865 C79.6402145,51.8895639 80.9185129,52.5956671 82.019529,53.5588606 C82.9691016,54.3902865 83.9538435,54.592951 85.0440935,54.4998542 C88.3744161,54.215551 91.7219645,54.0687445 95.0242952,53.5466865 C99.7125855,52.806209 104.402311,51.9690542 109.023134,50.8160865 C113.005166,49.8220994 116.985763,48.6562413 120.682852,46.5701574 C121.147231,46.3080542 121.573569,45.957151 122.6509,45.2052155" id="Fill-3"></path>
                    <polygon id="Fill-5" points="0.189842742 6.75624774 8.90897177 6.75624774 8.90897177 32.7689187 19.680125 32.7689187 19.680125 6.75624774 28.399254 6.75624774 28.399254 67.4818413 19.680125 67.4818413 19.680125 40.4443897 8.90897177 40.4443897 8.90897177 67.4818413 0.189842742 67.4818413"></polygon>
                    <path d="M36.0932323,21.0845574 C36.0932323,18.6396929 36.519571,16.4784155 37.3744016,14.6021574 C38.22995,12.7258994 39.3532161,11.1769123 40.7513774,9.95448 C42.1466677,8.73204774 43.7134984,7.80895742 45.4525871,7.18162839 C47.1909581,6.55716387 48.9436839,6.24421548 50.7100468,6.24421548 C52.4756919,6.24421548 54.2277,6.55716387 55.9675065,7.18162839 C57.7044419,7.80895742 59.2719903,8.73204774 60.6679984,9.95448 C62.0647242,11.1769123 63.1901435,12.7258994 64.0456919,14.6021574 C64.9005226,16.4784155 65.3268613,18.6396929 65.3268613,21.0845574 L65.3268613,53.1535316 C65.3268613,55.6556865 64.9005226,57.8305703 64.0456919,59.6774671 C63.1901435,61.5257961 62.0647242,63.0611768 60.6679984,64.283609 C59.2719903,65.5067574 57.7044419,66.4305639 55.9675065,67.0550284 C54.2277,67.6794929 52.4756919,67.9938735 50.7100468,67.9938735 C48.9436839,67.9938735 47.1909581,67.6794929 45.4525871,67.0550284 C43.7134984,66.4305639 42.1466677,65.5067574 40.7513774,64.283609 C39.3532161,63.0611768 38.22995,61.5257961 37.3744016,59.6774671 C36.519571,57.8305703 36.0932323,55.6556865 36.0932323,53.1535316 L36.0932323,21.0845574 Z M44.8123613,53.1535316 C44.8123613,55.2568026 45.39445,56.8072219 46.5636516,57.801209 C47.7307,58.7959123 49.1137887,59.2943381 50.7100468,59.2943381 C52.3048694,59.2943381 53.6872403,58.7959123 54.8564419,57.801209 C56.0227726,56.8072219 56.6077323,55.2568026 56.6077323,53.1535316 L56.6077323,21.0845574 C56.6077323,18.9805703 56.0227726,17.4315832 54.8564419,16.4354477 C53.6872403,15.4414606 52.3048694,14.943751 50.7100468,14.943751 C49.1137887,14.943751 47.7307,15.4414606 46.5636516,16.4354477 C45.39445,17.4315832 44.8123613,18.9805703 44.8123613,21.0845574 L44.8123613,53.1535316 Z" id="Fill-7"></path>
                </g>
            </g>
        </g>
    </g>
</svg>