<?xml version="1.0" encoding="utf-8"?>
<!-- Generator: Adobe Illustrator 18.0.0, SVG Export Plug-In . SVG Version: 6.00 Build 0)  -->
<svg version="1.1" id="Layer_1" xmlns="http://www.w3.org/2000/svg" xmlns:xlink="http://www.w3.org/1999/xlink" x="0px" y="0px"
	 viewBox="0 0 94.9 154.3" enable-background="new 0 0 94.9 154.3" xml:space="preserve">
<g>
	<path fill="#FFFFFF" d="M52.3,35.2c6,1.7,12.1,3.1,17.4,6.3c5.3,3.2,9.7,8.8,9.4,15c-0.2,4-2.2,7.8-4.7,10.9
		c-2.5,3.2-5.4,6-7.8,9.3c-3.1,4.3-5.1,9.8-3.7,14.8c1.1,3.7,3.9,6.7,6.9,9.2c4.5,3.6,9.5,6.5,13.7,10.5c4.1,4,6.7,9.1,6.6,15.2
		c-0.1,5.9-2.8,10.8-7.1,14.8c-4.7,4.4-11.1,5.9-18.5,7.4"/>
	<path fill="none" stroke="#FFFFFF" stroke-width="3" stroke-linecap="round" stroke-miterlimit="10" d="M52.3,35.2
		c6,1.7,12.1,3.1,17.4,6.3c5.3,3.2,9.7,8.8,9.4,15c-0.2,4-2.2,7.8-4.7,10.9c-2.5,3.2-5.4,6-7.8,9.3c-3.1,4.3-5.1,9.8-3.7,14.8
		c1.1,3.7,3.9,6.7,6.9,9.2c4.5,3.6,9.5,6.5,13.7,10.5c4.1,4,6.7,9.1,6.6,15.2c-0.1,5.9-2.8,10.8-7.1,14.8
		c-4.7,4.4-11.1,5.9-18.5,7.4"/>
</g>
<g>
	<path fill="#FFFFFF" d="M19.9,95.4c-4.8-2.5-8.6,1.1-8.5,4.5c0.1,2.5,0,8.5,9.4,10.5c2.8,0.6,5.7,1.1,8,2.6
		c3.7,2.4,4.5,7.5,1.7,10.8c-2.7,3.2-7.6,4.3-11.3,6.6c-6.2,3.9-8.4,11.8-5,17.5"/>
	<path fill="none" stroke="#FFFFFF" stroke-width="3" stroke-linecap="round" stroke-miterlimit="10" d="M19.9,95.4
		c-4.8-2.5-8.6,1.1-8.5,4.5c0.1,2.5,0,8.5,9.4,10.5c2.8,0.6,5.7,1.1,8,2.6c3.7,2.4,4.5,7.5,1.7,10.8c-2.7,3.2-7.6,4.3-11.3,6.6
		c-6.2,3.9-8.4,11.8-5,17.5"/>
</g>
<g>
	<path fill="#FFFFFF" d="M52.3,115.8c-3.4-1.4-6.8-2.8-9.5-5.3c-2.7-2.5-4.4-6.3-3.5-9.8c0.8-2.9,3.1-5,5.2-7.1
		c4-4.1,7.7-8.8,9.1-14.3c1.7-6.6-0.1-13.7-3.3-19.6s-8-11-12.7-15.9c-3.5-3.7-7.1-7.4-9.8-11.7s-4.5-9.4-4-14.5
		c0.5-5.1,3.5-10.1,8.3-12"/>
	<path fill="none" stroke="#FFFFFF" stroke-width="3" stroke-linecap="round" stroke-miterlimit="10" d="M52.3,115.8
		c-3.4-1.4-6.8-2.8-9.5-5.3c-2.7-2.5-4.4-6.3-3.5-9.8c0.8-2.9,3.1-5,5.2-7.1c4-4.1,7.7-8.8,9.1-14.3c1.7-6.6-0.1-13.7-3.3-19.6
		c-3.3-6-8-11-12.7-15.9c-3.5-3.7-7.1-7.4-9.8-11.7s-4.5-9.4-4-14.5c0.5-5.1,3.5-10.1,8.3-12"/>
</g>
</svg>
