<?xml version="1.0" encoding="UTF-8" standalone="no"?>
<svg width="78px" height="78px" viewBox="0 0 78 78" version="1.1" xmlns="http://www.w3.org/2000/svg" xmlns:xlink="http://www.w3.org/1999/xlink">
    <!-- Generator: Sketch 40 (33762) - http://www.bohemiancoding.com/sketch -->
    <title> copy 2</title>
    <desc>Created with Sketch.</desc>
    <defs></defs>
    <g id="HP-temp" stroke="none" stroke-width="1" fill="none" fill-rule="evenodd">
        <g id="Desktop-HD-Copy-2" transform="translate(-501.000000, -7678.000000)" fill="#FFFFFF">
            <path d="M569.404018,7743.47545 L569.404018,7710.9308 L562.623884,7710.9308 C563.29353,7713.04019 563.628348,7715.23325 563.628348,7717.51004 C563.628348,7721.72882 562.55693,7725.62108 560.414062,7729.18694 C558.271195,7732.75281 555.358277,7735.57365 551.675223,7737.64955 C547.992169,7739.72546 543.974352,7740.76339 539.621652,7740.76339 C533.025637,7740.76339 527.383952,7738.495 522.696429,7733.95815 C518.008905,7729.42129 515.665179,7723.93865 515.665179,7717.51004 C515.665179,7715.23325 515.999997,7713.04019 516.669643,7710.9308 L509.58817,7710.9308 L509.58817,7743.47545 C509.58817,7744.34599 509.881135,7745.07422 510.467076,7745.66016 C511.053016,7746.2461 511.781246,7746.53906 512.651786,7746.53906 L566.340402,7746.53906 C567.17746,7746.53906 567.897318,7746.2461 568.5,7745.66016 C569.102682,7745.07422 569.404018,7744.34599 569.404018,7743.47545 L569.404018,7743.47545 Z M555.140625,7716.70647 C555.140625,7712.55467 553.625573,7709.01397 550.595424,7706.08426 C547.565275,7703.15456 543.907388,7701.68973 539.621652,7701.68973 C535.369398,7701.68973 531.728252,7703.15456 528.698103,7706.08426 C525.667954,7709.01397 524.152902,7712.55467 524.152902,7716.70647 C524.152902,7720.85828 525.667954,7724.39898 528.698103,7727.32868 C531.728252,7730.25839 535.369398,7731.72321 539.621652,7731.72321 C543.907388,7731.72321 547.565275,7730.25839 550.595424,7727.32868 C553.625573,7724.39898 555.140625,7720.85828 555.140625,7716.70647 L555.140625,7716.70647 Z M569.404018,7698.62612 L569.404018,7690.33929 C569.404018,7689.40178 569.0692,7688.58985 568.399554,7687.90346 C567.729907,7687.21707 566.909603,7686.87388 565.938616,7686.87388 L557.199777,7686.87388 C556.22879,7686.87388 555.408485,7687.21707 554.738839,7687.90346 C554.069193,7688.58985 553.734375,7689.40178 553.734375,7690.33929 L553.734375,7698.62612 C553.734375,7699.5971 554.069193,7700.41741 554.738839,7701.08705 C555.408485,7701.7567 556.22879,7702.09152 557.199777,7702.09152 L565.938616,7702.09152 C566.909603,7702.09152 567.729907,7701.7567 568.399554,7701.08705 C569.0692,7700.41741 569.404018,7699.5971 569.404018,7698.62612 L569.404018,7698.62612 Z M578.142857,7688.17969 L578.142857,7745.5346 C578.142857,7748.24667 577.171885,7750.57365 575.229911,7752.51562 C573.287937,7754.4576 570.960951,7755.42857 568.248884,7755.42857 L510.893973,7755.42857 C508.181906,7755.42857 505.85492,7754.4576 503.912946,7752.51562 C501.970972,7750.57365 501,7748.24667 501,7745.5346 L501,7688.17969 C501,7685.46762 501.970972,7683.14063 503.912946,7681.19866 C505.85492,7679.25669 508.181906,7678.28571 510.893973,7678.28571 L568.248884,7678.28571 C570.960951,7678.28571 573.287937,7679.25669 575.229911,7681.19866 C577.171885,7683.14063 578.142857,7685.46762 578.142857,7688.17969 L578.142857,7688.17969 Z" id="-copy-2"></path>
        </g>
    </g>
</svg>