<?xml version="1.0" encoding="UTF-8" standalone="no"?>
<svg width="83px" height="78px" viewBox="0 0 83 78" version="1.1" xmlns="http://www.w3.org/2000/svg" xmlns:xlink="http://www.w3.org/1999/xlink">
    <!-- Generator: Sketch 40 (33762) - http://www.bohemiancoding.com/sketch -->
    <title></title>
    <desc>Created with Sketch.</desc>
    <defs></defs>
    <g id="HP-temp" stroke="none" stroke-width="1" fill="none" fill-rule="evenodd">
        <g id="Desktop-HD-Copy-2" transform="translate(-674.000000, -7678.000000)" fill="#FFFFFF">
            <path d="M716.589286,7678.28571 C721.075915,7678.25223 725.102103,7679.39898 728.667969,7681.726 C732.233835,7684.05303 734.970973,7687.27565 736.879464,7691.39397 C737.783487,7693.33595 738.235491,7696.33257 738.235491,7700.38393 C738.235491,7701.9576 738.084823,7705.15511 737.783482,7709.97656 C738.252234,7710.21094 738.72098,7710.32812 739.189732,7710.32812 C739.792414,7710.32812 740.6462,7710.10212 741.751116,7709.65011 C742.856032,7709.1981 743.709818,7708.9721 744.3125,7708.9721 C745.283487,7708.9721 746.220978,7709.27343 747.125,7709.87612 C748.029022,7710.4788 748.481027,7711.24888 748.481027,7712.18638 C748.481027,7713.25782 747.953688,7714.16183 746.898996,7714.89844 C745.844303,7715.63505 744.68918,7716.16239 743.433594,7716.48047 C742.178007,7716.79855 741.022885,7717.28404 739.968192,7717.93694 C738.913499,7718.58985 738.386161,7719.38504 738.386161,7720.32254 C738.386161,7720.82478 738.587052,7721.54464 738.988839,7722.48214 C740.227685,7725.22769 741.943627,7727.73883 744.136719,7730.01562 C746.32981,7732.29242 748.748871,7733.98325 751.393973,7735.08817 C752.331478,7735.48996 753.67075,7735.875 755.41183,7736.2433 C756.349335,7736.4442 756.81808,7737.03013 756.81808,7738.00112 C756.81808,7740.34488 753.151822,7742.06919 745.819196,7743.17411 C745.58482,7743.54241 745.40067,7744.19531 745.266741,7745.13281 C745.132812,7746.07032 744.898439,7746.84877 744.563616,7747.46819 C744.228793,7748.08761 743.676343,7748.39732 742.90625,7748.39732 C742.236604,7748.39732 741.198668,7748.28851 739.792411,7748.07087 C738.386154,7747.85324 737.314736,7747.74442 736.578125,7747.74442 C735.33928,7747.74442 734.301343,7747.82812 733.464286,7747.99554 C732.392852,7748.16295 731.338175,7748.53962 730.300223,7749.12556 C729.262272,7749.7115 728.291299,7750.34765 727.387277,7751.03404 C726.483254,7751.72043 725.512282,7752.39843 724.47433,7753.06808 C723.436379,7753.73773 722.16407,7754.29855 720.657366,7754.75056 C719.150662,7755.20257 717.493313,7755.42857 715.685268,7755.42857 C713.944188,7755.42857 712.32869,7755.20257 710.838728,7754.75056 C709.348765,7754.29855 708.093197,7753.73773 707.071987,7753.06808 C706.050776,7752.39843 705.088174,7751.72043 704.184152,7751.03404 C703.280129,7750.34765 702.309157,7749.7115 701.271205,7749.12556 C700.233254,7748.53962 699.195318,7748.16295 698.157366,7747.99554 C697.286826,7747.82812 696.232149,7747.74442 694.993304,7747.74442 C694.189728,7747.74442 693.093199,7747.86998 691.703683,7748.12109 C690.314167,7748.37221 689.334824,7748.49777 688.765625,7748.49777 C687.928567,7748.49777 687.342636,7748.18806 687.007812,7747.56864 C686.672989,7746.94922 686.438617,7746.15402 686.304688,7745.18304 C686.170758,7744.21205 685.986608,7743.54241 685.752232,7743.17411 C678.419606,7742.06919 674.753348,7740.34488 674.753348,7738.00112 C674.753348,7737.03013 675.222094,7736.4442 676.159598,7736.2433 C677.900678,7735.875 679.239951,7735.48996 680.177455,7735.08817 C682.789076,7734.01674 685.208136,7732.3259 687.43471,7730.01562 C689.661283,7727.70535 691.377226,7725.19421 692.582589,7722.48214 C692.984377,7721.54464 693.185268,7720.82478 693.185268,7720.32254 C693.185268,7719.38504 692.657929,7718.58985 691.603237,7717.93694 C690.548544,7717.28404 689.385051,7716.79018 688.112723,7716.45536 C686.840395,7716.12053 685.676903,7715.5932 684.62221,7714.87333 C683.567517,7714.15346 683.040179,7713.27456 683.040179,7712.23661 C683.040179,7711.33258 683.475442,7710.57087 684.345982,7709.95145 C685.216522,7709.33203 686.137272,7709.02232 687.108259,7709.02232 C687.610494,7709.02232 688.414057,7709.23995 689.518973,7709.67522 C690.623889,7710.11049 691.511157,7710.32812 692.180804,7710.32812 C692.783485,7710.32812 693.319194,7710.21094 693.787946,7709.97656 C693.486606,7705.22207 693.335938,7702.0413 693.335938,7700.43415 C693.335938,7696.34931 693.787942,7693.33595 694.691964,7691.39397 C696.834832,7686.8069 699.714268,7683.4922 703.330357,7681.44978 C706.946447,7679.40736 711.366045,7678.35268 716.589286,7678.28571 L716.589286,7678.28571 Z" id=""></path>
        </g>
    </g>
</svg>