<?xml version="1.0" encoding="UTF-8" standalone="no"?>
<svg width="191px" height="39px" viewBox="0 0 191 39" version="1.1" xmlns="http://www.w3.org/2000/svg" xmlns:xlink="http://www.w3.org/1999/xlink">
    <!-- Generator: Sketch 41.2 (35397) - http://www.bohemiancoding.com/sketch -->
    <title>Page 1</title>
    <desc>Created with Sketch.</desc>
    <defs></defs>
    <g id="HP-temp" stroke="none" stroke-width="1" fill="none" fill-rule="evenodd">
        <g id="Desktop-HD" transform="translate(-204.000000, -5660.000000)" fill="#02C0C0">
            <g id="Page-1" transform="translate(204.000000, 5660.000000)">
                <polygon id="Fill-1" points="110.415232 5.04907918 110.415232 10.0234981 117.896757 10.0234981 117.896757 38.3368697 123.470358 38.3368697 123.470358 10.0234981 131.000326 10.0234981 131.000326 5.04907918"></polygon>
                <polygon id="Fill-2" points="134.422478 38.3366667 140.045906 38.3366667 140.045906 5.04887612 134.422478 5.04887612"></polygon>
                <g id="Group-15" transform="translate(0.000000, 0.364163)">
                    <path d="M161.413754,14.8479872 C161.413754,13.1977446 161.006149,11.9367101 160.190939,11.06353 C159.376421,10.1910268 158.138381,9.75511367 156.475435,9.75511367 L151.829845,9.75511367 L151.829845,20.0376552 L156.524569,20.0376552 C158.186823,20.0376552 159.416558,19.5699285 160.215852,18.6331213 C161.014453,17.6969911 161.413754,16.4359566 161.413754,14.8479872 M166.938913,14.9677957 C166.938913,16.4027893 166.726461,17.7416654 166.302939,18.9851009 C165.879417,20.2285364 165.252439,21.3129042 164.421312,22.2375275 C163.590185,23.1621507 162.538301,23.8870932 161.267044,24.4137088 C159.995787,24.9396475 158.512768,25.2029553 156.817297,25.2029553 L151.829845,25.2029553 L151.829845,37.9723678 L146.256243,37.9723678 L146.256243,4.68457727 L156.524569,4.68457727 C158.120388,4.68457727 159.555656,4.89305747 160.826913,5.30663346 C162.098171,5.72156322 163.190192,6.35106513 164.102979,7.19581609 C165.015073,8.04124393 165.71679,9.10868966 166.206055,10.4008608 C166.694627,11.6916782 166.938913,13.2146667 166.938913,14.9677957" id="Fill-3"></path>
                    <path d="M190.898618,28.502696 C190.898618,31.5324278 189.952614,33.9150587 188.062683,35.6526194 C186.17206,37.390857 183.498752,38.2592989 180.043451,38.2592989 C177.305092,38.2592989 175.038697,37.7306526 173.246342,36.6720064 C171.453987,35.614037 170.051245,34.245378 169.041574,32.56806 L173.638723,29.3156335 C174.387498,30.4636284 175.283676,31.3808059 176.326563,32.0658123 C177.370143,32.7514955 178.640708,33.0939987 180.141027,33.0939987 C181.933382,33.0939987 183.197027,32.6709464 183.93127,31.8241648 C184.663437,30.9787369 185.030904,29.9322746 185.030904,28.6861315 C185.030904,27.920576 184.884194,27.2660294 184.590774,26.7224917 C184.297353,26.1796309 183.889056,25.7085198 183.36865,25.3091584 C182.846861,24.9104738 182.210194,24.5672937 181.461418,24.2789413 C180.711259,23.9919425 179.896741,23.7205121 179.01648,23.4646501 C177.386752,22.9542797 176.00131,22.4114189 174.860154,21.8360677 C173.71969,21.2613934 172.782683,20.5987241 172.049132,19.8487369 C171.314889,19.0980728 170.785487,18.2357229 170.459542,17.2616871 C170.133596,16.2869745 169.970277,15.1768851 169.970277,13.9314189 C169.970277,12.5580217 170.214563,11.2888646 170.703828,10.1232708 C171.193092,8.95767688 171.893426,7.95182759 172.806904,7.10504598 C173.71969,6.25894125 174.803408,5.60439464 176.058056,5.14072925 C177.312013,4.67774074 178.72306,4.44624649 180.288429,4.44624649 C182.830944,4.44624649 184.891806,4.86049936 186.473092,5.68968199 C188.053687,6.51886462 189.317332,7.64993742 190.263335,9.08493103 L186.008741,12.5769745 C185.258582,11.5562337 184.410846,10.8069234 183.466226,10.3283665 C182.520223,9.85048659 181.428893,9.61154662 180.189469,9.61154662 C178.72306,9.61154662 177.598513,10.0021086 176.815828,10.7825556 C176.033835,11.5650332 175.642839,12.5451609 175.642839,13.7242925 C175.642839,14.3937305 175.821382,14.9765275 176.180545,15.4699757 C176.539016,15.9647778 177.028281,16.4027216 177.647647,16.7851609 C178.266321,17.1676003 179.000563,17.5107803 179.847607,17.8133474 C180.695342,18.1165913 181.59152,18.4117126 182.537524,18.6987114 C184.134034,19.1765913 185.46273,19.7262209 186.522226,20.3482771 C187.581723,20.9703333 188.437071,21.6803844 189.088962,22.4770766 C189.741545,23.2737688 190.205205,24.1672554 190.482016,25.1548289 C190.75952,26.1437561 190.898618,27.2592605 190.898618,28.502696" id="Fill-5"></path>
                    <path d="M8.21514529,23.8596794 L12.5666236,23.8596794 C12.5984569,23.6687982 12.6648917,23.285682 12.7617757,22.7123614 C12.8600438,22.138364 12.9652322,21.5251073 13.0801091,20.8705607 C13.1936018,20.2173678 13.3001743,19.6034342 13.3977504,19.0294368 C13.4960185,18.4554393 13.5610692,18.073 13.5929025,17.8814419 L9.24142428,17.8814419 L8.21514529,23.8596794 Z M6.92028987e-05,23.8596794 L4.20552935,23.8596794 C4.23736268,23.6687982 4.29480109,23.285682 4.37646051,22.7123614 C4.4574279,22.138364 4.55500399,21.5251073 4.6698808,20.8705607 C4.78337355,20.2173678 4.88994601,19.6034342 4.9875221,19.0294368 C5.08579022,18.4554393 5.15014891,18.073 5.1833663,17.8814419 L1.6138808,17.8814419 L1.6138808,14.246576 L5.77020688,14.246576 L7.38401848,4.34647382 L11.4420764,4.34647382 L9.82826486,14.246576 L14.1313011,14.246576 C14.1963518,13.8641367 14.3105366,13.2028212 14.4738554,12.2619527 C14.6357902,11.3224381 14.8074134,10.3335109 14.9866489,9.2965249 C15.1658844,8.26089272 15.3292033,7.27196552 15.4759134,6.33109706 C15.6226236,5.39158238 15.727812,4.72891315 15.7935547,4.34647382 L19.8523047,4.34647382 L18.140917,14.246576 L21.9055547,14.246576 L21.9055547,17.8814419 L17.5540764,17.8814419 L16.5762395,23.8596794 L20.3408772,23.8596794 L20.3408772,27.4945453 L15.9893989,27.4945453 C15.9236562,27.9094751 15.8101634,28.5944815 15.6468446,29.5509183 C15.4835257,30.507355 15.3125946,31.5125275 15.1333591,32.5644049 C14.9541236,33.6162822 14.7914967,34.6207778 14.6447866,35.5778914 C14.4980764,36.5343282 14.392196,37.2200115 14.3271453,37.6342644 L10.2683953,37.6342644 C10.333446,37.2200115 10.4476308,36.5343282 10.6109496,35.5778914 C10.7735764,34.6207778 10.9445076,33.6162822 11.1244351,32.5644049 C11.3029786,31.5125275 11.4662975,30.507355 11.6130076,29.5509183 C11.7597178,28.5944815 11.8649062,27.9094751 11.9306489,27.4945453 L7.62761268,27.4945453 C7.56256196,27.9094751 7.4490692,28.5944815 7.28575036,29.5509183 C7.12243152,30.507355 6.95150036,31.5125275 6.77226486,32.5644049 C6.59233732,33.6162822 6.43040254,34.6207778 6.28369239,35.5778914 C6.13698225,36.5343282 6.03040978,37.2200115 5.96535906,37.6342644 L1.85816703,37.6342644 L3.56955471,27.4945453 L6.92028987e-05,27.4945453 L6.92028987e-05,23.8596794 Z" id="Fill-7"></path>
                    <path d="M95.7572964,25.5765275 C94.8424341,25.3118659 94.3178761,25.1351992 93.7829377,25.0099757 C91.1912891,24.4034879 88.5781877,23.9953269 85.9374051,23.7286347 C83.1201551,23.4443436 80.3070572,23.0409208 77.5161043,22.5264891 C75.5777312,22.1690945 73.6753435,21.5497458 71.8864486,20.5851865 C70.0871732,19.615212 68.8380609,18.0644713 68.0484558,16.0290817 C67.7301225,15.2086986 67.3834159,14.3998225 67.1066043,13.5625172 C66.8740826,12.8565275 66.6720101,12.1275236 66.549521,11.3890434 C66.3197674,9.9960166 66.8630101,8.90894125 67.9301188,8.29500766 C69.5141732,7.38392209 71.1598181,6.60415198 72.7957746,5.81152107 C73.5819196,5.4304355 74.4054341,5.14614432 75.2130319,4.82191699 C75.6753072,4.63645083 76.1278942,4.38465006 76.6047022,4.28988633 C78.5479196,3.90473946 80.347887,2.9936539 82.2398942,2.42710217 C82.713242,2.28563346 83.2004304,2.19763857 83.6841587,2.10084419 C83.9222167,2.05278544 84.1948761,2.10964368 84.4038688,2.00269604 C86.985829,0.676003831 89.8086152,0.812734355 92.5282891,0.36057599 C93.4099341,0.213692209 94.3829268,0.429618135 95.2666478,0.686157088 C96.6645464,1.09228736 97.8603725,1.85648914 98.5468652,3.44175096 C98.9454739,4.36095913 99.5814486,5.15155939 99.7738326,6.29007791 C99.5503072,6.6907931 99.2942565,7.15107407 99.0416659,7.60593997 C98.7427094,7.60593997 98.4852746,7.6675364 98.2610572,7.59578672 C95.9503725,6.85933716 93.6521442,6.98929885 91.3186225,7.5253908 C86.5408543,8.6232963 81.9208688,10.2843691 77.3756225,12.23041 C76.6870536,12.5248544 76.0227058,12.8924023 75.3562819,13.2470894 C75.2005754,13.3303461 75.0822384,13.5002439 74.8296478,13.7425683 C75.2337928,13.9280345 75.5327493,14.1568212 75.8517746,14.1967573 C78.6655645,14.5527982 81.4890428,14.8255824 84.2986804,15.2195287 C87.534608,15.6730409 90.7643072,16.1949183 93.9192674,17.1655696 C95.4085138,17.623143 96.8278652,18.2655057 98.2091551,19.0459527 C99.8361152,19.9658378 100.921909,21.4536284 101.636083,23.2284176 C102.264445,24.7899885 102.662362,26.4673065 102.784851,28.2096054 C102.836753,28.9447011 102.696271,29.5498352 102.335724,30.150908 C101.252699,31.9561571 99.6243543,32.8956718 97.921963,33.7404227 C95.4777167,34.9533985 92.8507746,35.3906654 90.2743507,36.045212 C88.4148688,36.5183538 86.5726877,37.1106271 84.694521,37.4510996 C81.8419775,37.9668851 78.9735174,38.4068595 76.0690717,38.404152 C75.2088797,38.4034751 74.3445355,38.4522107 73.4891877,38.5530664 C72.1431913,38.7121341 71.0698543,38.2220702 70.272637,37.0030026 C69.6899486,36.1129004 69.056742,35.2512273 68.5716297,34.2968212 C67.5481188,32.2844457 67.8449993,31.1425428 68.8339087,29.271636 C69.175771,28.6245351 69.8283543,28.5114955 70.4601768,28.8959655 C71.1625862,29.3230792 71.8933688,29.7197331 72.5231152,30.2592095 C73.066358,30.7255824 73.6296696,30.8392989 74.2531877,30.7865019 C76.1569594,30.6274342 78.0711116,30.5448544 79.9596587,30.2524406 C82.640579,29.8375109 85.3221913,29.3684304 87.964358,28.7220064 C90.2418254,28.164931 92.5179087,27.5110613 94.6320572,26.3414061 C94.8977964,26.1945223 95.1413906,25.9975492 95.7572964,25.5765275" id="Fill-9"></path>
                    <polygon id="Fill-11" points="25.7307449 4.02299106 30.7168138 4.02299106 30.7168138 18.6050983 36.8758717 18.6050983 36.8758717 4.02299106 41.8619406 4.02299106 41.8619406 38.0641533 36.8758717 38.0641533 36.8758717 22.9073716 30.7168138 22.9073716 30.7168138 38.0641533 25.7307449 38.0641533"></polygon>
                    <path d="M51.2470301,30.0319796 C51.2470301,31.2111111 51.579896,32.0802299 52.248396,32.6373052 C52.916204,33.1950575 53.7065011,33.4746105 54.6192873,33.4746105 C55.5313815,33.4746105 56.3223707,33.1950575 56.9901786,32.6373052 C57.6572946,32.0802299 57.9922366,31.2111111 57.9922366,30.0319796 L57.9922366,12.0553001 C57.9922366,10.8761686 57.6572946,10.0077267 56.9901786,9.44862069 C56.3223707,8.89154534 55.5313815,8.61266922 54.6192873,8.61266922 C53.7065011,8.61266922 52.916204,8.89154534 52.248396,9.44862069 C51.579896,10.0077267 51.2470301,10.8761686 51.2470301,12.0553001 L51.2470301,30.0319796 Z M46.2609612,12.0553001 C46.2609612,10.6846105 46.5052475,9.47298851 46.9938199,8.42111111 C47.4830844,7.3699106 48.1259793,6.50079183 48.9252728,5.81578544 C49.7231822,5.13077905 50.6186678,4.61296296 51.6131134,4.26166028 C52.606867,3.91103448 53.609617,3.73572158 54.6192873,3.73572158 C55.6289576,3.73572158 56.6310156,3.91103448 57.6261533,4.26166028 C58.6192149,4.61296296 59.5153924,5.13077905 60.3139938,5.81578544 C61.1125953,6.50079183 61.7561822,7.3699106 62.2447547,8.42111111 C62.7340192,9.47298851 62.9776134,10.6846105 62.9776134,12.0553001 L62.9776134,30.0319796 C62.9776134,31.4344828 62.7340192,32.6542273 62.2447547,33.6891826 C61.7561822,34.7254917 61.1125953,35.585811 60.3139938,36.2714943 C59.5153924,36.9571775 58.6192149,37.4749936 57.6261533,37.8249425 C56.6310156,38.1748914 55.6289576,38.3515581 54.6192873,38.3515581 C53.609617,38.3515581 52.606867,38.1748914 51.6131134,37.8249425 C50.6186678,37.4749936 49.7231822,36.9571775 48.9252728,36.2714943 C48.1259793,35.585811 47.4830844,34.7254917 46.9938199,33.6891826 C46.5052475,32.6542273 46.2609612,31.4344828 46.2609612,30.0319796 L46.2609612,12.0553001 Z" id="Fill-13"></path>
                </g>
            </g>
        </g>
    </g>
</svg>