<?xml version="1.0" encoding="UTF-8" standalone="no"?>
<svg width="80px" height="65px" viewBox="0 0 80 65" version="1.1" xmlns="http://www.w3.org/2000/svg" xmlns:xlink="http://www.w3.org/1999/xlink">
    <!-- Generator: Sketch 40 (33762) - http://www.bohemiancoding.com/sketch -->
    <title> copy 2</title>
    <desc>Created with Sketch.</desc>
    <defs></defs>
    <g id="HP-temp" stroke="none" stroke-width="1" fill="none" fill-rule="evenodd">
        <g id="Desktop-HD-Copy-2" transform="translate(-965.000000, -7684.000000)" fill="#FFFFFF">
            <path d="M1044.36161,7692.34821 C1042.11829,7695.62948 1039.40627,7698.42521 1036.22545,7700.73549 C1036.25893,7701.20424 1036.27567,7701.90736 1036.27567,7702.84487 C1036.27567,7707.19757 1035.63952,7711.54183 1034.36719,7715.87779 C1033.09486,7720.21375 1031.16129,7724.37386 1028.56641,7728.35826 C1025.97153,7732.34265 1022.88283,7735.86661 1019.30022,7738.93025 C1015.71762,7741.99388 1011.39846,7744.43805 1006.34263,7746.26283 C1001.28681,7748.08762 995.879493,7749 990.120536,7749 C981.04683,7749 972.743341,7746.57257 965.209821,7741.71763 C966.381702,7741.85156 967.687493,7741.91853 969.127232,7741.91853 C976.660752,7741.91853 983.373854,7739.60828 989.266741,7734.98772 C985.751098,7734.92076 982.603809,7733.84097 979.824777,7731.74833 C977.045745,7729.65568 975.137282,7726.98551 974.09933,7723.73772 C975.204247,7723.90513 976.225442,7723.98884 977.162946,7723.98884 C978.602686,7723.98884 980.025663,7723.80469 981.43192,7723.43638 C977.681901,7722.66629 974.576463,7720.79968 972.115513,7717.8365 C969.654564,7714.87331 968.424107,7711.43306 968.424107,7707.51562 L968.424107,7707.31473 C970.700904,7708.58706 973.145076,7709.27344 975.756696,7709.37388 C973.546864,7707.90066 971.789069,7705.97546 970.483259,7703.59821 C969.177449,7701.22097 968.524554,7698.64287 968.524554,7695.86384 C968.524554,7692.9174 969.261153,7690.18863 970.734375,7687.67746 C974.785735,7692.66632 979.715931,7696.65903 985.525112,7699.65569 C991.334292,7702.65236 997.553538,7704.31808 1004.18304,7704.6529 C1003.91518,7703.38057 1003.78125,7702.14175 1003.78125,7700.93638 C1003.78125,7696.44975 1005.36327,7692.62446 1008.52734,7689.46038 C1011.69142,7686.2963 1015.51672,7684.71429 1020.00335,7684.71429 C1024.69087,7684.71429 1028.64172,7686.42186 1031.85603,7689.83705 C1035.5056,7689.13393 1038.93748,7687.82813 1042.15179,7685.91964 C1040.91294,7689.77011 1038.53573,7692.74999 1035.02009,7694.85938 C1038.13394,7694.52455 1041.24775,7693.68751 1044.36161,7692.34821 L1044.36161,7692.34821 Z" id="-copy-2"></path>
        </g>
    </g>
</svg>