<?xml version="1.0" encoding="UTF-8" standalone="no"?>
<svg width="22px" height="18px" viewBox="0 0 22 18" version="1.1" xmlns="http://www.w3.org/2000/svg" xmlns:xlink="http://www.w3.org/1999/xlink">
    <!-- Generator: Sketch 40 (33762) - http://www.bohemiancoding.com/sketch -->
    <title> copy 4</title>
    <desc>Created with Sketch.</desc>
    <defs></defs>
    <g id="hp" stroke="none" stroke-width="1" fill="none" fill-rule="evenodd">
        <g id="Desktop-HD-Copy-2" transform="translate(-883.000000, -9607.000000)" fill="#ABB8C2">
            <path d="M904.696429,9609.89286 C904.098211,9610.76786 903.375004,9611.51339 902.526786,9612.12946 C902.535714,9612.25446 902.540179,9612.44196 902.540179,9612.69196 C902.540179,9613.85268 902.370537,9615.01115 902.03125,9616.16741 C901.691963,9617.32367 901.176343,9618.43303 900.484375,9619.49554 C899.792407,9620.55804 898.968755,9621.49776 898.013393,9622.31473 C897.058031,9623.1317 895.906257,9623.78348 894.558036,9624.27009 C893.209815,9624.7567 891.767865,9625 890.232143,9625 C887.812488,9625 885.598224,9624.35269 883.589286,9623.05804 C883.901787,9623.09375 884.249998,9623.11161 884.633929,9623.11161 C886.642867,9623.11161 888.433028,9622.49554 890.004464,9621.26339 C889.06696,9621.24554 888.227682,9620.95759 887.486607,9620.39955 C886.745532,9619.84152 886.236609,9619.12947 885.959821,9618.26339 C886.254466,9618.30804 886.526784,9618.33036 886.776786,9618.33036 C887.160716,9618.33036 887.540177,9618.28125 887.915179,9618.18304 C886.915174,9617.97768 886.087057,9617.47991 885.430804,9616.68973 C884.77455,9615.89955 884.446429,9614.98215 884.446429,9613.9375 L884.446429,9613.88393 C885.053574,9614.22322 885.705354,9614.40625 886.401786,9614.43304 C885.812497,9614.04018 885.343752,9613.52679 884.995536,9612.89286 C884.64732,9612.25893 884.473214,9611.57143 884.473214,9610.83036 C884.473214,9610.04464 884.669641,9609.31697 885.0625,9608.64732 C886.142863,9609.97769 887.457582,9611.04241 889.006696,9611.84152 C890.555811,9612.64063 892.214277,9613.08482 893.982143,9613.17411 C893.910714,9612.83482 893.875,9612.50447 893.875,9612.18304 C893.875,9610.9866 894.296871,9609.96652 895.140625,9609.12277 C895.984379,9608.27901 897.004458,9607.85714 898.200893,9607.85714 C899.450899,9607.85714 900.50446,9608.3125 901.361607,9609.22321 C902.334826,9609.03571 903.249996,9608.6875 904.107143,9608.17857 C903.776784,9609.20536 903.142862,9610 902.205357,9610.5625 C903.035718,9610.47321 903.866067,9610.25 904.696429,9609.89286 L904.696429,9609.89286 Z" id="-copy-4"></path>
        </g>
    </g>
</svg>