<?xml version="1.0" encoding="UTF-8" standalone="no"?>
<svg width="63px" height="50px" viewBox="0 0 63 50" version="1.1" xmlns="http://www.w3.org/2000/svg" xmlns:xlink="http://www.w3.org/1999/xlink">
    <!-- Generator: Sketch 40 (33762) - http://www.bohemiancoding.com/sketch -->
    <title> copy 3</title>
    <desc>Created with Sketch.</desc>
    <defs></defs>
    <g id="hp" stroke="none" stroke-width="1" fill="none" fill-rule="evenodd" opacity="0.55">
        <g id="Desktop-HD-Copy-2" transform="translate(-344.000000, -9223.000000)" fill="#FFFFFF">
            <path d="M406.28125,9228.9375 C404.53645,9231.4896 402.427096,9233.66405 399.953125,9235.46094 C399.979167,9235.82552 399.992188,9236.37239 399.992188,9237.10156 C399.992188,9240.487 399.497401,9243.86587 398.507812,9247.23828 C397.518224,9250.61069 396.014333,9253.84634 393.996094,9256.94531 C391.977854,9260.04429 389.575535,9262.78514 386.789062,9265.16797 C384.00259,9267.55079 380.643249,9269.45182 376.710938,9270.87109 C372.778626,9272.29037 368.572939,9273 364.09375,9273 C357.036423,9273 350.578154,9271.112 344.71875,9267.33594 C345.630213,9267.4401 346.645828,9267.49219 347.765625,9267.49219 C353.625029,9267.49219 358.846331,9265.69533 363.429688,9262.10156 C360.695299,9262.04948 358.247407,9261.20964 356.085938,9259.58203 C353.924468,9257.95442 352.440108,9255.87762 351.632812,9253.35156 C352.492192,9253.48177 353.286455,9253.54688 354.015625,9253.54688 C355.135422,9253.54688 356.242182,9253.40365 357.335938,9253.11719 C354.419256,9252.51823 352.003916,9251.06642 350.089844,9248.76172 C348.175772,9246.45702 347.21875,9243.78127 347.21875,9240.73438 L347.21875,9240.57812 C348.989592,9241.56771 350.890615,9242.10156 352.921875,9242.17969 C351.203116,9241.03385 349.835943,9239.53647 348.820312,9237.6875 C347.804682,9235.83853 347.296875,9233.83334 347.296875,9231.67188 C347.296875,9229.3802 347.869786,9227.25782 349.015625,9225.30469 C352.166682,9229.18492 356.001279,9232.29035 360.519531,9234.62109 C365.037783,9236.95183 369.874974,9238.24739 375.03125,9238.50781 C374.822916,9237.51822 374.71875,9236.55469 374.71875,9235.61719 C374.71875,9232.12759 375.949206,9229.15236 378.410156,9226.69141 C380.871106,9224.23046 383.846337,9223 387.335938,9223 C390.981789,9223 394.054675,9224.32811 396.554688,9226.98438 C399.393243,9226.4375 402.062487,9225.42188 404.5625,9223.9375 C403.598954,9226.93231 401.750014,9229.24999 399.015625,9230.89062 C401.437512,9230.63021 403.859363,9229.97917 406.28125,9228.9375 L406.28125,9228.9375 Z" id="-copy-3"></path>
        </g>
    </g>
</svg>